<?xml version="1.0" encoding="UTF-8" standalone="no"?>
<!-- Created with Inkscape (http://www.inkscape.org/) -->

<svg
   version="1.1"
   id="svg2"
   width="4600"
   height="2666.6667"
   viewBox="0 0 4600 2666.6667"
   sodipodi:docname="Happy group of people celebrating together.eps"
   xmlns:inkscape="http://www.inkscape.org/namespaces/inkscape"
   xmlns:sodipodi="http://sodipodi.sourceforge.net/DTD/sodipodi-0.dtd"
   xmlns="http://www.w3.org/2000/svg"
   xmlns:svg="http://www.w3.org/2000/svg">
  <defs
     id="defs6" />
  <sodipodi:namedview
     id="namedview4"
     pagecolor="#ffffff"
     bordercolor="#000000"
     borderopacity="0.25"
     inkscape:showpageshadow="2"
     inkscape:pageopacity="0.0"
     inkscape:pagecheckerboard="0"
     inkscape:deskcolor="#d1d1d1" />
  <g
     id="g8"
     inkscape:groupmode="layer"
     inkscape:label="ink_ext_XXXXXX"
     transform="matrix(1.3333333,0,0,-1.3333333,0,2666.6667)">
    <g
       id="g10"
       transform="scale(0.1)">
      <path
         d="M 0,0 H 34500 V 20000 H 0 Z"
         style="fill:#ffffff;fill-opacity:1;fill-rule:nonzero;stroke:none"
         id="path12" />
      <path
         d="m 17922.8,9462 c 337.8,920.5 -104.6,1213.7 -104.6,1213.7 19.6,-401.7 113.8,-467.6 -62.7,-1102.9 l 167.3,-110.8"
         style="fill:#000000;fill-opacity:1;fill-rule:nonzero;stroke:none"
         id="path14" />
      <path
         d="m 16111.1,10268.1 c -109.3,-1273.7 -348.5,-1797.2 179.1,-1956.2 -23,-143.4 -188,-669.5 -150.9,-812 219.4,-796.1 1516.6,-470.7 1495.4,104.3 29.1,295.5 11.3,893.5 11.4,895.6 62.8,273.7 155.3,1710.7 180.9,2015.6 l -1715.9,-247.3"
         style="fill:#fe9f73;fill-opacity:1;fill-rule:nonzero;stroke:none"
         id="path16" />
      <path
         d="m 17159.9,9452 c 134,11 -388,396.2 -480.9,131.7 283.7,146.5 431.8,-104.3 480.9,-131.7"
         style="fill:#000000;fill-opacity:1;fill-rule:nonzero;stroke:none"
         id="path18" />
      <path
         d="m 16372.7,9656.6 c 124.1,20.2 -311.7,270.6 -279,96.3 140.7,66.4 245.7,-83.2 279,-96.3"
         style="fill:#000000;fill-opacity:1;fill-rule:nonzero;stroke:none"
         id="path20" />
      <path
         d="m 18134.4,9245.2 c 23.3,490.6 -639.8,518.2 -698.6,76.3 -23.3,-490.7 639.8,-518.2 698.6,-76.3"
         style="fill:#fe9f73;fill-opacity:1;fill-rule:nonzero;stroke:none"
         id="path22" />
      <path
         d="m 17950.8,9412 c 8.1,82.5 -271,33 -278.7,-126.3 229.7,179.6 376.4,-133.7 115.3,-220.6 290.8,29.4 138.3,393.2 -72.7,275 32,107.8 216.5,94.8 236.1,71.9"
         style="fill:#f07162;fill-opacity:1;fill-rule:nonzero;stroke:none"
         id="path24" />
      <path
         d="m 17201.8,8308.2 c 248.4,257.8 323.3,1247.3 323.5,1652.8 -70.5,-64.4 -118.5,-149.8 -137.3,-243.6 -40.9,-204.2 -146.9,-754.8 -200.8,-773.8 -76,-26.8 -1123.1,241.3 -1271,166 -321.6,-1467.1 1162.8,-1069.2 1285.6,-801.4"
         style="fill:#000000;fill-opacity:1;fill-rule:nonzero;stroke:none"
         id="path26" />
      <path
         d="m 16420.8,9606.5 c 0,-0.2 -115.2,-467.6 -115.7,-469.7 3.3,-1 198.4,-92 205.2,-93.6 58.8,9.8 -184.3,100.8 -182.3,104.7 -9.1,10.1 155,523.8 92.8,458.6"
         style="fill:#f07162;fill-opacity:1;fill-rule:nonzero;stroke:none"
         id="path28" />
      <path
         d="m 16640.2,8836.6 c -5.9,1.8 -383.2,52 -383.2,52 60.2,-252.2 308.6,-212.6 383.2,-52"
         style="fill:#fbfdfc;fill-opacity:1;fill-rule:nonzero;stroke:none"
         id="path30" />
      <path
         d="m 17189.8,8293.8 c 461.2,479.3 375.1,857.3 404.5,1090.2 29.3,232.9 257.7,245.4 257.7,245.4 l -133.8,456 -192.8,-140.6 c 0,0 -200,-783.3 -208.9,-828.3 -8.8,-44.9 -587.9,-1302 -126.7,-822.7"
         style="fill:#000000;fill-opacity:1;fill-rule:nonzero;stroke:none"
         id="path32" />
      <path
         d="m 16089.3,10069.7 7.4,4.4 c -4,-11.8 -7.8,-23.7 -10.8,-35.6 364.1,387.9 979.8,329.3 1305.6,197.3 24.9,-123.2 29.9,-362.6 -65.4,-822.5 -145.4,-701.6 258.3,124.6 406.9,441.7 17.4,-64.3 27.4,-135.3 27.6,-215.6 0,0 391.9,623.3 57.6,1036.3 -166.8,206 -804.2,382.9 -1297.7,154.3 l 0.1,0.6 c -555.4,-200.4 -447.1,-743.4 -431.3,-760.9"
         style="fill:#000000;fill-opacity:1;fill-rule:nonzero;stroke:none"
         id="path34" />
      <path
         d="m 17121.6,10310.8 c -341.7,85.5 -994.8,-24.3 -1015.3,-85.2 -20.5,-60.9 -37.7,-347 -37.7,-347 0,0 664.9,39.8 672.7,39 7.8,-0.9 722,307.7 380.3,393.2"
         style="fill:#fe9f73;fill-opacity:1;fill-rule:nonzero;stroke:none"
         id="path36" />
      <path
         d="m 17322.1,10215.1 3.8,-146.4 365.5,421.6 z"
         style="fill:#fe9f73;fill-opacity:1;fill-rule:nonzero;stroke:none"
         id="path38" />
      <path
         d="m 17710.5,10622.9 c 871.6,270.3 -328.3,1354.3 -321.3,206.1 3.4,-0.1 19.2,-303.3 321.3,-206.1"
         style="fill:#000000;fill-opacity:1;fill-rule:nonzero;stroke:none"
         id="path40" />
      <path
         d="m 16947.2,9418.6 c 96.9,3.7 -119.4,124.3 -280.6,12.1 49.1,-8.9 140.4,-18 231.3,-80.7 59.5,40.2 -130.5,84 -146.6,91.6 108.8,33.1 181.1,-12.5 195.9,-23"
         style="fill:#49263e;fill-opacity:1;fill-rule:nonzero;stroke:none"
         id="path42" />
      <path
         d="m 16112.4,9500.8 c 106.2,25.3 196.1,1.1 244.7,-8.6 -103.9,160.1 -355.9,130.5 -265.4,90.5 18.6,4.6 100.9,19.8 190.5,-49.7 -17.8,-1.2 -210.8,26.8 -169.8,-32.2"
         style="fill:#49263e;fill-opacity:1;fill-rule:nonzero;stroke:none"
         id="path44" />
      <path
         d="m 23985.6,13180.8 c 0,0 -893,669.9 -937.8,663.5 -44.7,-6.4 -658.1,-638.9 -658.1,-638.9 l 19.1,-1099.5 1119.1,335.7 457.7,739.2"
         style="fill:#fe9f73;fill-opacity:1;fill-rule:nonzero;stroke:none"
         id="path46" />
      <path
         d="m 13062.3,7224.8 1591.2,959 c -1392,3134.4 -724.5,1016.9 -1835.7,5968.7 L 11505.4,13906 c 0,0 459.2,-4551.5 630.4,-5045.9 75.8,-218.8 926.5,-1635.3 926.5,-1635.3"
         style="fill:#fe9f73;fill-opacity:1;fill-rule:nonzero;stroke:none"
         id="path48" />
      <path
         d="m 11713.9,15148.1 c -126.9,63.6 -155.8,569.3 -378.6,489.5 -249.7,-171.9 124.1,35.9 173.1,-1761.3 209.5,16.4 325.7,40.4 1090.5,171.6 77.6,-10.8 171.9,-1.6 202.1,34.8 l 460.6,710.4 c 46.3,55.9 38.5,138.8 -17.4,185.1 v 0 c -113.9,120.9 -361.1,-183.5 -477.9,-259.8 -15,152.6 -31.3,1067.4 -33.4,1188.1 29.6,113.2 -314,404.4 -275.7,-321.8 5.7,-276.8 -26.8,-491.3 -112.4,-321.5 -33.5,200.8 -33,728.4 -101,783 -374.4,222.4 -160.8,-520.6 -160.9,-807 -111.2,-328.7 -161.7,791.5 -430.2,707.5 -278.2,5.1 178.7,-735.6 61.2,-798.6"
         style="fill:#fe9f73;fill-opacity:1;fill-rule:nonzero;stroke:none"
         id="path50" />
      <path
         d="m 23596,12613.5 -1206.3,591.9 C 20323.2,8426.8 21391.3,10417.9 19431.5,7592.2 l 1383,-1240.5 c 0,0 1101.4,1231.6 1216.9,1432.3 261,453.5 1564.6,4829.5 1564.6,4829.5"
         style="fill:#fe9f73;fill-opacity:1;fill-rule:nonzero;stroke:none"
         id="path52" />
      <path
         d="M 19442.7,1.40234 C 19471.2,1531.1 19404.5,3475.8 19565.7,4901.6 c 211.7,386.6 2005.6,1992.7 2236.2,2209.1 -351.7,601 -1011.6,1438.1 -1758.7,1691 l -1436.7,-1312 c -891,63.6 -2036.3,106.3 -2991.2,251 -267.8,-1.8 -1247.7,1529.8 -1302.4,1634 -457.5,-207.4 -1335.3,-654.1 -2085.1,-1193.2 130.1,-239.9 1071.5,-1963.6 1161.7,-2361 34.8,-299.8 -329.6,-3722.9 -539.6,-5819.09766 h 6592.8"
         style="fill:#258d8c;fill-opacity:1;fill-rule:nonzero;stroke:none"
         id="path54" />
      <path
         d="m 15771.1,7714.6 c 739.3,-748.3 1450.6,-789.6 2401.5,-198.2 l -2401.5,198.2"
         style="fill:#fe9f73;fill-opacity:1;fill-rule:nonzero;stroke:none"
         id="path56" />
      <path
         d="m 12820,1.40234 h 52.8 C 13042.2,1383 13388.3,6217 13757.6,6855.9 13431,7178.4 12949.7,1045.4 12820,1.40234"
         style="fill:#000000;fill-opacity:1;fill-rule:nonzero;stroke:none"
         id="path58" />
      <path
         d="m 19432.7,1542.7 c 83.3,508.4 42.7,1587.7 102.9,2358.1 4.4,530.4 100.4,1169.3 -7.8,1009.7 22.1,-26.8 -160.9,-2441.7 -95.1,-3367.8"
         style="fill:#000000;fill-opacity:1;fill-rule:nonzero;stroke:none"
         id="path60" />
      <path
         d="m 18616.1,7462.8 c 10,9 1425.1,1301.4 1434.7,1310.2 185,-50.1 929.8,-289.1 1748.6,-1688.4 -75.8,416.1 -643.1,985.7 -848,1200.8 -508.3,469.2 -866.9,533.7 -916.3,544.5 L 18597.2,7516.7 c -62.2,-18.6 -980.9,115.2 -881.3,11.1 16.6,-31.3 878.7,-52.3 900.2,-65"
         style="fill:#000000;fill-opacity:1;fill-rule:nonzero;stroke:none"
         id="path62" />
      <path
         d="m 23044.1,13156.1 c 575.9,-88.9 390.1,278.8 317,283.3 -542.8,103.2 -481.4,218.2 -677.6,-231.5 -34.1,-96.7 214.3,-23.4 360.6,-51.8"
         style="fill:#fe9f73;fill-opacity:1;fill-rule:nonzero;stroke:none"
         id="path64" />
      <path
         d="m 22781.5,13148.1 c 27.9,-1.7 547.2,-37.3 559.8,-29.7 149.6,33.6 166.5,314.6 25.5,348.5 -19.9,-7 -463.5,124 -476.9,95.7 -99.6,-145.8 784.7,-29.7 479.2,-376.2 -35.7,-53.5 -691.6,82.7 -587.6,-38.3"
         style="fill:#f07162;fill-opacity:1;fill-rule:nonzero;stroke:none"
         id="path66" />
      <path
         d="m 19255.2,2654 c 10.3,200.8 154.6,1071.9 123.6,1105 l -732.4,112.3 -23.5,26.8 c -74.7,6.8 -223.8,30.4 -399.6,48.1 -24,-147 -46.2,-259.9 -64.4,-259.5 -5.2,-24.6 9.6,-18 -10.8,-53.9 -52.1,-1134.7 -211.8,-702.4 1107.1,-978.8"
         style="fill:#fe9f73;fill-opacity:1;fill-rule:nonzero;stroke:none"
         id="path68" />
      <path
         d="M 24495.4,4085.9 23244.8,5203.3 22265.3,3925 19325,3755.9 19234.7,2656.1 c 0,0 3556.2,-369.4 3905.5,-134.1 349.4,235.4 1355.2,1563.9 1355.2,1563.9"
         style="fill:#fe9f73;fill-opacity:1;fill-rule:nonzero;stroke:none"
         id="path70" />
      <path
         d="m 22585.3,3296.3 c 62.5,48.9 -39.7,147.3 -134.7,365.6 -93.8,173.6 -164.3,408.2 -226.4,278.6 26.8,-51.5 295.7,-699.4 361.1,-644.2"
         style="fill:#f07162;fill-opacity:1;fill-rule:nonzero;stroke:none"
         id="path72" />
      <path
         d="m 18042.1,3427.3 c 43.2,-1.5 489,-120 515.3,-86.7 315.9,316.3 -191.2,347.2 -417.6,390.8 -155.6,-130.8 673,-16.3 439.1,-321.5 -13.4,-94.2 -629.3,152.4 -536.8,17.4"
         style="fill:#f07162;fill-opacity:1;fill-rule:nonzero;stroke:none"
         id="path74" />
      <path
         d="m 29551.8,3899.9 c -1436,2795.8 -1074.2,2973 -2860.1,3347.5 -1293.5,307.3 -1144.4,346.8 -2328.1,356.2 -49,-2.7 -93.5,-1.9 -134.4,-1.1 -527.4,10.5 -450.7,21 -1713.7,-7601.09766 h 5161.4 C 27674.4,1098.6 27667.6,3042.3 27653.2,3232.2 c 2.3,-5.6 151.9,-359.9 161.3,-382.2 0,0 1383.6,496.8 1737.3,1049.9"
         style="fill:#febac7;fill-opacity:1;fill-rule:nonzero;stroke:none"
         id="path76" />
      <path
         d="m 30088.8,2933.6 c -55.1,53.3 -173.4,-129.2 -328.4,-267.5 -129,-142.4 -310.9,-254.2 -167,-278.5 16.3,25.3 575.7,503 495.4,546"
         style="fill:#f07162;fill-opacity:1;fill-rule:nonzero;stroke:none"
         id="path78" />
      <path
         d="m 27521.9,7045.5 c 841.9,-513.2 744,-678.5 915.7,-954.4 304.9,-615.3 1085.7,-2190.9 1086.1,-2191.6 -15.2,-29.6 -79.4,-134.7 -288.6,-294.3 -526.1,-437.9 -1635.9,-747.3 -1414.1,-779.7 1596.7,625.5 1738.8,1029.7 1758.4,1076.3 -1,3.6 -1027.4,2072 -1194,2409.3 -12.7,25.5 -19.7,39.7 -21.7,43.7 27.9,-31.2 -385.9,643.5 -841.8,690.7"
         style="fill:#000000;fill-opacity:1;fill-rule:nonzero;stroke:none"
         id="path80" />
      <path
         d="M 18382.9,6058.5 17600.7,5894 c 173.6,-2158.4 857.3,-1301.5 988.2,-3385.2 -721.7,-168.5 -640,-254.7 149.4,-92.7 664.5,138 931.3,295 103.7,145.7 -88.6,52.1 -322.7,1140 -291.2,1374.1 174,611 136,1260.6 -167.9,2122.6"
         style="fill:#e3f2ff;fill-opacity:1;fill-rule:nonzero;stroke:none"
         id="path82" />
      <path
         d="m 18472.8,4086.6 c 153.7,394.6 72.8,1002.6 15,1300.7 4,53.6 -643.8,55.4 -732.6,11.6 -43.9,-68.2 225.6,-1034.8 557.5,-1346 l 160.1,33.7"
         style="fill:#ffd03b;fill-opacity:1;fill-rule:nonzero;stroke:none"
         id="path84" />
      <path
         d="m 18374.3,5358.5 c 464,60.6 -612.9,108.5 -630.9,28.8 -3.8,-34.8 413.4,-54.6 630.9,-28.8"
         style="fill:#ffda73;fill-opacity:1;fill-rule:nonzero;stroke:none"
         id="path86" />
      <path
         d="m 18394.9,5065.5 c -22.3,93.5 -166,71.3 -152.5,-32.1 22.3,-93.6 166,-71.4 152.5,32.1"
         style="fill:#ffda73;fill-opacity:1;fill-rule:nonzero;stroke:none"
         id="path88" />
      <path
         d="m 18328.6,4376.4 c -22.3,93.6 -166,71.4 -152.5,-32.1 22.3,-93.5 166,-71.4 152.5,32.1"
         style="fill:#ffda73;fill-opacity:1;fill-rule:nonzero;stroke:none"
         id="path90" />
      <path
         d="m 18195.8,4779.5 c -22.2,93.5 -166,71.4 -152.4,-32.1 22.2,-93.5 166,-71.4 152.4,32.1"
         style="fill:#ffda73;fill-opacity:1;fill-rule:nonzero;stroke:none"
         id="path92" />
      <path
         d="m 18391.1,4705 c -14,-4 -32,-17.3 -33,-50.6 33.4,-89.4 149.4,32.3 33,50.6"
         style="fill:#ffda73;fill-opacity:1;fill-rule:nonzero;stroke:none"
         id="path94" />
      <path
         d="m 17941.6,5231.4 c -14.1,-4 -32.1,-17.3 -33,-50.6 33.3,-89.4 149.4,32.3 33,50.6"
         style="fill:#ffda73;fill-opacity:1;fill-rule:nonzero;stroke:none"
         id="path96" />
      <path
         d="m 27821,2825.5 c 50.8,9.3 -43.5,162.3 -90.9,294.6 -52.7,113 -42.3,131 -76.3,164.6 -100.2,57.7 140.5,-492.6 167.2,-459.2"
         style="fill:#000000;fill-opacity:1;fill-rule:nonzero;stroke:none"
         id="path98" />
      <path
         d="m 26920.2,6691.7 c 77,12.6 -165.2,225.7 -181.7,257.8 -144.8,61.7 152.5,-268.7 181.7,-257.8"
         style="fill:#000000;fill-opacity:1;fill-rule:nonzero;stroke:none"
         id="path100" />
      <path
         d="m 27064.5,6657.2 c 74.1,10.6 -150.9,225.9 -176.6,271.2 -151.1,84.1 141.8,-281 176.6,-271.2"
         style="fill:#000000;fill-opacity:1;fill-rule:nonzero;stroke:none"
         id="path102" />
      <path
         d="m 25156.8,6503.6 c 94.5,35.4 -280.8,136.2 -293.5,231.2 -174.1,226 -162.2,570.9 -160.9,613.9 -94.9,217.4 -116.8,-778 454.4,-845.1"
         style="fill:#000000;fill-opacity:1;fill-rule:nonzero;stroke:none"
         id="path104" />
      <path
         d="m 26482.8,9739.1 -1479.6,-170.3 c -82.8,-1147.9 -290.6,-1615.1 172.9,-1746.3 -19.9,-137.3 -161.6,-585.9 -117.3,-721.3 229.7,-666.1 1325.3,-358.2 1292.7,134.2 21,263.5 -2.5,774.6 -1.4,764.9 53.7,261 113.3,1472.3 132.7,1738.8"
         style="fill:#fe9f73;fill-opacity:1;fill-rule:nonzero;stroke:none"
         id="path106" />
      <path
         d="m 26029.8,8087.6 c -315.7,-427.9 -853.7,-265.1 -853.7,-265.1 l -87,-393.5 c 852.1,-16.4 940.7,658.6 940.7,658.6"
         style="fill:#f07162;fill-opacity:1;fill-rule:nonzero;stroke:none"
         id="path108" />
      <path
         d="m 25498.1,8923.3 c 242.7,129.4 378.1,-86.7 418.7,-108.3 115.8,11.4 -341.3,336.7 -418.7,108.3"
         style="fill:#000000;fill-opacity:1;fill-rule:nonzero;stroke:none"
         id="path110" />
      <path
         d="m 26071.4,8833.5 72.3,61.8 371.1,40.9 c -282.8,1010.7 -303.4,659.2 -443.4,-102.7"
         style="fill:#e23e3d;fill-opacity:1;fill-rule:nonzero;stroke:none"
         id="path112" />
      <path
         d="m 25231.5,8982.7 c 107.3,19.6 -274.5,229 -243.2,80.1 116.6,58.9 217.1,-69.8 243.2,-80.1"
         style="fill:#000000;fill-opacity:1;fill-rule:nonzero;stroke:none"
         id="path114" />
      <path
         d="m 25670.5,8769.8 c 5.7,52.7 -84.2,82.9 -101.2,9.7 -5.7,-52.7 84.2,-82.9 101.2,-9.7"
         style="fill:#000000;fill-opacity:1;fill-rule:nonzero;stroke:none"
         id="path116" />
      <path
         d="m 25137.7,8871.9 c 5.7,52.7 -84.2,82.9 -101.2,9.7 -5.7,-52.7 84.2,-82.9 101.2,-9.7"
         style="fill:#000000;fill-opacity:1;fill-rule:nonzero;stroke:none"
         id="path118" />
      <path
         d="m 26595.7,8698.8 c 15.2,422.2 -561.2,439.7 -606.9,58.2 -15.1,-422.2 561.2,-439.7 606.9,-58.2"
         style="fill:#fe9f73;fill-opacity:1;fill-rule:nonzero;stroke:none"
         id="path120" />
      <path
         d="m 26478,8859.6 c -63.9,67.8 -231.4,12.4 -251.5,-116.3 196.1,155.5 328.5,-109.4 102.7,-188.9 248.3,25 118,339.9 -66.4,236.3 45.5,114.3 186.5,64.1 215.2,68.9"
         style="fill:#f07162;fill-opacity:1;fill-rule:nonzero;stroke:none"
         id="path122" />
      <path
         d="m 25273.8,8940.1 c 0.2,0.9 -94.2,-404.2 -94.7,-406.3 3.2,-0.9 171.7,-76.5 179.1,-78.4 51,9.1 -161.2,85 -159.4,88.3 -8.5,7.4 128,451 75,396.4"
         style="fill:#f07162;fill-opacity:1;fill-rule:nonzero;stroke:none"
         id="path124" />
      <path
         d="m 25473.4,8278.7 c -5.1,1.5 -333,40.7 -333,40.7 54.8,-218.2 272.7,-177.4 333,-40.7"
         style="fill:#fbfdfc;fill-opacity:1;fill-rule:nonzero;stroke:none"
         id="path126" />
      <path
         d="m 25962.5,9466.4 c 0,0 343.9,-137.1 552.3,-530.2 29.8,104.5 175.7,730.1 -74.1,898.2 -307.8,272.9 -1528.3,892.8 -1247.6,301.2 -777.7,245.6 -867.9,-874.5 769.4,-669.2"
         style="fill:#e23e3d;fill-opacity:1;fill-rule:nonzero;stroke:none"
         id="path128" />
      <path
         d="m 27140.7,4177.2 c -58.3,-14.5 -32.2,-441.7 -80.6,-1033.7 -22.1,-825.2 -150.1,-1910.7 -100.7,-2286.602 62,49.004 90.4,1580.102 148.7,2304.302 19.2,522.2 81.9,1048 32.6,1016"
         style="fill:#000000;fill-opacity:1;fill-rule:nonzero;stroke:none"
         id="path130" />
      <path
         d="m 28141.8,8148.8 c -347.7,-286.9 -699.3,-943.5 -438.4,-1683.8 260.9,-740.4 3259.2,-64.2 3259.2,-64.2 0,0 744.9,21.7 873.4,799.9 128.4,778.1 -672.4,1293.7 -906.6,1337.1 -234.2,43.5 -178.4,348.4 -359.7,741.3 -181.3,392.8 -566.6,279.5 -789.5,324.8 -222.9,45.3 -376.9,734.2 -900,273.4 -523.2,-460.8 -262.3,-931.6 -262.3,-931.6 182.7,-451.4 -262.4,-620.5 -476.1,-796.9"
         style="fill:#49263e;fill-opacity:1;fill-rule:nonzero;stroke:none"
         id="path132" />
      <path
         d="m 30187.1,6538.9 v 2168.7 l -1247.6,-88.7 c -74.1,-708.6 -200.1,-1426.4 314.8,-1419 v -661 h 932.8"
         style="fill:#fe9f73;fill-opacity:1;fill-rule:nonzero;stroke:none"
         id="path134" />
      <path
         d="m 29125.3,7915.4 c 1.3,-6.8 43,-108.4 119,-125.9 10.9,19.2 -104.3,81.5 -97.4,117.9 253.6,113 95.8,430.1 82.9,356.6 80.7,-116.1 57.3,-276.3 -104.5,-348.6"
         style="fill:#f07162;fill-opacity:1;fill-rule:nonzero;stroke:none"
         id="path136" />
      <path
         d="m 29254.3,6934 c 351,106.3 725.2,466.1 725.2,466.1 -275.7,-173.8 -725.2,-200.2 -725.2,-200.2 V 6934"
         style="fill:#f07162;fill-opacity:1;fill-rule:nonzero;stroke:none"
         id="path138" />
      <path
         d="m 29366.9,8300.8 c 215.8,141 358.1,-47.7 398.1,-63.3 113.2,23.4 -355.8,285.8 -398.1,63.3"
         style="fill:#000000;fill-opacity:1;fill-rule:nonzero;stroke:none"
         id="path140" />
      <path
         d="m 29174.3,8274.6 c 103.8,30.3 -282.5,191.6 -232.8,52.7 105.1,64.5 206.7,-45.8 232.8,-52.7"
         style="fill:#000000;fill-opacity:1;fill-rule:nonzero;stroke:none"
         id="path142" />
      <path
         d="m 29074.5,8142.9 c 0.6,49.3 -85.5,69.3 -94.7,-0.1 -0.7,-49.3 85.4,-69.4 94.7,0.1"
         style="fill:#49263e;fill-opacity:1;fill-rule:nonzero;stroke:none"
         id="path144" />
      <path
         d="m 29493.7,8142.9 c 0.6,49.3 -85.5,69.3 -94.7,-0.1 -0.6,-49.3 85.5,-69.4 94.7,0.1"
         style="fill:#49263e;fill-opacity:1;fill-rule:nonzero;stroke:none"
         id="path146" />
      <path
         d="m 30532.1,7940.2 c -23.4,369.1 -523.3,332.3 -530.9,0 23.4,-369 523.3,-332.2 530.9,0"
         style="fill:#fe9f73;fill-opacity:1;fill-rule:nonzero;stroke:none"
         id="path148" />
      <path
         d="m 30390.9,8054.1 c -58,56.9 -206.7,-8.3 -211.4,-124.9 158.9,153 291.9,-57.3 106.8,-152.7 210.8,39.6 80.4,303.9 -74.9,203.2 30.7,99.1 153.2,65.6 179.5,74.4"
         style="fill:#f07162;fill-opacity:1;fill-rule:nonzero;stroke:none"
         id="path150" />
      <path
         d="m 28939.5,8618.9 c 434.6,0.6 435.3,-107.1 1247.6,88.7 -134.6,563.4 -1126.1,441.9 -1247.6,-88.7"
         style="fill:#fe9f73;fill-opacity:1;fill-rule:nonzero;stroke:none"
         id="path152" />
      <path
         d="m 30332.6,8965 c -768.5,339.7 -792.3,233.3 -1305.5,280.8 l -87.6,-280.8 c 0,0 340,-332.9 781.2,-257.4 320.9,-886 831.6,-543.9 611.9,257.4"
         style="fill:#49263e;fill-opacity:1;fill-rule:nonzero;stroke:none"
         id="path154" />
      <path
         d="m 29373.3,8007.5 c -0.8,-5.5 0.1,-7.2 9.1,-15.7 12.4,-2.6 10.3,32.4 -9.1,15.7"
         style="fill:#ea5942;fill-opacity:1;fill-rule:nonzero;stroke:none"
         id="path156" />
      <path
         d="m 29437.3,7969.5 c -0.8,-5.4 0,-7.1 9,-15.6 12.5,-2.7 10.4,32.3 -9,15.6"
         style="fill:#ea5942;fill-opacity:1;fill-rule:nonzero;stroke:none"
         id="path158" />
      <path
         d="m 29553.4,8045.4 c -0.8,-5.5 0.1,-7.2 9.1,-15.6 12.4,-2.7 10.3,32.3 -9.1,15.6"
         style="fill:#ea5942;fill-opacity:1;fill-rule:nonzero;stroke:none"
         id="path160" />
      <path
         d="m 29652.9,7969.5 c -0.7,-5.4 0.1,-7.1 9.1,-15.6 12.4,-2.7 10.3,32.3 -9.1,15.6"
         style="fill:#ea5942;fill-opacity:1;fill-rule:nonzero;stroke:none"
         id="path162" />
      <path
         d="m 29757.2,8071.4 c -0.8,-5.4 0,-7.1 9.1,-15.6 12.4,-2.7 10.3,32.3 -9.1,15.6"
         style="fill:#ea5942;fill-opacity:1;fill-rule:nonzero;stroke:none"
         id="path164" />
      <path
         d="m 29795.1,7919.8 c -0.8,-5.5 0.1,-7.2 9.1,-15.6 12.4,-2.7 10.3,32.3 -9.1,15.6"
         style="fill:#ea5942;fill-opacity:1;fill-rule:nonzero;stroke:none"
         id="path166" />
      <path
         d="m 29162.4,8069.1 c -0.7,-5.5 0.1,-7.2 9.1,-15.6 12.4,-2.7 10.3,32.3 -9.1,15.6"
         style="fill:#ea5942;fill-opacity:1;fill-rule:nonzero;stroke:none"
         id="path168" />
      <path
         d="m 29084.2,7983.8 c -0.8,-5.5 0.1,-7.2 9.1,-15.7 12.4,-2.6 10.3,32.4 -9.1,15.7"
         style="fill:#ea5942;fill-opacity:1;fill-rule:nonzero;stroke:none"
         id="path170" />
      <path
         d="m 28989.4,8021.7 c -0.7,-5.5 0.1,-7.2 9.1,-15.6 12.4,-2.7 10.3,32.3 -9.1,15.6"
         style="fill:#ea5942;fill-opacity:1;fill-rule:nonzero;stroke:none"
         id="path172" />
      <path
         d="m 28982.3,7872.4 c -0.7,-5.4 0.1,-7.2 9.1,-15.6 12.4,-2.7 10.3,32.3 -9.1,15.6"
         style="fill:#ea5942;fill-opacity:1;fill-rule:nonzero;stroke:none"
         id="path174" />
      <path
         d="m 28911.2,7960.1 c -0.7,-5.5 0.1,-7.2 9.1,-15.6 12.4,-2.7 10.3,32.3 -9.1,15.6"
         style="fill:#ea5942;fill-opacity:1;fill-rule:nonzero;stroke:none"
         id="path176" />
      <path
         d="m 28927.8,8090.4 c -0.7,-5.4 0.1,-7.2 9.1,-15.6 12.4,-2.7 10.3,32.3 -9.1,15.6"
         style="fill:#ea5942;fill-opacity:1;fill-rule:nonzero;stroke:none"
         id="path178" />
      <path
         d="m 29513.1,7903.2 c -0.7,-5.4 0.1,-7.2 9.1,-15.6 12.4,-2.7 10.3,32.3 -9.1,15.6"
         style="fill:#ea5942;fill-opacity:1;fill-rule:nonzero;stroke:none"
         id="path180" />
      <path
         d="m 28670.9,3234.1 c 8.7,463.6 -473.5,1378.8 -473.5,1378.8 L 27150.2,4320 26914.5,15.1992 c 0,0 1499.2,1050.2008 1571.9,1185.8008 72.6,135.6 175.8,1569.6 184.5,2033.1"
         style="fill:#fe9f73;fill-opacity:1;fill-rule:nonzero;stroke:none"
         id="path182" />
      <path
         d="M 32333.8,1.40234 C 31949.9,934.699 31608.3,1599.3 31189.5,2385 l 55.7,149.1 c 8.9,23.6 358.9,959.9 369.9,988.5 l 113,-248.4 c 745.5,236.6 1356.6,658.5 1726.6,987.9 -457.6,639.8 -969.1,1349.9 -1571.9,1946.8 -348.9,163 -360.7,247.4 -1148.5,370 -8.8,-5.8 -38.9,-25 -39.4,-25.5 -568.6,46.9 -1428.4,50.9 -1943,37.9 -310.7,-36.2 -1134.8,-144.3 -1205.4,-305.5 -101,-141.7 -437.3,-969.3 -619.2,-1945.4 109.7,-63.6 218.8,-225.5 517.9,-305.1 14.6,-20.6 47.6,-67.7 61.1,-86.8 190.7,-2836 162.8,-478.9 -790.1,-3947.09766 h 5617.6"
         style="fill:#ef3a4c;fill-opacity:1;fill-rule:nonzero;stroke:none"
         id="path184" />
      <path
         d="m 31570.2,5960.6 c -2.5,183.2 -533.5,388.4 -408,288.3 30.5,-1.4 271.7,-121.1 408,-288.3"
         style="fill:#21111d;fill-opacity:1;fill-rule:nonzero;stroke:none"
         id="path186" />
      <path
         d="m 31540.8,5816.1 c -34.6,213.6 -534.5,381.3 -408,288.3 30.5,-1.5 271.7,-121.1 408,-288.3"
         style="fill:#21111d;fill-opacity:1;fill-rule:nonzero;stroke:none"
         id="path188" />
      <path
         d="m 31712.3,3239.7 c 60,18.7 133.3,43.3 174.6,57.8 -7.8,21.6 -14.7,40.6 -19.2,53 -50.4,-17.7 -95,-32.4 -123.7,-41.7 l -127.7,297.4 c -122.6,-327.9 -336.1,-898.3 -458,-1224.5 268.6,-404.1 865.1,-1636.2 1143.4,-2380.29766 h 60.6 C 32063.4,787.5 31534.8,1892.2 31220.8,2388.3 c 109.7,293.5 287.8,769.1 399,1066.8 2.4,-5.7 91.5,-212.5 92.5,-215.4"
         style="fill:#000000;fill-opacity:1;fill-rule:nonzero;stroke:none"
         id="path190" />
      <path
         d="m 33271.3,4049.6 c 107.3,84.5 212.2,183.6 226,200.5 -67.4,94.8 -924.2,1332.6 -1486.4,1876.6 -271.7,315.9 -990.3,493.6 -1495.8,492.9 -62.2,-32.6 -4.6,-65.3 14.5,-56.6 1236,-61 1474.5,-327 2894.7,-2306.6 -26.7,-25.7 -85.5,-80.4 -175.6,-152.8 7.5,-17.8 15,-35.8 22.6,-54"
         style="fill:#000000;fill-opacity:1;fill-rule:nonzero;stroke:none"
         id="path192" />
      <path
         d="m 31728.1,3246 c 80.7,-14.6 -91.8,319.5 -195,623.4 -151.5,343.6 -235.9,765.6 -303.6,666.8 -17.3,-44.2 182.8,-473.2 321.9,-874.5 108.8,-255.2 119.6,-387 176.7,-415.7"
         style="fill:#000000;fill-opacity:1;fill-rule:nonzero;stroke:none"
         id="path194" />
      <path
         d="M 26729.6,1.40234 C 26861.9,697.902 27571,2340.4 27634.4,2334.9 c -0.1,0.9 -73.9,998.9 -106.5,1440.3 -21.8,182.8 15.2,160.2 -59.2,275.3 v 0.2 c -142.3,204.8 -245.2,664 -92.3,989.9 96.3,251.6 229.4,346.5 247.9,402.8 -13.1,171.4 -712.9,-666 -166.2,-1487.7 7.9,-106.6 118.6,-1606.1 118.7,-1606.5 -164.7,-261.7 -609.4,-1173.9 -905.4,-2347.79766 h 58.2"
         style="fill:#000000;fill-opacity:1;fill-rule:nonzero;stroke:none"
         id="path196" />
      <path
         d="m 27621,6367 c -348.1,-287.3 -583.2,-1464.7 -724.3,-2017.1 17.1,-23.9 226.5,-294.2 548.5,-342.8 111,54.1 -154.4,83 -209.3,129.1 -150.5,79.9 -245.2,189.4 -277.6,226.5 603.1,2530.7 611.5,1863 1730.3,2218.9 -1.9,17.8 -37,27.4 -34.4,24.1 C 28648,6608.3 27771,6482 27621,6367"
         style="fill:#000000;fill-opacity:1;fill-rule:nonzero;stroke:none"
         id="path198" />
      <path
         d="m 29477.9,7736.8 c 0,0 -312.7,-63.1 -317.5,-64.9 66.8,-125.4 281.7,-150.6 317.5,64.9"
         style="fill:#fbfdfc;fill-opacity:1;fill-rule:nonzero;stroke:none"
         id="path200" />
      <path
         d="m 33248.7,4103.6 c -241.6,-194.3 -707.9,-516.8 -1381,-753.1 l 19.2,-53 c 624.2,214.9 1146.8,557.4 1384.4,752.1 -7.6,18.2 -15.1,36.2 -22.6,54"
         style="fill:#000000;fill-opacity:1;fill-rule:nonzero;stroke:none"
         id="path202" />
      <path
         d="m 29785.9,1055.5 c 740.9,101.9 2875.1,565.5 3771.9,1836.7 121.6,171.4 -98.3,709.4 -286.5,1157.4 -229.8,-190 -770.6,-542.7 -1384.4,-752.1 l 30.3,-83.7 C 31526.5,2982 30113.2,2144.2 29694.1,1895.7 l 91.8,-840.2"
         style="fill:#fe9f73;fill-opacity:1;fill-rule:nonzero;stroke:none"
         id="path204" />
      <path
         d="m 32581.3,3035.7 c 29.9,76.2 -172.5,81.9 -353.1,139.6 -191.3,38.9 -383,139.5 -331.5,7.8 39.5,-14.8 674.6,-213.5 684.6,-147.4"
         style="fill:#f07162;fill-opacity:1;fill-rule:nonzero;stroke:none"
         id="path206" />
      <path
         d="m 24224.5,6598.3 -217.7,989.2 c 0,0 -243,-54 -337.9,-158.8 -425.3,-469.8 -1333,-2724.4 -1496.1,-3158.6 0,0 562.6,-753.1 1190.4,-794.9 627.8,-41.9 861.3,3123.1 861.3,3123.1"
         style="fill:#febac7;fill-opacity:1;fill-rule:nonzero;stroke:none"
         id="path208" />
      <path
         d="m 6685.72,1820.5 v 0 c -0.98,-1.1 -0.88,-1 0,0"
         style="fill:#4cb7d8;fill-opacity:1;fill-rule:nonzero;stroke:none"
         id="path210" />
      <path
         d="M 2222.9,1.40234 H 6926.22 C 6894.4,583.402 6792.63,1243.8 6685.72,1820.5 c -0.88,-1 -0.98,-1.1 0,0 9.97,11.3 132.11,150.5 202.71,231 C 4182.88,3409.2 2470.48,3720.9 2222.9,1.40234"
         style="fill:#4cb7d8;fill-opacity:1;fill-rule:nonzero;stroke:none"
         id="path212" />
      <path
         d="m 10393.1,1889.2 c 81.3,676.9 -311.3,1893.6 -311.3,1893.6 L 7292.43,3379.5 c 0,0 -1055.79,2655.3 -1137.11,2718.1 -81.31,62.7 4.98,-3991.6 4.98,-3991.6 928.89,-1122.699 937.92,-1041.3 4232.8,-216.8"
         style="fill:#4cb7d8;fill-opacity:1;fill-rule:nonzero;stroke:none"
         id="path214" />
      <path
         d="M 6365.51,5298.9 C 6199.87,6185.6 5931.44,7026.8 4401.38,7333.4 4245.36,7348.3 2249.97,7350.2 1933.4,7117.3 1341.97,6660.2 1104.66,5087.7 1274.46,3746.1 1409.69,2255.6 1734.96,385.402 3616.2,277.402 3688.62,297.5 3665.6,244.699 3737.29,1.40234 h 904.42 C 4936.3,295.301 5351.76,669.699 5754.15,968.699 h 0.19 C 6207.43,1310.2 6996.85,1915.1 7357.15,2199.9 c -18.28,80.4 -539.64,1062.2 -525.82,1066 -43.6,190.4 -308.78,1347.7 -465.82,2033"
         style="fill:#4cb7d8;fill-opacity:1;fill-rule:nonzero;stroke:none"
         id="path216" />
      <path
         d="m 3159.96,7403.9 c 0,0 -1004.84,35.2 -1484.53,-236.6 C 959.605,6761.8 1214.6,4439.2 1214.6,4439.2 c 913.87,509.6 458.55,238.1 1945.36,2964.7"
         style="fill:#4cb7d8;fill-opacity:1;fill-rule:nonzero;stroke:none"
         id="path218" />
      <path
         d="m 2902.31,461.199 c 229.28,-111.5 941.08,-174.797 758.28,-54.898 -0.69,0.301 -8.48,-1.699 -28.16,-3.301 -2455.25,62.102 -2243.72,2889.7 -2423.66,5100.5 -80.1,-856.5 67.21,-2012.6 201.48,-2875 C 1587.49,1549.6 1958.49,847.801 2902.31,461.199"
         style="fill:#21111d;fill-opacity:1;fill-rule:nonzero;stroke:none"
         id="path220" />
      <path
         d="m 3138.88,6544.2 c -406.11,251.8 -448.18,553.6 -479.16,592.9 -138.63,75.2 170.55,-759.4 1071.32,-825.9 350.94,-1.4 -555.05,134.5 -592.16,233"
         style="fill:#21111d;fill-opacity:1;fill-rule:nonzero;stroke:none"
         id="path222" />
      <path
         d="m 3026.21,5787.9 c 67.09,-950 486.75,-2465.9 583.98,-3006 l 54.07,15.1 c -199.28,743 -433.3,2120.5 -638.05,2990.9"
         style="fill:#21111d;fill-opacity:1;fill-rule:nonzero;stroke:none"
         id="path224" />
      <path
         d="m 4045.32,9588.6 -1428.41,139.7 c 80.09,-744.7 217.15,-1539.1 262.98,-2385.7 -1.28,-468.3 1081.79,-698.6 1240.68,-34.7 26.8,121.7 -128.54,545 -153.5,665.4 435.38,148.8 208.09,601.1 78.25,1615.3"
         style="fill:#fe9f73;fill-opacity:1;fill-rule:nonzero;stroke:none"
         id="path226" />
      <path
         d="m 3599.97,9004.7 c -86.31,213.5 -504.08,-121.6 -393.15,-126.1 37.54,22.8 154.73,236.3 393.15,126.1"
         style="fill:#49263e;fill-opacity:1;fill-rule:nonzero;stroke:none"
         id="path228" />
      <path
         d="m 4088.2,9172.8 c -41.48,129.6 -324.52,-91.5 -237.44,-96.8 35.67,21.9 92.6,122.8 237.44,96.8"
         style="fill:#49263e;fill-opacity:1;fill-rule:nonzero;stroke:none"
         id="path230" />
      <path
         d="m 3539.92,8863.8 c -20.17,68.9 -104.23,35.2 -95.88,-14.7 20.17,-68.9 104.23,-35.2 95.88,14.7"
         style="fill:#000000;fill-opacity:1;fill-rule:nonzero;stroke:none"
         id="path232" />
      <path
         d="m 4042.1,8990.3 c -20.17,68.8 -104.24,35.1 -95.88,-14.8 20.17,-68.8 104.23,-35.1 95.88,14.8"
         style="fill:#000000;fill-opacity:1;fill-rule:nonzero;stroke:none"
         id="path234" />
      <path
         d="m 4131.87,10428.9 c -408.6,153.6 -575.01,-147.1 -756.61,-95.1 -287.57,84.8 -349.91,40.5 -566.98,-176.8 -294.15,-303 -227,-331.5 -136.97,-484.8 l 325.88,-337.6 c 1305.51,-280.1 1789.31,817.9 1134.68,1094.3"
         style="fill:#49263e;fill-opacity:1;fill-rule:nonzero;stroke:none"
         id="path236" />
      <path
         d="m 2384.18,8768.5 c 21.63,-148.5 74.71,-807.9 548.48,-684.7 -62.31,1471.2 22.3,1058.3 -293.09,1642.3 l 23.29,108.4 c -628.33,-127.4 -417.29,-773.1 -278.68,-1066"
         style="fill:#49263e;fill-opacity:1;fill-rule:nonzero;stroke:none"
         id="path238" />
      <path
         d="m 3141.42,8819.5 c -64.05,359.9 -612.22,313.9 -575.26,-88.7 64.05,-360 612.22,-314 575.26,88.7"
         style="fill:#fe9f73;fill-opacity:1;fill-rule:nonzero;stroke:none"
         id="path240" />
      <path
         d="m 2947.23,8781.3 c -12.67,132.1 -246.29,159 -235.14,93.5 18.4,24.9 177.1,27.6 197.92,-50.4 -181.57,88.8 -287.56,-219.2 -50.33,-228.8 -219.42,64.6 -107.1,322.9 87.55,185.7"
         style="fill:#f07162;fill-opacity:1;fill-rule:nonzero;stroke:none"
         id="path242" />
      <path
         d="m 4071.45,7603.1 -104.38,370.2 c 0,0 -503.82,-184.5 -828.17,206 0,0 121.43,-638.5 932.55,-576.2"
         style="fill:#f07162;fill-opacity:1;fill-rule:nonzero;stroke:none"
         id="path244" />
      <path
         d="m 4248,8643.1 c -125.03,56.5 -981.78,-202.8 -1045.63,-183.6 -45.21,13.7 -152.65,462.5 -193.76,628.8 -18.91,76.6 -61.72,144.9 -122.31,195.3 14.17,-326.1 110.53,-1131.1 318.75,-1338 118.32,-232.4 1362.29,-492.9 1042.95,697.5"
         style="fill:#49263e;fill-opacity:1;fill-rule:nonzero;stroke:none"
         id="path246" />
      <path
         d="m 3758.86,8566.5 c 6.92,2.2 163.38,83.5 166.4,84.6 -0.64,2.1 -112.74,382.8 -112.51,382 -53.17,47.4 101.26,-367 93.2,-373.7 -2.32,-6.2 -194.76,-85.2 -147.09,-92.9"
         style="fill:#f07162;fill-opacity:1;fill-rule:nonzero;stroke:none"
         id="path248" />
      <path
         d="m 3973.9,8448.8 c 0,0 -310.34,-55.3 -315.11,-57 63.19,-125.3 274.89,-155 315.11,57"
         style="fill:#fbfdfc;fill-opacity:1;fill-rule:nonzero;stroke:none"
         id="path250" />
      <path
         d="m 9451.39,5247.7 c 0,0 26.55,-158.8 31.21,-213.9 l 162.43,-10.5 c 0,0 102.27,2244.2 -176.7,2712 -278.97,467.8 -960.67,478.1 -960.67,478.1 l 249.69,-3133.1 631.52,-40.5 62.52,207.9"
         style="fill:#fec786;fill-opacity:1;fill-rule:nonzero;stroke:none"
         id="path252" />
      <path
         d="m 9146.85,7467.8 c 0,0 -1023.22,614.2 -1024.24,637.4 -1.03,23.1 -284.41,45.5 -284.41,45.5 l 126.52,-2866.7 958.74,-172.7 -34.5,890.9 c 674.87,214.7 257.89,1465.6 257.89,1465.6"
         style="fill:#fe9f73;fill-opacity:1;fill-rule:nonzero;stroke:none"
         id="path254" />
      <path
         d="m 8966.93,6730.7 c 8.69,-37 -106.34,-105.8 -94.29,-125 77.07,20.9 114.86,127.3 115.99,134.1 -168.73,66.7 -199.89,229.6 -122.59,351.9 -13.73,76.7 -166.53,-254.2 100.89,-361"
         style="fill:#f07162;fill-opacity:1;fill-rule:nonzero;stroke:none"
         id="path256" />
      <path
         d="m 8138.15,6174.3 c 0,0 399.03,-351.2 762.81,-444 l -12,271.9 c 0,0 -460.94,6.8 -750.81,172.1"
         style="fill:#f07162;fill-opacity:1;fill-rule:nonzero;stroke:none"
         id="path258" />
      <path
         d="m 8816.76,6489.8 c 0,0 -317.02,120.9 -322.37,122 -9.46,-155.6 167.99,-292.7 322.37,-122"
         style="fill:#fbfdfc;fill-opacity:1;fill-rule:nonzero;stroke:none"
         id="path260" />
      <path
         d="m 8804.21,7922.5 c 41.36,338 -626.09,395.6 -966.01,228.2 -467.29,-230.2 -437.64,-1296.4 -437.64,-1296.4 l 565.39,-768.9 c -464.56,1230.5 574.57,690.9 838.26,1837.1"
         style="fill:#fec786;fill-opacity:1;fill-rule:nonzero;stroke:none"
         id="path262" />
      <path
         d="m 8609.79,7191.3 c 41.68,9.9 111.66,-36.1 105.1,14.8 -127.48,65.1 -345.31,-38.9 -284.61,-67.6 18.03,-4.1 79.53,46.8 179.51,52.8"
         style="fill:#fec786;fill-opacity:1;fill-rule:nonzero;stroke:none"
         id="path264" />
      <path
         d="m 9175.42,7104.5 c 111.22,24 -290.75,186 -265.05,74.1 143.57,11.6 249.85,-63.9 265.05,-74.1"
         style="fill:#fec786;fill-opacity:1;fill-rule:nonzero;stroke:none"
         id="path266" />
      <path
         d="m 8529.38,7904.7 185.94,-250.2 58.6,38.7 z"
         style="fill:#fe9f73;fill-opacity:1;fill-rule:nonzero;stroke:none"
         id="path268" />
      <path
         d="m 7992.83,8206.4 c 0,0 -660.92,-137.5 -767.83,-744.8 -86.9,-493.7 33.61,-2321.8 33.61,-2321.8 59.68,-16.8 121.21,-31.1 182.51,-43.3 l 62.14,270.5 c 0,0 40.41,-181.4 64.64,-293.1 276.5,-43.8 517.11,-48.5 517.11,-48.5 -138.77,932.8 -44.06,2123.3 -92.18,3181"
         style="fill:#fec786;fill-opacity:1;fill-rule:nonzero;stroke:none"
         id="path270" />
      <path
         d="m 8109.56,6822 c -22.71,339.5 -535.75,354.6 -542.96,-23.9 22.71,-339.5 535.76,-354.6 542.96,23.9"
         style="fill:#fe9f73;fill-opacity:1;fill-rule:nonzero;stroke:none"
         id="path272" />
      <path
         d="m 7927.71,6802.7 c -10.1,119 -165.15,179 -221.86,118.2 27.35,-7.8 151.07,32 186.92,-68.1 -162.46,96.9 -285.21,-180 -67.38,-211.2 -193.65,89.3 -67.11,310.4 102.32,161.1"
         style="fill:#f07162;fill-opacity:1;fill-rule:nonzero;stroke:none"
         id="path274" />
      <path
         d="m 7741.43,2227.7 c -167.61,33.3 408.1,-320.7 432.25,-337.3 106.31,12.5 -391.07,295 -432.25,337.3"
         style="fill:#20111d;fill-opacity:1;fill-rule:nonzero;stroke:none"
         id="path276" />
      <path
         d="m 10889.3,1959 c -128.7,-193.5 -395.5,-661.8 -636.2,-900.5 -2.3,-2.7 -231.8,-265.5 -232.6,-266.199 C 9884.76,605.699 9579.21,356.5 9398.22,212 9426.23,167.402 9468.32,101.102 9533.61,1.40234 H 12003 C 11988.8,26.4023 10904.4,1932.5 10889.3,1959"
         style="fill:#fe9f73;fill-opacity:1;fill-rule:nonzero;stroke:none"
         id="path278" />
      <path
         d="m 9799.78,3377.2 c 0,0 -108.12,-625.1 43.81,-682.2 116.28,187.7 293.41,564.3 -43.81,682.2"
         style="fill:#ea283c;fill-opacity:1;fill-rule:nonzero;stroke:none"
         id="path280" />
      <path
         d="m 14155.1,3263.4 -136.5,1187.7 -3320.5,-699.9 -1351.33,1050 -899.19,-1446.5 c 0,0 1306.61,-1133.6 1729.12,-1281.4 422.5,-147.8 3978.4,1190.1 3978.4,1190.1"
         style="fill:#fe9f73;fill-opacity:1;fill-rule:nonzero;stroke:none"
         id="path282" />
      <path
         d="m 10368.9,3087.8 c 22.9,6.7 345.5,598.9 372.7,635.6 -12.3,198.4 -140.8,-59 -251.9,-257 -103.6,-201.7 -281.9,-402.5 -120.8,-378.6"
         style="fill:#f07162;fill-opacity:1;fill-rule:nonzero;stroke:none"
         id="path284" />
      <path
         d="m 9573.79,2219.8 -5.5,4 c 1.53,-1.7 3.35,-3 5.5,-4"
         style="fill:#ed2b47;fill-opacity:1;fill-rule:nonzero;stroke:none"
         id="path286" />
      <path
         d="M 10564.7,3894.3 9332.68,4871.9 8012.31,3345.7 9568.29,2223.8 c -95,105.9 996.41,1670.5 996.41,1670.5"
         style="fill:#ed2b47;fill-opacity:1;fill-rule:nonzero;stroke:none"
         id="path288" />
      <path
         d="m 10542.1,3885 c 134.8,-20.2 -298.2,270.5 -576.49,504 -318.89,233.3 -633.08,547.4 -628.51,457.2 0.22,-29.5 1195.7,-942.2 1205,-961.2"
         style="fill:#21111d;fill-opacity:1;fill-rule:nonzero;stroke:none"
         id="path290" />
      <path
         d="m 10261.4,3448.8 c -6.8,56.1 -357.75,-492.9 -621.64,-964.5 -127.49,-246.2 -94.95,-263.8 -76.4,-279.9 49.71,-5 14.96,37.3 19.48,41.1 -42.15,0.5 259.46,542.7 489.66,884.6 123.4,211.6 206.2,264.5 188.9,318.7"
         style="fill:#21111d;fill-opacity:1;fill-rule:nonzero;stroke:none"
         id="path292" />
      <path
         d="m 15327.8,4272.7 c -19.6,1 -34.3,124.5 -48.1,285 -190.9,-4.6 -353.6,-17.7 -434.8,-18.9 l -27.5,-27 -798.8,-60.7 c -36.2,-33.1 47.7,-984.1 42.2,-1201.5 1475.5,186.2 1228.8,-249.2 1274.2,964.1 -18.7,38.7 -3.9,29.8 -7.2,59"
         style="fill:#fe9f73;fill-opacity:1;fill-rule:nonzero;stroke:none"
         id="path294" />
      <path
         d="M 6762.4,2897.9 C 6560.92,1962.5 6591.98,958.301 6543.73,1.40234 h 3254.6 C 9785.21,23 9590.98,341.898 9580.57,359.102 10058.7,738.301 10635.3,1421.9 11056.8,2241.2 c 0,0 -125.7,221 -324.3,548.8 v 0.2 C 9285.35,5043 7935.01,7681.1 6762.4,2897.9"
         style="fill:#ed2b47;fill-opacity:1;fill-rule:nonzero;stroke:none"
         id="path296" />
      <path
         d="M 9219.75,115.902 C 9201.09,137.301 7906.08,2470.9 7880.03,2483.1 c -50.64,2.1 -1.93,-62.4 6.54,-78.9 C 8078.5,2063.4 9206.12,61.4023 9206.48,60.6992 10389,791.801 11049.5,2221.5 11061.1,2250.8 10374.9,3411.5 8937.79,6078.6 8039.04,5531.2 7491.47,5260 7159.78,4418.8 7181.66,4356.3 c 23.08,-52.2 55.08,62.8 77.6,109.9 C 7844.1,5699 8470.28,5953 9330.42,4840.7 10094.6,3916.2 10943.2,2384.7 11018.1,2249 10959.5,2124.3 10325.4,816.801 9219.75,115.902"
         style="fill:#20111d;fill-opacity:1;fill-rule:nonzero;stroke:none"
         id="path298" />
      <path
         d="M 10703,2817.9 C 10471,2339.3 10136.6,1684.5 9162.2,588.699 10057.5,1362.3 10886.8,2993.4 10703,2817.9"
         style="fill:#20111d;fill-opacity:1;fill-rule:nonzero;stroke:none"
         id="path300" />
      <path
         d="m 8515.98,6911.8 c 75.78,32.4 145.32,27.5 185.22,26.4 -73.15,90 -283.71,65.1 -214.17,31.2 3.15,2.1 68.56,32.4 152.31,-10.6 -11.64,-3.5 -154.31,-5.4 -123.36,-47"
         style="fill:#49263e;fill-opacity:1;fill-rule:nonzero;stroke:none"
         id="path302" />
      <path
         d="m 9156.91,6966.1 c 70.15,32.6 -139.95,61.2 -214.7,-27.4 39.92,0.4 109.53,4.1 184.72,-29.7 31.69,41.1 -110.92,45.4 -122.49,49.2 84.5,41.5 149.36,10 152.47,7.9"
         style="fill:#49263e;fill-opacity:1;fill-rule:nonzero;stroke:none"
         id="path304" />
      <path
         d="m 14869.6,5712.1 -36.3,-0.1 5.7,-2900.4 h 36.3 l -5.7,2900.5"
         style="fill:#28363f;fill-opacity:1;fill-rule:nonzero;stroke:none"
         id="path306" />
      <path
         d="m 14887.5,5730.5 c -6.6,27.3 -23.8,35.2 -36.2,36 -93.1,-35.6 24.3,-115.9 36.2,-36"
         style="fill:#ffda73;fill-opacity:1;fill-rule:nonzero;stroke:none"
         id="path308" />
      <path
         d="M 15006.8,6454.4 C 14953.6,6320 14912,6189 14880.3,6065 c 53.2,134.5 94.9,265.4 126.5,389.4"
         style="fill:#ffda73;fill-opacity:1;fill-rule:nonzero;stroke:none"
         id="path310" />
      <path
         d="m 15193.4,6368.9 c -87.3,-122.5 -162.3,-244.3 -225.7,-361.4 87.3,122.6 162.3,244.3 225.7,361.4"
         style="fill:#ffda73;fill-opacity:1;fill-rule:nonzero;stroke:none"
         id="path312" />
      <path
         d="m 15427.6,6153.4 c -121.6,-70.1 -228.9,-143.6 -323.6,-216.6 121.5,70.2 228.8,143.6 323.6,216.6"
         style="fill:#ffda73;fill-opacity:1;fill-rule:nonzero;stroke:none"
         id="path314" />
      <path
         d="m 15087.6,5995.9 c 92.2,83 166.6,163.5 228.8,240.1 -92.2,-82.9 -166.5,-163.5 -228.8,-240.1"
         style="fill:#ffda73;fill-opacity:1;fill-rule:nonzero;stroke:none"
         id="path316" />
      <path
         d="m 15617.3,5937.8 c -138.5,-2.1 -266.3,-14.2 -383.1,-31.8 138.6,2.2 266.4,14.1 383.1,31.8"
         style="fill:#ffda73;fill-opacity:1;fill-rule:nonzero;stroke:none"
         id="path318" />
      <path
         d="m 15444.6,5746.6 c -112.2,19.3 -212.7,26 -303.3,26 112.2,-19.2 212.7,-26 303.3,-26"
         style="fill:#ffda73;fill-opacity:1;fill-rule:nonzero;stroke:none"
         id="path320" />
      <path
         d="m 15266.2,5830.6 c 118,-13 165.9,-3 201.9,0.4 -117.9,13 -165.9,2.9 -201.9,-0.4"
         style="fill:#ffda73;fill-opacity:1;fill-rule:nonzero;stroke:none"
         id="path322" />
      <path
         d="m 15575.2,5536.8 c -183.4,63.5 -366.4,117.1 -541.8,160.2 183.5,-63.5 366.5,-117.2 541.8,-160.2"
         style="fill:#ffda73;fill-opacity:1;fill-rule:nonzero;stroke:none"
         id="path324" />
      <path
         d="m 15401.9,5656.3 c -76.4,30.7 -127,36.7 -167.3,41.1 76.5,-30.7 127,-36.8 167.3,-41.1"
         style="fill:#ffda73;fill-opacity:1;fill-rule:nonzero;stroke:none"
         id="path326" />
      <path
         d="m 15393.7,5310.1 c -129.8,120.2 -259.6,227.5 -385.3,321.7 129.8,-120.1 259.6,-227.6 385.3,-321.7"
         style="fill:#ffda73;fill-opacity:1;fill-rule:nonzero;stroke:none"
         id="path328" />
      <path
         d="m 15480.7,5434.5 c -91.5,59.6 -177.6,103.2 -257.6,137.1 91.5,-59.5 177.6,-103.3 257.6,-137.1"
         style="fill:#ffda73;fill-opacity:1;fill-rule:nonzero;stroke:none"
         id="path330" />
      <path
         d="m 15161.3,5357 c -91.8,121.5 -186.6,230.9 -280.2,327.8 91.9,-121.4 186.5,-231 280.2,-327.8"
         style="fill:#ffda73;fill-opacity:1;fill-rule:nonzero;stroke:none"
         id="path332" />
      <path
         d="m 14989.7,5387.7 c -34.5,102.1 -74.9,195.8 -118.9,267.5 37.3,-98.4 77,-192.3 118.9,-267.5"
         style="fill:#ffda73;fill-opacity:1;fill-rule:nonzero;stroke:none"
         id="path334" />
      <path
         d="m 15235.7,5136.7 c -74,119.7 -150.9,224.9 -226.9,317.6 74,-119.6 150.9,-224.9 226.9,-317.6"
         style="fill:#ffda73;fill-opacity:1;fill-rule:nonzero;stroke:none"
         id="path336" />
      <path
         d="m 14784.6,5874 c -32.3,197.2 -73.1,389.3 -119.5,569.4 32.3,-197.3 73,-389.4 119.5,-569.4"
         style="fill:#ffda73;fill-opacity:1;fill-rule:nonzero;stroke:none"
         id="path338" />
      <path
         d="m 14839.1,5952.5 c 1,123.1 -8.3,231.5 -22.8,328.4 -1.1,-123.1 8.4,-231.5 22.8,-328.4"
         style="fill:#ffda73;fill-opacity:1;fill-rule:nonzero;stroke:none"
         id="path340" />
      <path
         d="m 14328.1,6280 c 112.3,-134.6 226.3,-256.5 338,-364.8 -112.3,134.6 -226.3,256.4 -338,364.8"
         style="fill:#ffda73;fill-opacity:1;fill-rule:nonzero;stroke:none"
         id="path342" />
      <path
         d="m 14755,5856.2 c -74.1,146.3 -153.1,281 -233.1,402.7 74.2,-146.2 153.1,-281 233.1,-402.7"
         style="fill:#ffda73;fill-opacity:1;fill-rule:nonzero;stroke:none"
         id="path344" />
      <path
         d="m 14608.6,5842.6 c -131.5,49.6 -251,82.9 -359.7,108.8 132.8,-51.5 249.4,-83.4 359.7,-108.8"
         style="fill:#ffda73;fill-opacity:1;fill-rule:nonzero;stroke:none"
         id="path346" />
      <path
         d="m 14784.8,5745.3 c -194.2,25.8 -386.1,41.9 -568.2,49.2 194.3,-25.7 386.1,-42 568.2,-49.2"
         style="fill:#ffda73;fill-opacity:1;fill-rule:nonzero;stroke:none"
         id="path348" />
      <path
         d="m 14373.3,5842.1 c -98.4,29.6 -188,45.7 -269.3,54.3 98.4,-29.6 188,-45.8 269.3,-54.3"
         style="fill:#ffda73;fill-opacity:1;fill-rule:nonzero;stroke:none"
         id="path350" />
      <path
         d="m 14571.9,5684.2 c -150.2,-26.9 -290.9,-61.8 -420,-101.4 150.2,27 290.9,61.8 420,101.4"
         style="fill:#ffda73;fill-opacity:1;fill-rule:nonzero;stroke:none"
         id="path352" />
      <path
         d="m 14725.8,5666.8 c -200.6,-84.2 -394,-175.4 -573.5,-268.9 200.6,84.3 394,175.3 573.5,268.9"
         style="fill:#ffda73;fill-opacity:1;fill-rule:nonzero;stroke:none"
         id="path354" />
      <path
         d="m 14697.9,5570.6 c -145.3,-113.7 -277.5,-229.3 -395.8,-342.6 145.2,113.8 277.5,229.3 395.8,342.6"
         style="fill:#ffda73;fill-opacity:1;fill-rule:nonzero;stroke:none"
         id="path356" />
      <path
         d="m 14817.6,5622.6 c -70.9,-161.5 -129.7,-318.7 -177.4,-467.9 71,161.5 129.7,318.8 177.4,467.9"
         style="fill:#ffda73;fill-opacity:1;fill-rule:nonzero;stroke:none"
         id="path358" />
      <path
         d="m 14703.9,5501.8 c -100.2,-122.4 -113.1,-163.5 -131.3,-193.3 100.2,122.3 113.1,163.4 131.3,193.3"
         style="fill:#ffda73;fill-opacity:1;fill-rule:nonzero;stroke:none"
         id="path360" />
      <path
         d="m 14851.8,5520.6 c -17.8,-135.7 -23.4,-256.5 -22.2,-365.5 17.9,135.7 23.3,256.5 22.2,365.5"
         style="fill:#ffda73;fill-opacity:1;fill-rule:nonzero;stroke:none"
         id="path362" />
      <path
         d="m 14969.4,5161.3 c -26.5,148.9 -46.9,198.9 -68.6,261.7 26.6,-148.9 46.8,-198.9 68.6,-261.7"
         style="fill:#ffda73;fill-opacity:1;fill-rule:nonzero;stroke:none"
         id="path364" />
      <path
         d="m 15080.8,6058.4 c -82.3,-97.8 -146.8,-190.6 -199.9,-277.4 82.3,97.9 146.9,190.6 199.9,277.4"
         style="fill:#ffda73;fill-opacity:1;fill-rule:nonzero;stroke:none"
         id="path366" />
      <path
         d="m 15160.4,5857 c -162.6,-45.6 -194.1,-71.3 -226.2,-84.8 162.6,45.7 194,71.2 226.2,84.8"
         style="fill:#ffda73;fill-opacity:1;fill-rule:nonzero;stroke:none"
         id="path368" />
      <path
         d="m 14784.7,5795.6 c -93,63.3 -180.6,110.5 -262.1,147.4 92.9,-63.3 180.6,-110.4 262.1,-147.4"
         style="fill:#ffda73;fill-opacity:1;fill-rule:nonzero;stroke:none"
         id="path370" />
      <path
         d="m 14854.9,5708.8 c -22.3,0 -48.1,23.3 -3.5,46.5 7.9,-1.1 15.4,-2.2 24.9,-24.9 0.5,-15.4 -10,-21.6 -21.4,-21.6"
         style="fill:#f78a5f;fill-opacity:1;fill-rule:nonzero;stroke:none"
         id="path372" />
      <path
         d="m 15352.1,4319.2 c -244.2,-28.1 -797.9,-19.2 -482.5,-386.8 25.8,-38.1 515.7,52.9 562.8,51 111.8,144.5 -591.8,-96.1 -592.8,44.6 -174.5,328.4 662.6,136.4 512.5,291.2"
         style="fill:#f07162;fill-opacity:1;fill-rule:nonzero;stroke:none"
         id="path374" />
      <path
         d="m 14932.9,3949.4 c 179.7,53.7 544.6,-37.1 519.4,196.9 -7.7,90.5 -93.1,146.2 -93.1,146.2 -21.1,-7.2 -467.4,-45.1 -479.9,-58.1 -132.9,-62 -71.2,-311.5 53.6,-285"
         style="fill:#fe9f73;fill-opacity:1;fill-rule:nonzero;stroke:none"
         id="path376" />
      <path
         d="m 14938.4,3647 c 175.3,62.6 596,-32.2 539.8,239.7 -9,90.4 -63.6,122.6 -63.6,122.6 -34.2,-12 -493.9,-58.1 -529.6,-78.1 -123.6,-57 -77.1,-305.4 53.4,-284.2"
         style="fill:#fe9f73;fill-opacity:1;fill-rule:nonzero;stroke:none"
         id="path378" />
      <path
         d="m 15122.2,3388.9 c 262,65.4 338,-31.6 336.7,205.3 -6.4,221.2 -358.1,31.4 -529.7,38.1 -109.8,-6.8 -193.7,-361.8 193,-243.4"
         style="fill:#fe9f73;fill-opacity:1;fill-rule:nonzero;stroke:none"
         id="path380" />
      <path
         d="m 14964.5,4237.8 c 294.3,69.3 439,-43.1 428.5,219.5 -7.2,220 -463.4,42.5 -575.6,54.5 -126.6,-22 -161.7,-364.5 147.1,-274"
         style="fill:#fe9f73;fill-opacity:1;fill-rule:nonzero;stroke:none"
         id="path382" />
      <path
         d="m 15271.7,4600.2 c -243.2,-32.1 -797.6,-32.8 -478.8,-395.1 26.3,-37.7 515.1,61.7 562,60.5 110.7,140.3 -567.2,-86.8 -580.1,15.7 -228.3,348.7 654.1,165.2 496.9,318.9"
         style="fill:#f07162;fill-opacity:1;fill-rule:nonzero;stroke:none"
         id="path384" />
      <path
         d="m 15389.8,3752.9 c -141.2,-51.2 -641.3,2.1 -574.6,-267.7 21.3,-255.5 473.5,-46.7 605.4,-56.6 108.3,139.6 -530.6,-87.9 -539.8,6.5 -226.5,316.8 670.3,171.7 509,317.8"
         style="fill:#f07162;fill-opacity:1;fill-rule:nonzero;stroke:none"
         id="path386" />
      <path
         d="m 15411.8,4036.5 c -101.2,-38.4 -585.8,-17.2 -608.4,-165.1 -108,-422.3 443.7,-163.3 620.5,-166.5 106,184.9 -732.7,-237.9 -577.2,157.5 0.3,102.8 721.3,65.3 565.1,174.1"
         style="fill:#f07162;fill-opacity:1;fill-rule:nonzero;stroke:none"
         id="path388" />
      <path
         d="m 14893.7,4267.5 c -117,-3.2 -576.6,221.4 -602.2,-6.9 -31.6,-270.7 116.5,-166 415.9,-262.7 333,-126.2 310.2,241.3 186.3,269.6"
         style="fill:#fe9f73;fill-opacity:1;fill-rule:nonzero;stroke:none"
         id="path390" />
      <path
         d="m 14303,3972 c 59.6,2.2 567.5,-53.6 602,-19.3 333.5,359.5 -231.3,386.3 -475.3,445.8 -166.5,-140.8 678.5,-39.8 515,-333.1 7.8,-162 -747.6,49.5 -641.7,-93.4"
         style="fill:#f07162;fill-opacity:1;fill-rule:nonzero;stroke:none"
         id="path392" />
      <path
         d="m 6736.08,2909.8 c -496.46,-256 -335.66,-36.8 -627.81,-743.5 l 212.7,-1098.4 554.6,128.1 c 138.61,264.4 -42.87,1296.4 -139.49,1713.8"
         style="fill:#4cb7d8;fill-opacity:1;fill-rule:nonzero;stroke:none"
         id="path394" />
      <path
         d="M 6321.02,1067.8 C 6306.21,1017.9 6015.09,47.1016 6001.44,1.40234 h 891.21 C 6890.61,26.5 6795.6,1162.7 6793.95,1184.7 c -115.31,-28.6 -356.11,-88.1 -472.93,-116.9"
         style="fill:#4cb7d8;fill-opacity:1;fill-rule:nonzero;stroke:none"
         id="path396" />
      <path
         d="m 6812.22,1180.2 h -0.23 l -0.48,3 -17.55,-5.1 h 5.57 -5.57 -18.35 C 6805.83,1012.6 6837.73,660.699 6889.4,0 l 36.58,2.80078 C 6874.77,656.102 6842.16,1020.8 6812.22,1180.2"
         style="fill:#000000;fill-opacity:1;fill-rule:nonzero;stroke:none"
         id="path398" />
      <path
         d="m 5772.88,5716.9 -35.85,-7.8 c 3.63,-16.8 366.17,-1687.3 626.95,-2803.4 l 35.72,8.3 C 6139,4029.9 5776.52,5700.1 5772.88,5716.9"
         style="fill:#000000;fill-opacity:1;fill-rule:nonzero;stroke:none"
         id="path400" />
      <path
         d="m 14703.8,11661.5 113.9,-184.3 77,202.5 210.4,51.5 -168.8,135.7 16.1,216 -181.3,-118.6 -200.4,82.1 56.8,-209.1 -140,-165.2 216.3,-10.6"
         style="fill:#4cb7d8;fill-opacity:1;fill-rule:nonzero;stroke:none"
         id="path402" />
      <path
         d="m 5001.86,16061 113.93,-184.2 76.93,202.5 210.41,51.4 -168.8,135.7 16.12,216 -181.25,-118.6 -200.46,82.1 56.78,-209 -140.01,-165.3 216.35,-10.6"
         style="fill:#4cb7d8;fill-opacity:1;fill-rule:nonzero;stroke:none"
         id="path404" />
      <path
         d="m 8678.94,16973.7 169.82,-274.6 114.67,301.8 313.65,76.7 -251.62,202.3 24.02,322 -270.18,-176.8 -298.8,122.4 84.64,-311.6 -208.69,-246.4 322.49,-15.8"
         style="fill:#7fc6a6;fill-opacity:1;fill-rule:nonzero;stroke:none"
         id="path406" />
      <path
         d="m 13490,17042.2 c -91.8,-73.8 -227.3,-202.9 -185.1,-398.4 l 154.3,32.4 c -9.5,68.7 0.9,109.7 40.4,157.3 478.4,373.5 -33.4,454.3 209.7,702.8 l -101.2,120.9 c -316.3,-256.6 80.4,-479.7 -118.1,-615"
         style="fill:#fec786;fill-opacity:1;fill-rule:nonzero;stroke:none"
         id="path408" />
      <path
         d="m 6062.59,10093.2 c 337.51,-504.3 455.46,0.1 685.49,-260.5 l 128,92 c -229.71,329.5 -480.26,-33.5 -594.4,148.8 -76.84,105.8 -181.71,254.1 -394.09,227.8 l 21.02,-156.3 c 69.21,4.5 109.4,-8.9 153.98,-51.8"
         style="fill:#7fc6a6;fill-opacity:1;fill-rule:nonzero;stroke:none"
         id="path410" />
      <path
         d="m 16978.8,13702.3 c 117.1,10 289.9,45.3 362.2,223.4 l -145.8,60.1 c -29,-60.4 -60.9,-88.7 -117.7,-106 -616.5,-43.7 -231.2,-398.5 -573.3,-463.9 l 15.5,-157 c 421.8,41.2 188.2,450.5 459.1,443.4"
         style="fill:#febac7;fill-opacity:1;fill-rule:nonzero;stroke:none"
         id="path412" />
      <path
         d="m 2479.5,12730 -73.73,-139.4 c 293.49,-195.9 -203.17,-367.1 361.24,-651.5 42.23,-36.3 58.41,-73.4 62.75,-137.5 l 157.69,0.6 c -2.89,214 -164.12,297.6 -279.46,359.3 -196.75,88.1 130.26,384.7 -228.49,568.5"
         style="fill:#3f9896;fill-opacity:1;fill-rule:nonzero;stroke:none"
         id="path414" />
      <path
         d="m 27624.3,13791.4 c 337.6,-504.2 455.5,0.1 685.5,-260.5 l 128,92 c -229.7,329.5 -480.2,-33.5 -594.4,148.8 -76.8,105.8 -181.7,254.1 -394.1,227.8 l 21.1,-156.2 c 69.2,4.4 109.4,-9 153.9,-51.9"
         style="fill:#7fc6a6;fill-opacity:1;fill-rule:nonzero;stroke:none"
         id="path416" />
      <path
         d="m 19520.9,11537.6 c 57.9,-13.5 91.5,-39.7 124.5,-98.1 l 141.5,69.6 c -87.5,180.5 -273.4,198 -391.3,199.8 -241.7,-16.8 -59,401.1 -471.8,411.7 l -5.2,-157.6 c 345.6,-42.9 -15.6,-422.1 602.3,-425.4"
         style="fill:#4cb7d8;fill-opacity:1;fill-rule:nonzero;stroke:none"
         id="path418" />
      <path
         d="m 25559.1,16643.8 -73.7,-139.4 c 293.4,-196 -203.2,-367.1 361.2,-651.5 42.2,-36.3 58.4,-73.5 62.7,-137.5 l 157.7,0.5 c -2.9,214 -164.1,297.7 -279.4,359.3 -196.8,88.2 130.2,384.8 -228.5,568.6"
         style="fill:#3f9896;fill-opacity:1;fill-rule:nonzero;stroke:none"
         id="path420" />
      <path
         d="m 18402.8,18652.7 c 513.4,-351.6 426.3,160.7 741.8,3.2 l 85.8,132.3 c -324.8,216.1 -421.9,-175.5 -593.4,-86.6 -119,75.4 -268.6,181.8 -464.4,78 l 76.4,-138 c 60.3,27.5 100,31.6 153.8,11.1"
         style="fill:#fec786;fill-opacity:1;fill-rule:nonzero;stroke:none"
         id="path422" />
      <path
         d="m 20594.1,16391.9 -86.8,-131.7 c 51.2,-38.7 73.4,-72.5 80.7,-127.7 -71,-628.7 345.7,-306.9 347.3,-659.1 l 157.1,-14.6 c 41.5,403.3 -385.2,288.9 -350.7,502.5 11.7,130.2 29.5,311.4 -147.6,430.6"
         style="fill:#fd7583;fill-opacity:1;fill-rule:nonzero;stroke:none"
         id="path424" />
      <path
         d="m 27442.1,17478.7 c 588.2,-159 344.4,301.3 688.3,253.1 l 36.2,153.5 c -399.7,98.2 -334.5,-352.6 -563.2,-273.8 -113.6,27.7 -297.7,62.2 -429.9,-90.5 l 118.4,-104.2 c 49.3,48.8 88.4,65 150.2,61.9"
         style="fill:#fd7583;fill-opacity:1;fill-rule:nonzero;stroke:none"
         id="path426" />
      <path
         d="m 8878.63,13677.8 -86.8,-131.7 c 51.23,-38.7 73.42,-72.6 80.68,-127.8 -71,-628.7 345.73,-306.9 347.39,-659 l 157.01,-14.6 c 41.53,403.3 -385.13,288.8 -350.64,502.5 11.69,130.1 29.47,311.3 -147.64,430.6"
         style="fill:#fd7583;fill-opacity:1;fill-rule:nonzero;stroke:none"
         id="path428" />
      <path
         d="m 24126.7,18949.5 c 44.1,37.1 84.7,47.5 150.8,41.4 l 25.5,161.1 c -219.1,32.4 -331.1,-118.4 -413.2,-226.1 -122.2,-185.9 -372.7,196 -618.5,-139.5 l 130.2,-98.3 c 248.5,267 342.6,-267.5 725.2,261.4"
         style="fill:#febac7;fill-opacity:1;fill-rule:nonzero;stroke:none"
         id="path430" />
      <path
         d="m 27344.5,10749.6 c 513.4,-351.7 426.3,160.6 741.8,3.2 l 85.8,132.3 c -324.8,216 -421.9,-175.5 -593.4,-86.6 -119,75.4 -268.6,181.7 -464.4,78 l 76.4,-138 c 60.3,27.4 100,31.5 153.8,11.1"
         style="fill:#fec786;fill-opacity:1;fill-rule:nonzero;stroke:none"
         id="path432" />
      <path
         d="m 33068.4,11046.3 c 44.1,37.2 84.6,47.6 150.8,41.4 l 25.5,161.2 c -219.1,32.4 -331.1,-118.5 -413.2,-226.1 -122.2,-186 -372.7,196 -618.5,-139.5 l 130.2,-98.3 c 248.5,266.9 342.6,-267.6 725.2,261.3"
         style="fill:#febac7;fill-opacity:1;fill-rule:nonzero;stroke:none"
         id="path434" />
      <path
         d="m 23515.3,5932.9 c -7.7,-41.2 -767.3,-4125.4 -924.6,-5329.498 l 36.3,-4.8 C 22784.3,1801.8 23543.7,5885 23551.4,5926.1 l -36.1,6.8"
         style="fill:#000000;fill-opacity:1;fill-rule:nonzero;stroke:none"
         id="path436" />
      <path
         d="m 18571.5,3619 c -11.8,15.4 -419,78.8 -440.1,88.2 -0.1,0 -82.7,-45.3 -96.2,-128.3 -38.7,-214 298.5,-155.2 464.1,-217.9 111.7,-34.2 188.9,187.7 72.2,258"
         style="fill:#fe9f73;fill-opacity:1;fill-rule:nonzero;stroke:none"
         id="path438" />
      <path
         d="m 18544.8,3339.8 c -11.4,15.8 -463.7,100.1 -484.5,110.1 0,0 -52.7,-25.7 -67.3,-108.5 -70.1,-246.6 319.6,-188.4 480.4,-259 112,-31.6 182.7,190.4 71.4,257.4"
         style="fill:#fe9f73;fill-opacity:1;fill-rule:nonzero;stroke:none"
         id="path440" />
      <path
         d="m 18505.6,3059.5 c -11.7,18 -430.3,99.6 -451.9,110.9 0,0 -49.2,-23.2 -63.5,-100.2 -66.8,-228.7 293.6,-180 444.6,-248.5 102.8,-31.7 171.1,170.7 70.8,237.8"
         style="fill:#fe9f73;fill-opacity:1;fill-rule:nonzero;stroke:none"
         id="path442" />
      <path
         d="m 18646.4,3871.3 c -104.4,-3.2 -512.5,192.7 -534.6,-9.7 -27.8,-240.4 109.3,-147.8 376.2,-231.9 279.5,-106.8 275.6,208.3 158.4,241.6"
         style="fill:#fe9f73;fill-opacity:1;fill-rule:nonzero;stroke:none"
         id="path444" />
      <path
         d="m 18133.4,3682.1 c 43,-2.1 487.2,-128.3 514,-95.4 318.6,311.2 -188.5,350.9 -413.7,398.1 -156.4,-128.2 672.2,-27.6 435.8,-329.1 -14.6,-94 -627.3,163.1 -536.1,26.4"
         style="fill:#f07162;fill-opacity:1;fill-rule:nonzero;stroke:none"
         id="path446" />
      <path
         d="m 18030.3,3169.9 c 174.8,-14.9 673,-290 575.9,132.8 -17.5,100.6 -465.1,139.3 -541.4,172.2 -156.5,-127.8 691.6,-43.5 498.5,-327.2 -6.2,-124 -622.6,165.7 -533,22.2"
         style="fill:#f07162;fill-opacity:1;fill-rule:nonzero;stroke:none"
         id="path448" />
      <path
         d="m 18013.9,2914.8 c 103.3,2.3 486.7,-198.2 544.4,-37 116.9,286.3 -208.9,243.8 -493.2,333.9 -155.9,-122.7 658.2,-53.1 455.4,-319.4 -15.1,-108.1 -594.3,163 -506.6,22.5"
         style="fill:#f07162;fill-opacity:1;fill-rule:nonzero;stroke:none"
         id="path450" />
      <path
         d="m 18726.4,3391.7 c 280.9,66.9 395,-39.2 387.3,210.9 -13.9,210.4 -418.8,42.2 -554,48.9 -114.8,-16.4 -171.7,-358.7 166.7,-259.8"
         style="fill:#fe9f73;fill-opacity:1;fill-rule:nonzero;stroke:none"
         id="path452" />
      <path
         d="m 19010.3,3733.7 c -10.6,27.5 -435.6,-64.1 -454.2,-56.1 -134.6,-21.8 -138.6,-286.6 -0.6,-328.7 11.1,-8 501.3,-11.3 527.2,-11.7 105.5,106.4 -524.2,24.9 -548.5,77.4 -263.7,342.4 560.7,177.8 476.1,319.1"
         style="fill:#f07162;fill-opacity:1;fill-rule:nonzero;stroke:none"
         id="path454" />
      <path
         d="m 29393.1,1968.9 -98.5,-338.7 502,-535.5 861.4,970.7 c -479.7,-114.1 -1063.5,-169.7 -1264.9,-96.5"
         style="fill:#fe9f73;fill-opacity:1;fill-rule:nonzero;stroke:none"
         id="path456" />
      <path
         d="m 28493.3,3714 -36.2,-3.1 245.1,-2890.099 36.1,3.101 -245,2890.098"
         style="fill:#28363f;fill-opacity:1;fill-rule:nonzero;stroke:none"
         id="path458" />
      <path
         d="m 28509.6,3733.7 c -8.8,26.8 -26.6,33.2 -39,33 -89.8,-43.2 33.8,-113.5 39,-33"
         style="fill:#ffda73;fill-opacity:1;fill-rule:nonzero;stroke:none"
         id="path460" />
      <path
         d="m 28568.8,4465 c -42,-138.3 -72.6,-272.3 -93.9,-398.4 41.9,138.4 72.6,272.3 93.9,398.4"
         style="fill:#ffda73;fill-opacity:1;fill-rule:nonzero;stroke:none"
         id="path462" />
      <path
         d="m 28761.8,4395.3 c -76.9,-129.4 -141.6,-256.9 -195.1,-378.8 76.8,129.4 141.6,256.8 195.1,378.8"
         style="fill:#ffda73;fill-opacity:1;fill-rule:nonzero;stroke:none"
         id="path464" />
      <path
         d="m 29012.9,4199.8 c -115.4,-79.9 -216.2,-162 -304.6,-242.6 115.4,80 216.2,162 304.6,242.6"
         style="fill:#ffda73;fill-opacity:1;fill-rule:nonzero;stroke:none"
         id="path466" />
      <path
         d="m 28895.4,4273 c -85.1,-90.2 -152.5,-176.8 -208.3,-258.2 85.1,90.3 152.5,176.7 208.3,258.2"
         style="fill:#ffda73;fill-opacity:1;fill-rule:nonzero;stroke:none"
         id="path468" />
      <path
         d="m 29219.8,4000.6 c -137.9,-13.5 -264.2,-36.1 -379.1,-63.3 137.9,13.6 264.3,36 379.1,63.3"
         style="fill:#ffda73;fill-opacity:1;fill-rule:nonzero;stroke:none"
         id="path470" />
      <path
         d="m 28759.1,3796.7 c 113.4,-9.8 214.1,-8.4 304.4,-0.9 -113.4,9.9 -214.1,8.3 -304.4,0.9"
         style="fill:#ffda73;fill-opacity:1;fill-rule:nonzero;stroke:none"
         id="path472" />
      <path
         d="m 28878.8,3864.8 c 118.6,-3.2 165.5,10.7 201.2,17 -118.7,3.2 -165.6,-10.7 -201.2,-17"
         style="fill:#ffda73;fill-opacity:1;fill-rule:nonzero;stroke:none"
         id="path474" />
      <path
         d="m 29211,3597.5 c -188,48.2 -374.9,86.5 -553.2,114.9 188.1,-48.1 374.9,-86.6 553.2,-114.9"
         style="fill:#ffda73;fill-opacity:1;fill-rule:nonzero;stroke:none"
         id="path476" />
      <path
         d="m 29028.4,3702.3 c -78.7,24.3 -129.6,26.1 -170.1,27.1 78.7,-24.3 129.6,-26.2 170.1,-27.1"
         style="fill:#ffda73;fill-opacity:1;fill-rule:nonzero;stroke:none"
         id="path478" />
      <path
         d="m 29048.8,3356.6 c -139.3,109.1 -277.5,205.3 -410.5,288.8 139.2,-109 277.4,-205.4 410.5,-288.8"
         style="fill:#ffda73;fill-opacity:1;fill-rule:nonzero;stroke:none"
         id="path480" />
      <path
         d="m 29125.3,3487.8 c -96.1,51.8 -185.6,88.2 -268.2,115.3 96.2,-51.7 185.6,-88.3 268.2,-115.3"
         style="fill:#ffda73;fill-opacity:1;fill-rule:nonzero;stroke:none"
         id="path482" />
      <path
         d="m 28507,3687.7 c 101.6,-113.4 205,-214.8 306.4,-303.6 -101.6,113.5 -205.1,214.8 -306.4,303.6"
         style="fill:#ffda73;fill-opacity:1;fill-rule:nonzero;stroke:none"
         id="path484" />
      <path
         d="m 28639.7,3400.6 c -42.8,98.9 -90.7,188.9 -140.5,256.8 45.3,-95.1 92.6,-185.3 140.5,-256.8"
         style="fill:#ffda73;fill-opacity:1;fill-rule:nonzero;stroke:none"
         id="path486" />
      <path
         d="m 28905.7,3170.7 c -83.7,113.2 -169,211.7 -252.4,297.8 83.7,-113.1 168.9,-211.7 252.4,-297.8"
         style="fill:#ffda73;fill-opacity:1;fill-rule:nonzero;stroke:none"
         id="path488" />
      <path
         d="m 28395.2,3868.3 c -48.5,193.9 -105,382 -166.1,557.5 48.5,-193.8 104.9,-382 166.1,-557.5"
         style="fill:#ffda73;fill-opacity:1;fill-rule:nonzero;stroke:none"
         id="path490" />
      <path
         d="m 28443.1,3951.1 c -9.2,122.7 -27.4,230 -49.9,325.3 9.1,-122.7 27.5,-230 49.9,-325.3"
         style="fill:#ffda73;fill-opacity:1;fill-rule:nonzero;stroke:none"
         id="path492" />
      <path
         d="m 27906.8,4235.2 c 123,-124.8 246.7,-236.9 366.9,-335.6 -123,124.8 -246.7,236.8 -366.9,335.6"
         style="fill:#ffda73;fill-opacity:1;fill-rule:nonzero;stroke:none"
         id="path494" />
      <path
         d="m 28367.2,3848.1 c -86,139.7 -175.8,267.4 -265.5,382.1 86,-139.6 175.7,-267.4 265.5,-382.1"
         style="fill:#ffda73;fill-opacity:1;fill-rule:nonzero;stroke:none"
         id="path496" />
      <path
         d="m 28222.4,3822.5 c -135.1,38.6 -256.9,61.9 -367.5,78.7 136.7,-40.3 255.5,-62.5 367.5,-78.7"
         style="fill:#ffda73;fill-opacity:1;fill-rule:nonzero;stroke:none"
         id="path498" />
      <path
         d="m 27835.7,3742.2 c 195.7,-9.6 388.3,-10 570.3,-2.1 -195.6,9.6 -388.2,9.8 -570.3,2.1"
         style="fill:#ffda73;fill-opacity:1;fill-rule:nonzero;stroke:none"
         id="path500" />
      <path
         d="m 27988,3802.6 c -100.5,21.4 -191.2,30 -272.9,31.8 100.5,-21.3 191.1,-30.1 272.9,-31.8"
         style="fill:#ffda73;fill-opacity:1;fill-rule:nonzero;stroke:none"
         id="path502" />
      <path
         d="m 28198.9,3661.6 c -147.5,-39.2 -284.8,-85.6 -410.1,-135.7 147.4,39.2 284.8,85.5 410.1,135.7"
         style="fill:#ffda73;fill-opacity:1;fill-rule:nonzero;stroke:none"
         id="path504" />
      <path
         d="m 28353.7,3656.9 c -193,-100.5 -378.2,-207.3 -549.3,-315.3 192.9,100.6 378.2,207.3 549.3,315.3"
         style="fill:#ffda73;fill-opacity:1;fill-rule:nonzero;stroke:none"
         id="path506" />
      <path
         d="m 27967.6,3184.7 c 135.4,125.3 257.7,251.3 366.2,374 -135.4,-125.2 -257.6,-251.3 -366.2,-374"
         style="fill:#ffda73;fill-opacity:1;fill-rule:nonzero;stroke:none"
         id="path508" />
      <path
         d="m 28448.9,3620.5 c -57.3,-166.8 -103,-328.4 -138.2,-480.9 57.4,166.7 102.9,328.3 138.2,480.9"
         style="fill:#ffda73;fill-opacity:1;fill-rule:nonzero;stroke:none"
         id="path510" />
      <path
         d="m 28345.5,3490.7 c -89.7,-130.2 -99.2,-172.2 -114.8,-203.5 89.7,130.2 99.2,172.2 114.8,203.5"
         style="fill:#ffda73;fill-opacity:1;fill-rule:nonzero;stroke:none"
         id="path512" />
      <path
         d="m 28491.4,3521.6 c -6.6,-136.7 -2.1,-257.5 8,-366 6.6,136.7 2.1,257.5 -8,366"
         style="fill:#ffda73;fill-opacity:1;fill-rule:nonzero;stroke:none"
         id="path514" />
      <path
         d="m 28638.2,3173.3 c -24.4,98.2 -56,182.1 -89.9,255.1 27.1,-106.4 55.4,-180.1 89.9,-255.1"
         style="fill:#ffda73;fill-opacity:1;fill-rule:nonzero;stroke:none"
         id="path516" />
      <path
         d="m 28675.2,4076.5 c -74,-104.2 -130.6,-202 -176.3,-292.9 73.9,104.3 130.6,202 176.3,292.9"
         style="fill:#ffda73;fill-opacity:1;fill-rule:nonzero;stroke:none"
         id="path518" />
      <path
         d="m 28771.1,3882.4 c -158.3,-58.9 -187.5,-87.1 -218.4,-103.2 158.2,58.9 187.5,87 218.4,103.2"
         style="fill:#ffda73;fill-opacity:1;fill-rule:nonzero;stroke:none"
         id="path520" />
      <path
         d="m 28401.8,3790.2 c -97.9,55.3 -189.1,95.2 -273.4,125.3 97.9,-55.4 189.1,-95.2 273.4,-125.3"
         style="fill:#ffda73;fill-opacity:1;fill-rule:nonzero;stroke:none"
         id="path522" />
      <path
         d="m 28476.1,3709.4 c -21.5,0 -45.3,20.4 -4.6,46.1 8,-0.5 15.6,-0.9 27,-22.7 1.9,-16.6 -9.9,-23.4 -22.4,-23.4"
         style="fill:#f78a5f;fill-opacity:1;fill-rule:nonzero;stroke:none"
         id="path524" />
      <path
         d="m 22221,14746.8 -25.7,-25.5 2044.1,-2057.8 25.8,25.6 -2044.2,2057.7"
         style="fill:#28363f;fill-opacity:1;fill-rule:nonzero;stroke:none"
         id="path526" />
      <path
         d="m 22220.9,14772.5 c -24,14.8 -41.8,8.2 -51.1,0.1 -41.2,-90.7 98.8,-65.2 51.1,-0.1"
         style="fill:#ffda73;fill-opacity:1;fill-rule:nonzero;stroke:none"
         id="path528" />
      <path
         d="m 21980.4,15005.2 c -56.7,133 -119.2,255.4 -183.9,365.7 56.7,-133 119.2,-255.3 183.9,-365.7"
         style="fill:#ffda73;fill-opacity:1;fill-rule:nonzero;stroke:none"
         id="path530" />
      <path
         d="m 22083,15025.8 c -24.2,148.5 -56.5,287.8 -93.8,415.6 24.2,-148.5 56.5,-287.7 93.8,-415.6"
         style="fill:#ffda73;fill-opacity:1;fill-rule:nonzero;stroke:none"
         id="path532" />
      <path
         d="m 22307.2,15452.9 c -37.1,-135.3 -61.6,-263 -77.6,-381.5 37,135.4 61.7,263 77.6,381.5"
         style="fill:#ffda73;fill-opacity:1;fill-rule:nonzero;stroke:none"
         id="path534" />
      <path
         d="m 22170.1,15433.5 c -7.2,-123.8 -3.3,-233.4 6.3,-331.6 7.2,123.8 3.3,233.4 -6.3,331.6"
         style="fill:#ffda73;fill-opacity:1;fill-rule:nonzero;stroke:none"
         id="path536" />
      <path
         d="m 22593.8,15433.2 c -97,-99 -179.4,-197.4 -249.9,-292.1 96.9,99 179.4,197.3 249.9,292.1"
         style="fill:#ffda73;fill-opacity:1;fill-rule:nonzero;stroke:none"
         id="path538" />
      <path
         d="m 22605.5,15175.8 c -93.3,-65.2 -169.5,-131.2 -233.9,-194.9 93.2,65.3 169.5,131.1 233.9,194.9"
         style="fill:#ffda73;fill-opacity:1;fill-rule:nonzero;stroke:none"
         id="path540" />
      <path
         d="m 22419.6,15110 c 93,73.8 120.1,114.6 143.3,142.3 -93,-73.7 -120,-114.6 -143.3,-142.3"
         style="fill:#ffda73;fill-opacity:1;fill-rule:nonzero;stroke:none"
         id="path542" />
      <path
         d="m 22845.9,15118.5 c -175,-83.8 -342.9,-174.5 -497.8,-267.2 175.1,83.9 343,174.4 497.8,267.2"
         style="fill:#ffda73;fill-opacity:1;fill-rule:nonzero;stroke:none"
         id="path544" />
      <path
         d="m 22638.7,15081.5 c -76,-31.8 -116.2,-63.2 -147.8,-88.4 75.9,31.9 116.1,63.2 147.8,88.4"
         style="fill:#ffda73;fill-opacity:1;fill-rule:nonzero;stroke:none"
         id="path546" />
      <path
         d="m 22876.4,14829.7 c -176.8,-5.8 -344.6,-20.9 -500.2,-42.3 176.8,5.9 344.6,20.8 500.2,42.3"
         style="fill:#ffda73;fill-opacity:1;fill-rule:nonzero;stroke:none"
         id="path548" />
      <path
         d="m 22850.7,14979.4 c -106.9,-22.1 -198.9,-51.6 -279.6,-83.8 106.9,22 198.9,51.5 279.6,83.8"
         style="fill:#ffda73;fill-opacity:1;fill-rule:nonzero;stroke:none"
         id="path550" />
      <path
         d="m 22678.2,14699.6 c -150.8,21.7 -295.1,32.9 -429.8,35.9 150.8,-21.7 295,-33 429.8,-35.9"
         style="fill:#ffda73;fill-opacity:1;fill-rule:nonzero;stroke:none"
         id="path552" />
      <path
         d="m 22534.6,14600.7 c -96.4,48.3 -191,86.5 -272.7,106.5 95.7,-43.8 190,-82.5 272.7,-106.5"
         style="fill:#ffda73;fill-opacity:1;fill-rule:nonzero;stroke:none"
         id="path554" />
      <path
         d="m 22886,14595.3 c -136.8,33 -265.5,53.7 -384.7,66.1 136.8,-32.9 265.5,-53.7 384.7,-66.1"
         style="fill:#ffda73;fill-opacity:1;fill-rule:nonzero;stroke:none"
         id="path556" />
      <path
         d="m 22046.7,14802.1 c -161.7,117.5 -325.8,225.3 -485.4,320.7 161.7,-117.5 325.8,-225.5 485.4,-320.7"
         style="fill:#ffda73;fill-opacity:1;fill-rule:nonzero;stroke:none"
         id="path558" />
      <path
         d="m 21783.1,15113.7 c 85.8,-88.3 168.7,-158.7 247.2,-217.4 -85.9,88.2 -168.8,158.7 -247.2,217.4"
         style="fill:#ffda73;fill-opacity:1;fill-rule:nonzero;stroke:none"
         id="path560" />
      <path
         d="m 21436.7,14769.6 c 174.5,-16.6 341.2,-23.1 496.8,-21.5 -174.4,16.6 -341.2,23 -496.8,21.5"
         style="fill:#ffda73;fill-opacity:1;fill-rule:nonzero;stroke:none"
         id="path562" />
      <path
         d="m 22038.2,14768.6 c -155.6,51.8 -306.5,92.1 -448.9,122.3 155.6,-51.7 306.5,-92.1 448.9,-122.3"
         style="fill:#ffda73;fill-opacity:1;fill-rule:nonzero;stroke:none"
         id="path564" />
      <path
         d="m 21943.7,14656 c -128.3,-57.2 -236.7,-117.6 -332.2,-175.7 130.6,56.9 236,116.1 332.2,175.7"
         style="fill:#ffda73;fill-opacity:1;fill-rule:nonzero;stroke:none"
         id="path566" />
      <path
         d="m 22137.4,14710.8 c -156.2,-118.3 -303.9,-241.8 -438.5,-364.7 156.2,118.3 304,241.7 438.5,364.7"
         style="fill:#ffda73;fill-opacity:1;fill-rule:nonzero;stroke:none"
         id="path568" />
      <path
         d="m 21776.8,14490.2 c -90.8,-48.2 -165.8,-99.8 -229.6,-150.9 90.8,48.2 165.8,99.7 229.6,150.9"
         style="fill:#ffda73;fill-opacity:1;fill-rule:nonzero;stroke:none"
         id="path570" />
      <path
         d="m 22029,14517.6 c -87.8,-124.8 -163.3,-248.5 -227.2,-367.5 87.8,124.8 163.4,248.5 227.2,367.5"
         style="fill:#ffda73;fill-opacity:1;fill-rule:nonzero;stroke:none"
         id="path572" />
      <path
         d="m 22150.7,14613.4 c -83.4,-200.9 -156.7,-401.8 -218.5,-594.5 83.3,201 156.7,401.8 218.5,594.5"
         style="fill:#ffda73;fill-opacity:1;fill-rule:nonzero;stroke:none"
         id="path574" />
      <path
         d="m 22198.5,14525.4 c -23.3,-183 -36,-358.1 -40.4,-521.9 23.2,183 36.1,358.2 40.4,521.9"
         style="fill:#ffda73;fill-opacity:1;fill-rule:nonzero;stroke:none"
         id="path576" />
      <path
         d="m 22450,14189.3 c -63.1,164.6 -132,317.7 -203,457.3 63.2,-164.6 132,-317.8 203,-457.3"
         style="fill:#ffda73;fill-opacity:1;fill-rule:nonzero;stroke:none"
         id="path578" />
      <path
         d="m 22293.9,14251 c -14.9,157.4 -34.6,195.8 -42.7,229.8 14.8,-157.5 34.5,-195.8 42.7,-229.8"
         style="fill:#ffda73;fill-opacity:1;fill-rule:nonzero;stroke:none"
         id="path580" />
      <path
         d="m 22584.4,14322.8 c -82.8,109 -163.9,198.7 -241.3,275.4 82.8,-109 163.8,-198.8 241.3,-275.4"
         style="fill:#ffda73;fill-opacity:1;fill-rule:nonzero;stroke:none"
         id="path582" />
      <path
         d="m 22679.4,14425.5 c -81.8,59.6 -159.9,103.6 -232.8,137.8 81.8,-59.5 159.8,-103.6 232.8,-137.8"
         style="fill:#ffda73;fill-opacity:1;fill-rule:nonzero;stroke:none"
         id="path584" />
      <path
         d="m 22180.6,14803.7 c -10.3,127.5 -29.6,238.8 -53,337.8 10.3,-127.4 29.7,-238.7 53,-337.8"
         style="fill:#ffda73;fill-opacity:1;fill-rule:nonzero;stroke:none"
         id="path586" />
      <path
         d="m 22325.8,15054.3 c -83.5,-146.7 -87.8,-187.1 -101.2,-219.3 83.5,146.8 87.9,187.1 101.2,219.3"
         style="fill:#ffda73;fill-opacity:1;fill-rule:nonzero;stroke:none"
         id="path588" />
      <path
         d="m 22102,14746.5 c -110.6,-20.5 -206.1,-48.6 -290.1,-79.6 110.6,20.4 206.1,48.5 290.1,79.6"
         style="fill:#ffda73;fill-opacity:1;fill-rule:nonzero;stroke:none"
         id="path590" />
      <path
         d="m 22190.6,14724.3 c -12.6,0 -22.5,10.6 -12.9,40.4 3.7,2.7 7.2,5.4 13.9,5.4 4.9,0 11.6,-1.5 21.3,-5.5 19.5,-18.5 -4.3,-40.3 -22.3,-40.3"
         style="fill:#f78a5f;fill-opacity:1;fill-rule:nonzero;stroke:none"
         id="path592" />
      <path
         d="m 28254.1,1575.1 c -64.2,-105.6 65.1,-160 65.1,-160 -43.6,-242.5 206.8,-78.4 322.7,-86.1 61.1,-21.1 351.9,-199.7 476.1,-234.2 134.1,-33.5 508.6,-42.1 712.1,-33.6 l -83.7,870.2 c -290.9,44.5 -646.9,199.5 -1224.8,158.8 -82.9,-36.3 -383.2,-182.9 -269.3,-317.8 -141.1,-139 1.8,-197.3 1.8,-197.3"
         style="fill:#fe9f73;fill-opacity:1;fill-rule:nonzero;stroke:none"
         id="path594" />
      <path
         d="m 28720.2,1917.4 c -55.6,101.7 -413.5,-94.8 -473.9,-134.6 -23,-93.5 204.5,164.3 473.9,134.6"
         style="fill:#f07162;fill-opacity:1;fill-rule:nonzero;stroke:none"
         id="path596" />
      <path
         d="m 28703.7,1684 c 27.3,96.5 -535.7,-91.6 -444.6,-119.8 33.4,15 273.5,138.9 444.6,119.8"
         style="fill:#f07162;fill-opacity:1;fill-rule:nonzero;stroke:none"
         id="path598" />
      <path
         d="m 28706.8,1511.3 c 16.6,100.5 -496.4,-102.5 -380.4,-105.9 36.7,24.2 268.9,126.1 380.4,105.9"
         style="fill:#f07162;fill-opacity:1;fill-rule:nonzero;stroke:none"
         id="path600" />
      <path
         d="m 23424.4,13424.8 c 109.4,148.5 449.2,292.9 291.3,461.9 -59.7,66.5 -159.7,59.7 -159.7,59.7 -12.3,-18.2 -340.3,-312 -342.4,-329.7 -67.6,-127.7 128.2,-285.8 210.8,-191.9"
         style="fill:#fe9f73;fill-opacity:1;fill-rule:nonzero;stroke:none"
         id="path602" />
      <path
         d="m 23607.8,13190.7 c 101.2,153.5 486.6,327.3 281.8,507.6 -60.6,65.6 -122.5,58.5 -122.5,58.5 -19.8,-29.6 -353.3,-337.9 -369.5,-374.7 -64.6,-122 125.8,-283.8 210.2,-191.4"
         style="fill:#fe9f73;fill-opacity:1;fill-rule:nonzero;stroke:none"
         id="path604" />
      <path
         d="m 23791.9,12979.5 c 94.4,146.7 447.2,311.4 255.7,477.7 -56.9,60.6 -114.3,53.2 -114.3,53.2 -11.7,-19.7 -338.9,-337 -339.8,-356.3 -55.4,-115.9 122.6,-262.3 198.4,-174.6"
         style="fill:#fe9f73;fill-opacity:1;fill-rule:nonzero;stroke:none"
         id="path606" />
      <path
         d="m 23534.6,13963.2 c -175.9,-167.3 -614.6,-487.4 -149.8,-589.3 42.8,-14.6 373.6,346.8 411.6,373.1 5.9,174.7 -401.5,-397.7 -470.6,-323.4 -385.3,142.1 424.6,510.9 208.8,539.6"
         style="fill:#f07162;fill-opacity:1;fill-rule:nonzero;stroke:none"
         id="path608" />
      <path
         d="m 23314.5,13705.4 c 185.6,220 324.1,190 170.5,390.4 -135.9,168.4 -388.9,-240.9 -484.1,-297.9 -79.9,-74.1 67,-413.5 313.6,-92.5"
         style="fill:#fe9f73;fill-opacity:1;fill-rule:nonzero;stroke:none"
         id="path610" />
      <path
         d="m 23305.2,14136.2 c -172.8,-169.9 -606.4,-497.8 -142,-593.5 42.9,-14.1 367.9,353.3 405.4,380 3.7,175.5 -394.9,-404.5 -464.8,-331 -385.4,137.4 416.6,518.6 201.4,544.5"
         style="fill:#f07162;fill-opacity:1;fill-rule:nonzero;stroke:none"
         id="path612" />
      <path
         d="m 23748.8,13776.6 c -50.2,-73.7 -428.4,-365.3 -385.8,-464.5 155.8,-433.9 442.6,96.6 591.5,211.3 -7,184.8 -383.9,-452.9 -480.8,-316.3 -295,145.8 485.8,545.7 275.1,569.5"
         style="fill:#f07162;fill-opacity:1;fill-rule:nonzero;stroke:none"
         id="path614" />
      <path
         d="m 23899.4,13540.8 c -225.9,-264.3 -491.1,-379.2 -271.9,-567.7 159.9,-149.3 384.9,268.3 488,331.4 -1.6,176.6 -363.1,-397.4 -440.5,-310.6 -334.3,121.9 433.8,525.9 224.4,546.9"
         style="fill:#f07162;fill-opacity:1;fill-rule:nonzero;stroke:none"
         id="path616" />
      <path
         d="m 7685.05,1502.3 c -836.33,87.7 -558.67,-49.1 114.24,-137.7 799.14,-103.2 874.26,-11.2 142.07,103.5 -24.61,2081.3 723.11,1290.4 735.52,3449 l -792.22,106.2 c -239.41,-882.1 -229.32,-1532.7 -10.73,-2129.2 48.79,-231 -104.38,-1333.3 -188.88,-1391.8"
         style="fill:#e3f2ff;fill-opacity:1;fill-rule:nonzero;stroke:none"
         id="path618" />
      <path
         d="m 8559.3,4412 c -91.76,37 -737.63,-12.6 -729.69,-65.8 -35.57,-301.5 -71.47,-913.6 111.07,-1296.1 l 162.06,-21.7 c 308.02,334.8 505.39,1318.8 456.56,1383.6"
         style="fill:#ffd03b;fill-opacity:1;fill-rule:nonzero;stroke:none"
         id="path620" />
      <path
         d="m 8572.02,4401.3 c -23.86,78.1 -1094.34,-49.2 -627.07,-75.4 218.77,-9.6 633.43,40.9 627.07,75.4"
         style="fill:#ffda73;fill-opacity:1;fill-rule:nonzero;stroke:none"
         id="path622" />
      <path
         d="m 8100.45,4011.4 c 5.86,104.2 -139.14,115.7 -154.43,20.7 -5.87,-104.2 139.13,-115.6 154.43,-20.7"
         style="fill:#ffda73;fill-opacity:1;fill-rule:nonzero;stroke:none"
         id="path624" />
      <path
         d="m 8217.46,3329.1 c 5.87,104.2 -139.13,115.7 -154.43,20.8 -5.86,-104.2 139.14,-115.7 154.43,-20.8"
         style="fill:#ffda73;fill-opacity:1;fill-rule:nonzero;stroke:none"
         id="path626" />
      <path
         d="m 8320.08,3740.9 c 5.86,104.2 -139.14,115.7 -154.42,20.8 -5.87,-104.2 139.13,-115.7 154.42,-20.8"
         style="fill:#ffda73;fill-opacity:1;fill-rule:nonzero;stroke:none"
         id="path628" />
      <path
         d="m 8013.04,3624.9 c -3.38,33.1 -22.31,45.1 -36.62,48 -114.7,-26.8 9.99,-139.6 36.62,-48"
         style="fill:#ffda73;fill-opacity:1;fill-rule:nonzero;stroke:none"
         id="path630" />
      <path
         d="m 8422.46,4183.1 c -3.39,33.1 -22.32,45.1 -36.62,48 -114.71,-26.8 9.99,-139.6 36.62,-48"
         style="fill:#ffda73;fill-opacity:1;fill-rule:nonzero;stroke:none"
         id="path632" />
      <path
         d="M 7790.23,3236.8 C 7202.89,3089.7 6689.97,2611.1 6436.54,2458.3 l 328.53,-1035.4 c 238.48,90.2 660.22,281.5 797.49,385.5 127.83,102.9 368.92,444.5 430.06,499.7 130.33,64.7 496.71,2.1 326.79,255.7 0,0 121.35,125.3 -3.58,214.6 0,0 134.97,136.2 -94.07,226.4 57.45,201 -290.7,222.5 -431.53,232"
         style="fill:#fe9f73;fill-opacity:1;fill-rule:nonzero;stroke:none"
         id="path634" />
      <path
         d="m 8236.79,3003.1 c -63.39,56 -618.59,70.4 -620.47,-60.6 304.73,150.3 441.32,20.1 620.47,60.6"
         style="fill:#f07162;fill-opacity:1;fill-rule:nonzero;stroke:none"
         id="path636" />
      <path
         d="m 8315.52,2763.5 c 102.07,81.3 -656.26,11.1 -566.56,-79.8 209.52,111.1 511.42,77.7 566.56,79.8"
         style="fill:#f07162;fill-opacity:1;fill-rule:nonzero;stroke:none"
         id="path638" />
      <path
         d="m 8329.44,2552.9 c 58.83,74.8 -583.31,15.4 -499.82,-68 195.32,104.3 436.53,54.7 499.82,68"
         style="fill:#f07162;fill-opacity:1;fill-rule:nonzero;stroke:none"
         id="path640" />
      <path
         d="m 6638.68,1301.9 287.3,76.7 c 13.98,321.7 -107.01,1087.2 -165.53,1411.7 l -409.07,-189 c 40.24,-648.1 -88.03,-474 287.3,-1299.4"
         style="fill:#4cb7d8;fill-opacity:1;fill-rule:nonzero;stroke:none"
         id="path642" />
      <path
         d="M 5149.59,836 C 5057.15,805.5 4694.98,778.699 4777.49,718.902 5214.21,775 6861.12,1179.7 6925.08,1190.2 c 84.42,698.4 -157.47,1683.5 -168.93,1732.9 -218.77,-36.3 -3427.42,-24.9 -3510.72,-211.3 6.87,-57.1 479.82,85.1 461,65.8 59.85,1.9 3011.2,95.5 3011.65,95.5 32.94,-141.2 231.21,-1028.9 162.63,-1643.4 C 6739,1196.2 5746.61,961.703 5149.59,836"
         style="fill:#21111d;fill-opacity:1;fill-rule:nonzero;stroke:none"
         id="path644" />
    </g>
  </g>
</svg>
