<?xml version="1.0" encoding="UTF-8" standalone="no"?>
<!-- Created with Inkscape (http://www.inkscape.org/) -->

<svg
   version="1.1"
   id="svg2"
   width="603.79999"
   height="603.79999"
   viewBox="0 0 603.79999 603.79999"
   sodipodi:docname="9642226.eps"
   xmlns:inkscape="http://www.inkscape.org/namespaces/inkscape"
   xmlns:sodipodi="http://sodipodi.sourceforge.net/DTD/sodipodi-0.dtd"
   xmlns="http://www.w3.org/2000/svg"
   xmlns:svg="http://www.w3.org/2000/svg">
  <defs
     id="defs6" />
  <sodipodi:namedview
     id="namedview4"
     pagecolor="#ffffff"
     bordercolor="#000000"
     borderopacity="0.25"
     inkscape:showpageshadow="2"
     inkscape:pageopacity="0.0"
     inkscape:pagecheckerboard="0"
     inkscape:deskcolor="#d1d1d1" />
  <g
     id="g8"
     inkscape:groupmode="layer"
     inkscape:label="ink_ext_XXXXXX"
     transform="matrix(1.3333333,0,0,-1.3333333,0,603.8)">
    <g
       id="g10"
       transform="scale(0.1)">
      <path
         d="m 2264.23,444.77 c -1004.86,0 -1819.464,814.6 -1819.464,1819.47 0,1004.86 814.604,1819.47 1819.464,1819.47 1004.87,0 1819.47,-814.61 1819.47,-1819.47 0,-1004.87 -814.6,-1819.47 -1819.47,-1819.47 m -426.32,406.769 v 0 c 0,-2.5 1.9,-4.598 4.4,-4.898 l 106,-11.7 c 11.3,-1.3 20.3,-10.402 21.3,-21.703 l 12.2,-135.398 c 0.2,-2.5 2.3,-4.399 4.9,-4.399 2.5,0 4.6,1.899 4.8,4.399 l 12.2,135.398 c 1,11.301 10,20.403 21.3,21.703 l 106.1,11.7 c 2.4,0.3 4.3,2.398 4.3,4.898 v 0 0 c 0,2.402 -1.9,4.5 -4.3,4.801 l -106.1,11.699 c -11.3,1.301 -20.3,10.402 -21.3,21.699 l -12.2,135.402 c -0.2,2.5 -2.3,4.4 -4.8,4.4 -2.6,0 -4.7,-1.9 -4.9,-4.4 l -12.2,-135.402 c -1,-11.297 -10,-20.398 -21.3,-21.699 l -106,-11.699 c -2.5,-0.301 -4.4,-2.399 -4.4,-4.801 v 0 m 1415.05,432.901 v 0 c 0,-2.2 1.7,-4.1 3.9,-4.3 l 64.9,-7.2 c 6.2,-0.7 11.2,-5.8 11.8,-12 l 7.4,-82.8 c 0.2,-2.3 2.1,-4 4.4,-4 2.3,0 4.2,1.7 4.4,4 l 7.4,82.8 c 0.6,6.2 5.6,11.3 11.8,12 l 64.9,7.2 c 2.3,0.2 3.9,2.1 3.9,4.3 v 0 0 c 0,2.3 -1.6,4.1 -3.9,4.4 l -64.9,7.2 c -6.2,0.7 -11.2,5.7 -11.8,12 l -7.4,82.8 c -0.2,2.3 -2.1,4 -4.4,4 -2.3,0 -4.2,-1.7 -4.4,-4 l -7.4,-82.8 c -0.6,-6.3 -5.6,-11.3 -11.8,-12 l -64.9,-7.2 c -2.2,-0.3 -3.9,-2.1 -3.9,-4.4 v 0 m -1115.53,45.74 c 16.87,-28.32 49.93,-38.11 85.82,-38.11 45.59,0 95.73,15.8 122.98,29.51 24.76,-5.9 45.6,-9.06 65.09,-9.06 48.22,0 88.15,19.33 158.51,64.26 20.69,13.23 45.61,31.48 72.76,52.77 6.96,-5.49 14.68,-10.47 23.07,-14.87 20.16,-10.58 39.17,-15.06 56.68,-15.06 34.88,0 63.78,17.81 83.74,40.77 29.97,34.47 43.97,72.97 31.98,119.28 16.61,-10.47 33.65,-14.82 50.38,-14.82 48.22,0 93.92,36.12 119.51,66.16 34.48,40.46 46.47,91.42 14.99,151.38 14.29,-5.66 28.28,-8.24 41.77,-8.24 54.41,0 100.58,42.02 124.6,93.67 29.97,64.44 17.25,115.66 -61.45,167.86 -2.73,1.81 -5.51,3.51 -8.33,5.11 34.51,69.71 66.79,135.43 91.94,181.44 -17.18,-31.58 -87.44,-172.36 -87.44,-172.36 68.06,-32.74 166.16,-62.14 215.9,-62.14 0.73,0 1.46,0.01 2.18,0.02 0.02,0 0.04,0 0.06,0 61.35,0 99.04,33.56 109.9,123.74 9.35,77.64 -19.21,118.62 -64.81,137.19 l -107.56,62.17 c -0.22,-0.18 -0.44,-0.36 -0.65,-0.54 116.64,104.15 374.28,238.07 374.28,238.07 l -474.1,944.5 c 0,0 -320.4,-240.3 -440.5,-290.6 -69.5,-29.1 -182.6,-90.2 -491.8,-178.6 -250.3,-71.6 -289.8,-81.7 -437.4,-271.8 -60.7,-78.2 -117.7,-156.9 -161.1,-216.3 112.6,72.9 226.5,159.4 302.5,188.4 2.9,1.1 5.8,2.1 8.6,3.1 6.1,2.1 11.9,3.7 17.4,4.9 l 0.2,-0.37 c 50.81,-132.76 135.12,-263.52 215.93,-387.07 l 0.37,-0.66 c -17.7,-167.3 -93.2,-441.7 -185.8,-594.2 -40.2,-71 -147.3,-173.3 -232,-254.1 l -71.2,-49.91 c 12.23,-58.74 94.03,-87 156.11,-87 22.68,0 42.73,3.77 55.79,11.21 17.47,-33.04 65.86,-48.92 115.53,-48.92 39.31,0.01 79.41,9.96 105.57,29.22 m 1319.67,400.71 v 0 c 0,-2.73 2.07,-5.01 4.79,-5.34 l 115.46,-12.74 c 12.3,-1.42 22.1,-11.33 23.19,-23.64 l 13.29,-147.47 c 0.22,-2.73 2.51,-4.8 5.34,-4.8 2.72,0 5.01,2.07 5.23,4.8 l 13.29,147.47 c 1.09,12.31 10.89,22.22 23.2,23.64 l 115.56,12.74 c 2.61,0.33 4.68,2.61 4.68,5.34 v 0 0 c 0,2.61 -2.07,4.9 -4.68,5.23 l -115.56,12.74 c -12.31,1.41 -22.11,11.33 -23.2,23.63 l -13.29,147.48 c -0.22,2.72 -2.51,4.79 -5.23,4.79 -2.83,0 -5.12,-2.07 -5.34,-4.79 l -13.29,-147.48 c -1.09,-12.3 -10.89,-22.22 -23.19,-23.63 l -115.46,-12.74 c -2.72,-0.33 -4.79,-2.62 -4.79,-5.23 v 0 M 894.195,2714.43 v 0 c 0,-2.5 1.903,-4.6 4.403,-4.9 l 106.002,-11.7 c 11.29,-1.3 20.29,-10.4 21.29,-21.7 l 12.21,-135.4 c 0.19,-2.5 2.3,-4.4 4.89,-4.4 2.51,0 4.61,1.9 4.8,4.4 l 12.2,135.4 c 1.01,11.3 10,20.4 21.31,21.7 l 106.09,11.7 c 2.4,0.3 4.3,2.4 4.3,4.9 v 0 0 c 0,2.4 -1.9,4.5 -4.3,4.8 l -106.09,11.71 c -11.31,1.29 -20.3,10.39 -21.31,21.69 l -12.2,135.4 c -0.19,2.5 -2.29,4.4 -4.8,4.4 -2.59,0 -4.7,-1.9 -4.89,-4.4 l -12.21,-135.4 c -1,-11.3 -10,-20.4 -21.29,-21.69 l -106.002,-11.71 c -2.5,-0.3 -4.403,-2.4 -4.403,-4.8 v 0 m 365.185,506.96 v 0 c 0,-2.2 1.7,-4.1 3.9,-4.3 l 64.89,-7.2 c 6.2,-0.7 11.2,-5.8 11.8,-12 l 7.41,-82.8 c 0.19,-2.3 2.1,-4 4.39,-4 2.31,0 4.21,1.7 4.41,4 l 7.4,82.8 c 0.59,6.2 5.6,11.3 11.8,12 l 64.89,7.2 c 2.3,0.2 3.91,2.1 3.91,4.3 v 0 0 c 0,2.3 -1.61,4.1 -3.91,4.4 l -64.89,7.2 c -6.2,0.7 -11.21,5.7 -11.8,12 l -7.4,82.8 c -0.2,2.3 -2.1,4 -4.41,4 -2.29,0 -4.2,-1.7 -4.39,-4 l -7.41,-82.8 c -0.6,-6.3 -5.6,-11.3 -11.8,-12 l -64.89,-7.2 c -2.2,-0.3 -3.9,-2.1 -3.9,-4.4 v 0 m 955.04,290.78 v 0 c 0,-2.43 1.84,-4.47 4.27,-4.76 l 102.94,-11.36 c 10.97,-1.26 19.71,-10.1 20.68,-21.07 l 11.85,-131.49 c 0.19,-2.43 2.23,-4.27 4.76,-4.27 2.42,0 4.46,1.84 4.66,4.27 l 11.84,131.49 c 0.98,10.97 9.71,19.81 20.69,21.07 l 103.03,11.36 c 2.33,0.29 4.18,2.33 4.18,4.76 v 0 0 c 0,2.33 -1.85,4.37 -4.18,4.66 l -103.03,11.36 c -10.98,1.27 -19.71,10.1 -20.69,21.08 l -11.84,131.48 c -0.2,2.43 -2.24,4.27 -4.66,4.27 -2.53,0 -4.57,-1.84 -4.76,-4.27 l -11.85,-131.48 c -0.97,-10.98 -9.71,-19.81 -20.68,-21.08 l -102.94,-11.36 c -2.43,-0.29 -4.27,-2.33 -4.27,-4.66 v 0 m -227.71,-2779.432 -7.4,81.403 c -1.4,15.898 -14,28.699 -29.9,30.5 l -62.1,6.898 62.1,6.801 c 15.9,1.801 28.5,14.601 29.9,30.601 l 7.4,81.297 7.3,-81.297 c 1.4,-16 14,-28.8 29.9,-30.601 l 62.1,-6.801 -62.1,-6.898 c -15.9,-1.801 -28.5,-14.602 -29.9,-30.5 l -7.3,-81.403 m 1358.65,494.702 -3.1,34.3 c -0.9,10.4 -9.2,18.8 -19.5,19.9 l -25.5,2.8 25.5,2.8 c 10.3,1.2 18.6,9.6 19.5,20 l 3.1,34.3 3.1,-34.3 c 0.9,-10.4 9.2,-18.8 19.5,-20 l 25.5,-2.8 -25.5,-2.8 c -10.3,-1.1 -18.6,-9.5 -19.5,-19.9 l -3.1,-34.3 m 273.81,374.05 -8.06,88.66 c -1.52,17.32 -15.25,31.26 -32.57,33.22 l -67.64,7.52 67.64,7.4 c 17.32,1.96 31.05,15.91 32.57,33.33 l 8.06,88.55 7.95,-88.55 c 1.53,-17.42 15.25,-31.37 32.57,-33.33 l 67.64,-7.4 -67.64,-7.52 c -17.32,-1.96 -31.04,-15.9 -32.57,-33.22 l -7.95,-88.66 m -406.91,602.17 c 7.8,14.24 14.91,26.54 21.17,36.42 5.35,8.46 12.59,17.44 21.38,26.79 -19.87,-22.28 -31.88,-44.42 -41.47,-61.26 -0.32,-0.57 -0.68,-1.22 -1.08,-1.95 m -2169.27,391.97 -7.39,81.4 c -1.4,15.9 -14.01,28.7 -29.9,30.5 l -62.102,6.9 62.102,6.8 c 15.89,1.8 28.5,14.6 29.9,30.6 l 7.39,81.3 7.31,-81.3 c 1.4,-16 13.99,-28.8 29.89,-30.6 l 62.1,-6.8 -62.1,-6.9 c -15.9,-1.8 -28.49,-14.6 -29.89,-30.5 l -7.31,-81.4 m 308.78,568.76 -3.09,34.3 c -0.9,10.4 -9.2,18.8 -19.5,19.9 l -25.5,2.8 25.5,2.8 c 10.3,1.2 18.6,9.6 19.5,20 l 3.09,34.3 3.11,-34.3 c 0.9,-10.4 9.2,-18.8 19.5,-20 l 25.49,-2.8 -25.49,-2.8 c -10.3,-1.1 -18.6,-9.5 -19.5,-19.9 l -3.11,-34.3 m 1007.15,232.42 -7.19,79.04 c -1.36,15.44 -13.6,27.87 -29.04,29.62 l -60.3,6.7 60.3,6.61 c 15.44,1.74 27.68,14.17 29.04,29.71 l 7.19,78.95 7.08,-78.95 c 1.36,-15.54 13.6,-27.97 29.04,-29.71 l 60.3,-6.61 -60.3,-6.7 c -15.44,-1.75 -27.68,-14.18 -29.04,-29.62 l -7.08,-79.04"
         style="fill:#f6e9f6;fill-opacity:1;fill-rule:nonzero;stroke:none"
         id="path12" />
      <path
         d="m 2023.91,844.641 c -15.9,-1.801 -28.5,-14.602 -29.9,-30.5 l -7.3,-81.403 -7.4,81.403 c -1.4,15.898 -14,28.699 -29.9,30.5 l -62.1,6.898 62.1,6.801 c 15.9,1.801 28.5,14.601 29.9,30.601 l 7.4,81.297 7.3,-81.297 c 1.4,-16 14,-28.8 29.9,-30.601 l 62.1,-6.801 -62.1,-6.898 m 107.2,11.699 -106.1,11.699 c -11.3,1.301 -20.3,10.402 -21.3,21.699 l -12.2,135.402 c -0.2,2.5 -2.3,4.4 -4.8,4.4 -2.6,0 -4.7,-1.9 -4.9,-4.4 l -12.2,-135.402 c -1,-11.297 -10,-20.398 -21.3,-21.699 l -106,-11.699 c -2.5,-0.301 -4.4,-2.399 -4.4,-4.801 0,-2.5 1.9,-4.598 4.4,-4.898 l 106,-11.7 c 11.3,-1.3 20.3,-10.402 21.3,-21.703 l 12.2,-135.398 c 0.2,-2.5 2.3,-4.399 4.9,-4.399 2.5,0 4.6,1.899 4.8,4.399 l 12.2,135.398 c 1,11.301 10,20.403 21.3,21.703 l 106.1,11.7 c 2.4,0.3 4.3,2.398 4.3,4.898 0,2.402 -1.9,4.5 -4.3,4.801"
         style="fill:#9a59b3;fill-opacity:1;fill-rule:nonzero;stroke:none"
         id="path14" />
      <path
         d="m 2395.04,3505.47 c -15.44,-1.75 -27.68,-14.18 -29.04,-29.62 l -7.08,-79.04 -7.19,79.04 c -1.36,15.44 -13.6,27.87 -29.04,29.62 l -60.3,6.7 60.3,6.61 c 15.44,1.74 27.68,14.17 29.04,29.71 l 7.19,78.95 7.08,-78.95 c 1.36,-15.54 13.6,-27.97 29.04,-29.71 l 60.3,-6.61 -60.3,-6.7 m 104.1,11.36 -103.03,11.36 c -10.98,1.27 -19.71,10.1 -20.69,21.08 l -11.84,131.48 c -0.2,2.43 -2.24,4.27 -4.66,4.27 -2.53,0 -4.57,-1.84 -4.76,-4.27 l -11.85,-131.48 c -0.97,-10.98 -9.71,-19.81 -20.68,-21.08 l -102.94,-11.36 c -2.43,-0.29 -4.27,-2.33 -4.27,-4.66 0,-2.43 1.84,-4.47 4.27,-4.76 l 102.94,-11.36 c 10.97,-1.26 19.71,-10.1 20.68,-21.07 l 11.85,-131.49 c 0.19,-2.43 2.23,-4.27 4.76,-4.27 2.42,0 4.46,1.84 4.66,4.27 l 11.84,131.49 c 0.98,10.97 9.71,19.81 20.69,21.07 l 103.03,11.36 c 2.33,0.29 4.18,2.33 4.18,4.76 0,2.33 -1.85,4.37 -4.18,4.66"
         style="fill:#9a59b3;fill-opacity:1;fill-rule:nonzero;stroke:none"
         id="path16" />
      <path
         d="m 3659.69,1723.37 c -17.32,-1.96 -31.04,-15.9 -32.57,-33.22 l -7.95,-88.66 -8.06,88.66 c -1.52,17.32 -15.25,31.26 -32.57,33.22 l -67.64,7.52 67.64,7.4 c 17.32,1.96 31.05,15.91 32.57,33.33 l 8.06,88.55 7.95,-88.55 c 1.53,-17.42 15.25,-31.37 32.57,-33.33 l 67.64,-7.4 -67.64,-7.52 m 116.76,12.75 -115.56,12.74 c -12.31,1.41 -22.11,11.33 -23.2,23.63 l -13.29,147.48 c -0.22,2.72 -2.51,4.79 -5.23,4.79 -2.83,0 -5.12,-2.07 -5.34,-4.79 l -13.29,-147.48 c -1.09,-12.3 -10.89,-22.22 -23.19,-23.63 l -115.46,-12.74 c -2.72,-0.33 -4.79,-2.62 -4.79,-5.23 0,-2.73 2.07,-5.01 4.79,-5.34 l 115.46,-12.74 c 12.3,-1.42 22.1,-11.33 23.19,-23.64 l 13.29,-147.47 c 0.22,-2.73 2.51,-4.8 5.34,-4.8 2.72,0 5.01,2.07 5.23,4.8 l 13.29,147.47 c 1.09,12.31 10.89,22.22 23.2,23.64 l 115.56,12.74 c 2.61,0.33 4.68,2.61 4.68,5.34 0,2.61 -2.07,4.9 -4.68,5.23"
         style="fill:#9a59b3;fill-opacity:1;fill-rule:nonzero;stroke:none"
         id="path18" />
      <path
         d="m 1080.19,2707.53 c -15.9,-1.8 -28.49,-14.6 -29.89,-30.5 l -7.31,-81.4 -7.39,81.4 c -1.4,15.9 -14.01,28.7 -29.9,30.5 l -62.102,6.9 62.102,6.8 c 15.89,1.8 28.5,14.6 29.9,30.6 l 7.39,81.3 7.31,-81.3 c 1.4,-16 13.99,-28.8 29.89,-30.6 l 62.1,-6.8 -62.1,-6.9 m 107.2,11.7 -106.09,11.71 c -11.31,1.29 -20.3,10.39 -21.31,21.69 l -12.2,135.4 c -0.19,2.5 -2.29,4.4 -4.8,4.4 -2.59,0 -4.7,-1.9 -4.89,-4.4 l -12.21,-135.4 c -1,-11.3 -10,-20.4 -21.29,-21.69 l -106.002,-11.71 c -2.5,-0.3 -4.403,-2.4 -4.403,-4.8 0,-2.5 1.903,-4.6 4.403,-4.9 l 106.002,-11.7 c 11.29,-1.3 20.29,-10.4 21.29,-21.7 l 12.21,-135.4 c 0.19,-2.5 2.3,-4.4 4.89,-4.4 2.51,0 4.61,1.9 4.8,4.4 l 12.2,135.4 c 1.01,11.3 10,20.4 21.31,21.7 l 106.09,11.7 c 2.4,0.3 4.3,2.4 4.3,4.9 0,2.4 -1.9,4.5 -4.3,4.8"
         style="fill:#9a59b3;fill-opacity:1;fill-rule:nonzero;stroke:none"
         id="path20" />
      <path
         d="m 3367.96,1281.64 c -10.3,-1.1 -18.6,-9.5 -19.5,-19.9 l -3.1,-34.3 -3.1,34.3 c -0.9,10.4 -9.2,18.8 -19.5,19.9 l -25.5,2.8 25.5,2.8 c 10.3,1.2 18.6,9.6 19.5,20 l 3.1,34.3 3.1,-34.3 c 0.9,-10.4 9.2,-18.8 19.5,-20 l 25.5,-2.8 -25.5,-2.8 m 65.9,7.2 -64.9,7.2 c -6.2,0.7 -11.2,5.7 -11.8,12 l -7.4,82.8 c -0.2,2.3 -2.1,4 -4.4,4 -2.3,0 -4.2,-1.7 -4.4,-4 l -7.4,-82.8 c -0.6,-6.3 -5.6,-11.3 -11.8,-12 l -64.9,-7.2 c -2.2,-0.3 -3.9,-2.1 -3.9,-4.4 0,-2.2 1.7,-4.1 3.9,-4.3 l 64.9,-7.2 c 6.2,-0.7 11.2,-5.8 11.8,-12 l 7.4,-82.8 c 0.2,-2.3 2.1,-4 4.4,-4 2.3,0 4.2,1.7 4.4,4 l 7.4,82.8 c 0.6,6.2 5.6,11.3 11.8,12 l 64.9,7.2 c 2.3,0.2 3.9,2.1 3.9,4.3 0,2.3 -1.6,4.1 -3.9,4.4"
         style="fill:#9a59b3;fill-opacity:1;fill-rule:nonzero;stroke:none"
         id="path22" />
      <path
         d="m 1374.38,3218.59 c -10.3,-1.1 -18.6,-9.5 -19.5,-19.9 l -3.11,-34.3 -3.09,34.3 c -0.9,10.4 -9.2,18.8 -19.5,19.9 l -25.5,2.8 25.5,2.8 c 10.3,1.2 18.6,9.6 19.5,20 l 3.09,34.3 3.11,-34.3 c 0.9,-10.4 9.2,-18.8 19.5,-20 l 25.49,-2.8 -25.49,-2.8 m 65.89,7.2 -64.89,7.2 c -6.2,0.7 -11.21,5.7 -11.8,12 l -7.4,82.8 c -0.2,2.3 -2.1,4 -4.41,4 -2.29,0 -4.2,-1.7 -4.39,-4 l -7.41,-82.8 c -0.6,-6.3 -5.6,-11.3 -11.8,-12 l -64.89,-7.2 c -2.2,-0.3 -3.9,-2.1 -3.9,-4.4 0,-2.2 1.7,-4.1 3.9,-4.3 l 64.89,-7.2 c 6.2,-0.7 11.2,-5.8 11.8,-12 l 7.41,-82.8 c 0.19,-2.3 2.1,-4 4.39,-4 2.31,0 4.21,1.7 4.41,4 l 7.4,82.8 c 0.59,6.2 5.6,11.3 11.8,12 l 64.89,7.2 c 2.3,0.2 3.91,2.1 3.91,4.3 0,2.3 -1.61,4.1 -3.91,4.4"
         style="fill:#9a59b3;fill-opacity:1;fill-rule:nonzero;stroke:none"
         id="path24" />
      <path
         d="m 1986.71,673.441 c -2.6,0 -4.7,1.899 -4.9,4.399 l -12.2,135.398 c -1,11.301 -10,20.403 -21.3,21.703 l -106,11.7 c -2.5,0.3 -4.4,2.398 -4.4,4.898 0,2.402 1.9,4.5 4.4,4.801 l 106,11.699 c 11.3,1.301 20.3,10.402 21.3,21.699 l 12.2,135.402 c 0.2,2.5 2.3,4.4 4.9,4.4 2.5,0 4.6,-1.9 4.8,-4.4 l 12.2,-135.402 c 1,-11.297 10,-20.398 21.3,-21.699 l 106.1,-11.699 c 2.4,-0.301 4.3,-2.399 4.3,-4.801 0,-2.5 -1.9,-4.598 -4.3,-4.898 l -106.1,-11.7 c -11.3,-1.3 -20.3,-10.402 -21.3,-21.703 l -12.2,-135.398 c -0.2,-2.5 -2.3,-4.399 -4.8,-4.399 m -99.4,178.098 v 0 l 62.1,-6.898 c 15.9,-1.801 28.5,-14.602 29.9,-30.5 l 7.4,-81.403 7.3,81.403 c 1.4,15.898 14,28.699 29.9,30.5 l 62.1,6.898 -62.1,6.801 c -15.9,1.801 -28.5,14.601 -29.9,30.601 l -7.3,81.297 -7.4,-81.297 c -1.4,-16 -14,-28.8 -29.9,-30.601 l -62.1,-6.801"
         style="fill:#e5c1e4;fill-opacity:1;fill-rule:nonzero;stroke:none"
         id="path26" />
      <path
         d="m 2358.92,3339.22 c -2.53,0 -4.57,1.84 -4.76,4.27 l -11.85,131.49 c -0.97,10.97 -9.71,19.81 -20.68,21.07 l -102.94,11.36 c -2.43,0.29 -4.27,2.33 -4.27,4.76 0,2.33 1.84,4.37 4.27,4.66 l 102.94,11.36 c 10.97,1.27 19.71,10.1 20.68,21.08 l 11.85,131.48 c 0.19,2.43 2.23,4.27 4.76,4.27 2.42,0 4.46,-1.84 4.66,-4.27 l 11.84,-131.48 c 0.98,-10.98 9.71,-19.81 20.69,-21.08 l 103.03,-11.36 c 2.33,-0.29 4.18,-2.33 4.18,-4.66 0,-2.43 -1.85,-4.47 -4.18,-4.76 l -103.03,-11.36 c -10.98,-1.26 -19.71,-10.1 -20.69,-21.07 l -11.84,-131.49 c -0.2,-2.43 -2.24,-4.27 -4.66,-4.27 m -96.53,172.95 v 0 l 60.3,-6.7 c 15.44,-1.75 27.68,-14.18 29.04,-29.62 l 7.19,-79.04 7.08,79.04 c 1.36,15.44 13.6,27.87 29.04,29.62 l 60.3,6.7 -60.3,6.61 c -15.44,1.74 -27.68,14.17 -29.04,29.71 l -7.08,78.95 -7.19,-78.95 c -1.36,-15.54 -13.6,-27.97 -29.04,-29.71 l -60.3,-6.61"
         style="fill:#e5c1e4;fill-opacity:1;fill-rule:nonzero;stroke:none"
         id="path28" />
      <path
         d="m 3619.17,1536.9 c -2.83,0 -5.12,2.07 -5.34,4.8 l -13.29,147.47 c -1.09,12.31 -10.89,22.22 -23.19,23.64 l -115.46,12.74 c -2.72,0.33 -4.79,2.61 -4.79,5.34 0,2.61 2.07,4.9 4.79,5.23 l 115.46,12.74 c 12.3,1.41 22.1,11.33 23.19,23.63 l 13.29,147.48 c 0.22,2.72 2.51,4.79 5.34,4.79 2.72,0 5.01,-2.07 5.23,-4.79 l 13.29,-147.48 c 1.09,-12.3 10.89,-22.22 23.2,-23.63 l 115.56,-12.74 c 2.61,-0.33 4.68,-2.62 4.68,-5.23 0,-2.73 -2.07,-5.01 -4.68,-5.34 l -115.56,-12.74 c -12.31,-1.42 -22.11,-11.33 -23.2,-23.64 L 3624.4,1541.7 c -0.22,-2.73 -2.51,-4.8 -5.23,-4.8 m -108.27,193.99 v 0 l 67.64,-7.52 c 17.32,-1.96 31.05,-15.9 32.57,-33.22 l 8.06,-88.66 7.95,88.66 c 1.53,17.32 15.25,31.26 32.57,33.22 l 67.64,7.52 -67.64,7.4 c -17.32,1.96 -31.04,15.91 -32.57,33.33 l -7.95,88.55 -8.06,-88.55 c -1.52,-17.42 -15.25,-31.37 -32.57,-33.33 l -67.64,-7.4"
         style="fill:#e5c1e4;fill-opacity:1;fill-rule:nonzero;stroke:none"
         id="path30" />
      <path
         d="m 1042.99,2536.33 c -2.59,0 -4.7,1.9 -4.89,4.4 l -12.21,135.4 c -1,11.3 -10,20.4 -21.29,21.7 l -106.002,11.7 c -2.5,0.3 -4.403,2.4 -4.403,4.9 0,2.4 1.903,4.5 4.403,4.8 l 106.002,11.71 c 11.29,1.29 20.29,10.39 21.29,21.69 l 12.21,135.4 c 0.19,2.5 2.3,4.4 4.89,4.4 2.51,0 4.61,-1.9 4.8,-4.4 l 12.2,-135.4 c 1.01,-11.3 10,-20.4 21.31,-21.69 l 106.09,-11.71 c 2.4,-0.3 4.3,-2.4 4.3,-4.8 0,-2.5 -1.9,-4.6 -4.3,-4.9 l -106.09,-11.7 c -11.31,-1.3 -20.3,-10.4 -21.31,-21.7 l -12.2,-135.4 c -0.19,-2.5 -2.29,-4.4 -4.8,-4.4 m -99.392,178.1 v 0 l 62.102,-6.9 c 15.89,-1.8 28.5,-14.6 29.9,-30.5 l 7.39,-81.4 7.31,81.4 c 1.4,15.9 13.99,28.7 29.89,30.5 l 62.1,6.9 -62.1,6.8 c -15.9,1.8 -28.49,14.6 -29.89,30.6 l -7.31,81.3 -7.39,-81.3 c -1.4,-16 -14.01,-28.8 -29.9,-30.6 l -62.102,-6.8"
         style="fill:#e5c1e4;fill-opacity:1;fill-rule:nonzero;stroke:none"
         id="path32" />
      <path
         d="m 3345.36,1174.14 c -2.3,0 -4.2,1.7 -4.4,4 l -7.4,82.8 c -0.6,6.2 -5.6,11.3 -11.8,12 l -64.9,7.2 c -2.2,0.2 -3.9,2.1 -3.9,4.3 0,2.3 1.7,4.1 3.9,4.4 l 64.9,7.2 c 6.2,0.7 11.2,5.7 11.8,12 l 7.4,82.8 c 0.2,2.3 2.1,4 4.4,4 2.3,0 4.2,-1.7 4.4,-4 l 7.4,-82.8 c 0.6,-6.3 5.6,-11.3 11.8,-12 l 64.9,-7.2 c 2.3,-0.3 3.9,-2.1 3.9,-4.4 0,-2.2 -1.6,-4.1 -3.9,-4.3 l -64.9,-7.2 c -6.2,-0.7 -11.2,-5.8 -11.8,-12 l -7.4,-82.8 c -0.2,-2.3 -2.1,-4 -4.4,-4 m -48.1,110.3 v 0 l 25.5,-2.8 c 10.3,-1.1 18.6,-9.5 19.5,-19.9 l 3.1,-34.3 3.1,34.3 c 0.9,10.4 9.2,18.8 19.5,19.9 l 25.5,2.8 -25.5,2.8 c -10.3,1.2 -18.6,9.6 -19.5,20 l -3.1,34.3 -3.1,-34.3 c -0.9,-10.4 -9.2,-18.8 -19.5,-20 l -25.5,-2.8"
         style="fill:#e5c1e4;fill-opacity:1;fill-rule:nonzero;stroke:none"
         id="path34" />
      <path
         d="m 1351.77,3111.09 c -2.29,0 -4.2,1.7 -4.39,4 l -7.41,82.8 c -0.6,6.2 -5.6,11.3 -11.8,12 l -64.89,7.2 c -2.2,0.2 -3.9,2.1 -3.9,4.3 0,2.3 1.7,4.1 3.9,4.4 l 64.89,7.2 c 6.2,0.7 11.2,5.7 11.8,12 l 7.41,82.8 c 0.19,2.3 2.1,4 4.39,4 2.31,0 4.21,-1.7 4.41,-4 l 7.4,-82.8 c 0.59,-6.3 5.6,-11.3 11.8,-12 l 64.89,-7.2 c 2.3,-0.3 3.91,-2.1 3.91,-4.4 0,-2.2 -1.61,-4.1 -3.91,-4.3 l -64.89,-7.2 c -6.2,-0.7 -11.21,-5.8 -11.8,-12 l -7.4,-82.8 c -0.2,-2.3 -2.1,-4 -4.41,-4 m -48.09,110.3 v 0 l 25.5,-2.8 c 10.3,-1.1 18.6,-9.5 19.5,-19.9 l 3.09,-34.3 3.11,34.3 c 0.9,10.4 9.2,18.8 19.5,19.9 l 25.49,2.8 -25.49,2.8 c -10.3,1.2 -18.6,9.6 -19.5,20 l -3.11,34.3 -3.09,-34.3 c -0.9,-10.4 -9.2,-18.8 -19.5,-20 l -25.5,-2.8"
         style="fill:#e5c1e4;fill-opacity:1;fill-rule:nonzero;stroke:none"
         id="path36" />
      <path
         d="m 2264.23,4252.37 c -8.28,0 -15,6.72 -15,15 v 246.1 c 0,8.29 6.72,15 15,15 8.29,0 15,-6.71 15,-15 v -246.1 c 0,-8.28 -6.71,-15 -15,-15"
         style="fill:#9a59b3;fill-opacity:1;fill-rule:nonzero;stroke:none"
         id="path38" />
      <path
         d="m 3265.79,3984 c -2.55,0 -5.13,0.65 -7.49,2.02 -7.18,4.14 -9.63,13.31 -5.49,20.48 l 123.05,213.13 c 4.14,7.19 13.33,9.63 20.49,5.49 7.18,-4.14 9.63,-13.32 5.49,-20.49 L 3278.78,3991.5 c -2.77,-4.81 -7.82,-7.5 -12.99,-7.5"
         style="fill:#9a59b3;fill-opacity:1;fill-rule:nonzero;stroke:none"
         id="path40" />
      <path
         d="m 3999.01,3250.8 c -5.18,0 -10.23,2.69 -13,7.5 -4.14,7.18 -1.69,16.35 5.49,20.49 l 213.12,123.05 c 7.17,4.14 16.35,1.7 20.49,-5.49 4.14,-7.17 1.69,-16.35 -5.49,-20.49 L 4006.5,3252.82 c -2.36,-1.37 -4.94,-2.02 -7.49,-2.02"
         style="fill:#9a59b3;fill-opacity:1;fill-rule:nonzero;stroke:none"
         id="path42" />
      <path
         d="m 4513.46,2249.24 h -246.09 c -8.28,0 -15,6.71 -15,15 0,8.28 6.72,15 15,15 h 246.09 c 8.28,0 15,-6.72 15,-15 0,-8.29 -6.72,-15 -15,-15"
         style="fill:#9a59b3;fill-opacity:1;fill-rule:nonzero;stroke:none"
         id="path44" />
      <path
         d="m 4212.11,1124.62 c -2.54,0 -5.12,0.65 -7.49,2.01 l -213.12,123.05 c -7.18,4.14 -9.63,13.32 -5.49,20.49 4.14,7.18 13.33,9.63 20.49,5.49 l 213.12,-123.05 c 7.18,-4.14 9.63,-13.31 5.49,-20.49 -2.77,-4.81 -7.82,-7.5 -13,-7.5"
         style="fill:#9a59b3;fill-opacity:1;fill-rule:nonzero;stroke:none"
         id="path46" />
      <path
         d="m 3388.86,301.34 c -5.17,0 -10.22,2.691 -13,7.512 l -123.05,213.117 c -4.14,7.172 -1.69,16.351 5.49,20.492 7.15,4.148 16.34,1.699 20.48,-5.492 l 123.06,-213.117 c 4.14,-7.18 1.69,-16.352 -5.49,-20.493 -2.36,-1.371 -4.94,-2.019 -7.49,-2.019"
         style="fill:#9a59b3;fill-opacity:1;fill-rule:nonzero;stroke:none"
         id="path48" />
      <path
         d="m 2264.23,0 c -8.28,0 -15,6.71875 -15,15 v 246.102 c 0,8.289 6.72,15 15,15 8.29,0 15,-6.711 15,-15 V 15 c 0,-8.28125 -6.71,-15 -15,-15"
         style="fill:#9a59b3;fill-opacity:1;fill-rule:nonzero;stroke:none"
         id="path50" />
      <path
         d="m 1139.6,301.34 c -2.54,0 -5.12,0.648 -7.48,2.019 -7.17,4.141 -9.64,13.313 -5.49,20.493 l 123.05,213.117 c 4.14,7.172 13.32,9.64 20.49,5.492 7.17,-4.141 9.63,-13.32 5.48,-20.492 L 1152.61,308.852 c -2.78,-4.813 -7.82,-7.512 -13.01,-7.512"
         style="fill:#9a59b3;fill-opacity:1;fill-rule:nonzero;stroke:none"
         id="path52" />
      <path
         d="m 316.355,1124.62 c -5.183,0 -10.222,2.69 -13,7.5 -4.144,7.18 -1.683,16.35 5.489,20.49 l 213.125,123.05 c 7.187,4.14 16.347,1.68 20.488,-5.49 4.145,-7.17 1.684,-16.35 -5.488,-20.49 L 323.844,1126.63 c -2.364,-1.36 -4.942,-2.01 -7.489,-2.01"
         style="fill:#9a59b3;fill-opacity:1;fill-rule:nonzero;stroke:none"
         id="path54" />
      <path
         d="M 261.098,2249.24 H 15 c -8.28516,0 -15,6.71 -15,15 0,8.28 6.71484,15 15,15 h 246.098 c 8.285,0 15,-6.72 15,-15 0,-8.29 -6.715,-15 -15,-15"
         style="fill:#9a59b3;fill-opacity:1;fill-rule:nonzero;stroke:none"
         id="path56" />
      <path
         d="m 529.453,3250.8 c -2.543,0 -5.121,0.65 -7.484,2.02 l -213.125,123.04 c -7.172,4.14 -9.633,13.32 -5.489,20.49 4.145,7.17 13.321,9.64 20.489,5.49 l 213.125,-123.05 c 7.172,-4.14 9.633,-13.31 5.488,-20.49 -2.781,-4.8 -7.82,-7.5 -13.004,-7.5"
         style="fill:#9a59b3;fill-opacity:1;fill-rule:nonzero;stroke:none"
         id="path58" />
      <path
         d="m 1262.68,3984 c -5.19,0 -10.22,2.69 -13,7.5 l -123.05,213.13 c -4.15,7.17 -1.68,16.35 5.49,20.49 7.19,4.14 16.35,1.68 20.49,-5.49 l 123.04,-213.13 c 4.15,-7.17 1.69,-16.34 -5.48,-20.48 -2.37,-1.37 -4.95,-2.02 -7.49,-2.02"
         style="fill:#9a59b3;fill-opacity:1;fill-rule:nonzero;stroke:none"
         id="path60" />
      <path
         d="m 3337.89,3362.43 -124.75,217.99 467.99,271.74 0.43,0.24 0.52,0.3 0.02,-0.02 c 78.45,44.87 186.58,38.18 306.01,-30.78 239.6,-138.33 433.84,-474.76 433.84,-751.44 0,-138.61 -48.77,-235.91 -127.56,-281.12 l 0.01,-0.02 -471.81,-273.91 -128.15,223.96 c -183.65,141.58 -328.21,393.7 -356.55,623.06"
         style="fill:#3c515c;fill-opacity:1;fill-rule:nonzero;stroke:none"
         id="path62" />
      <path
         d="m 3517.04,3548.41 c 239.61,-138.33 433.84,-474.76 433.84,-751.43 0,-276.67 -194.23,-388.82 -433.83,-250.48 -239.6,138.33 -433.84,474.76 -433.84,751.44 0,276.67 194.23,388.81 433.83,250.47"
         style="fill:#1f2a31;fill-opacity:1;fill-rule:nonzero;stroke:none"
         id="path64" />
      <path
         d="m 4021.82,2836.54 c 0,-43 22.64,-64.79 50.57,-48.67 27.93,16.13 50.57,64.06 50.57,107.06 0,43 -22.64,64.79 -50.57,48.66 -27.93,-16.12 -50.57,-64.05 -50.57,-107.05"
         style="fill:#1f2a31;fill-opacity:1;fill-rule:nonzero;stroke:none"
         id="path66" />
      <path
         d="m 4225.08,2939.58 c 0,-43 22.64,-64.78 50.57,-48.66 27.93,16.12 50.57,64.06 50.57,107.06 0,43 -22.64,64.79 -50.57,48.66 -27.93,-16.13 -50.57,-64.06 -50.57,-107.06"
         style="fill:#1f2a31;fill-opacity:1;fill-rule:nonzero;stroke:none"
         id="path68" />
      <path
         d="m 4038.29,2832.03 c 0,-43 22.64,-64.78 50.57,-48.66 27.93,16.13 50.57,64.06 50.57,107.06 0,43 -22.64,64.79 -50.57,48.66 -27.93,-16.12 -50.57,-64.06 -50.57,-107.06"
         style="fill:#9a59b3;fill-opacity:1;fill-rule:nonzero;stroke:none"
         id="path70" />
      <path
         d="m 4241.55,2935.08 c 0,-43 22.64,-64.79 50.57,-48.66 27.93,16.12 50.57,64.06 50.57,107.06 0,43 -22.64,64.78 -50.57,48.66 -27.93,-16.13 -50.57,-64.06 -50.57,-107.06"
         style="fill:#9a59b3;fill-opacity:1;fill-rule:nonzero;stroke:none"
         id="path72" />
      <path
         d="m 3246.08,3370.44 c 227.05,-131.08 411.11,-449.89 411.11,-712.07 0,-262.18 -184.06,-368.45 -411.11,-237.36 -227.05,131.09 -411.11,449.89 -411.11,712.07 0,262.18 184.06,368.45 411.11,237.36"
         style="fill:#d9dad7;fill-opacity:1;fill-rule:nonzero;stroke:none"
         id="path74" />
      <path
         d="m 843.605,2068.41 c 274.485,134.92 589.865,323.12 714.535,392.3 151.73,84.2 326.54,231.73 418.84,251.31 l 216.5,-388.12 808.34,-219.94 -1226.18,-628.38 -71.21,-49.86 c -153.31,-107.65 -272.55,-202.76 -431.46,-330.2 l -429.365,972.89"
         style="fill:#f9a796;fill-opacity:1;fill-rule:nonzero;stroke:none"
         id="path76" />
      <path
         d="m 1832.42,1912.41 c 137.14,-57.64 228.52,2.58 228.52,2.58 0,0 -48.92,-200.1 -195.14,-352.1 -40.11,-41.71 -23.21,-45.72 22.34,-29.66 l 441.89,226.46 92.26,419.11 -228.81,145.1 c -2.93,-19.35 -33.15,-53.02 -33.15,-53.02 -19.68,-130.4 -68.13,-258.45 -68.13,-258.45 0,0 -106.09,-122.36 -259.78,-100.02"
         style="fill:#f2846b;fill-opacity:1;fill-rule:nonzero;stroke:none"
         id="path78" />
      <path
         d="m 3653.33,2528.38 c 0,0 -353.8,-183.9 -419.9,-288.3 -66.1,-104.4 -226.8,-478.1 -306.9,-558.2 -80,-80 -262.4,-244.8 -356.7,-305.1 -98.8,-63.1 -137.6,-75.7 -223.6,-55.2 -48.7,-24.5 -170.5,-55.7 -208.8,8.6 -59.2,-43.6 -189.8,-39.5 -221.1,19.7 -48.8,-27.8 -195.2,-4.41 -211.9,75.79 l 71.2,49.91 c 84.7,80.8 191.8,183.1 232,254.1 92.6,152.5 168.1,426.9 185.8,594.2 l -216.5,388.1 c -5.5,-1.2 -11.3,-2.8 -17.4,-4.9 -2.8,-1 -5.7,-2 -8.6,-3.1 -76,-29 -189.9,-115.5 -302.5,-188.4 43.4,59.4 100.4,138.1 161.1,216.3 147.6,190.1 187.1,200.2 437.4,271.8 309.2,88.4 422.3,149.5 491.8,178.6 120.1,50.3 440.5,290.6 440.5,290.6 l 474.1,-944.5"
         style="fill:#a85361;fill-opacity:1;fill-rule:nonzero;stroke:none"
         id="path80" />
      <path
         d="m 3091.04,3215.74 c 0,-255.49 155.34,-552.29 346.95,-662.92 191.62,-110.63 346.96,6.8 346.96,262.29 0,255.49 -155.34,552.29 -346.96,662.91 -191.61,110.64 -346.95,-6.8 -346.95,-262.28"
         style="fill:#a85361;fill-opacity:1;fill-rule:nonzero;stroke:none"
         id="path82" />
      <path
         d="m 2268.9,1786.94 c -131.43,-234.47 -323.73,-394.33 -437.56,-406.89 -84.97,-9.38 -126.91,45.67 -126.91,45.67 16.78,-80.17 163.17,-103.66 211.88,-75.83 63.36,13.84 256.67,199.92 352.59,437.05"
         style="fill:#8f3b48;fill-opacity:1;fill-rule:nonzero;stroke:none"
         id="path84" />
      <path
         d="m 2470.06,1740.31 c -75.94,-135.88 -264,-327.39 -371.13,-381.63 -62.51,-31.65 -145.27,-34.9 -182.62,-8.79 31.32,-59.15 162.01,-63.27 221.16,-19.71 152.16,114.34 257.98,252.93 332.59,410.13"
         style="fill:#8f3b48;fill-opacity:1;fill-rule:nonzero;stroke:none"
         id="path86" />
      <path
         d="m 2675.21,1688.06 c -94.58,-130.26 -239.87,-271.21 -347.03,-330.08 -107.16,-58.87 -169.74,-39.72 -190.71,-27.8 38.27,-64.29 160.05,-32.98 208.76,-8.62 37.52,17.9 254.38,204.28 328.98,366.5"
         style="fill:#8f3b48;fill-opacity:1;fill-rule:nonzero;stroke:none"
         id="path88" />
      <path
         d="m 695.992,1774.96 c 0,-255.49 155.336,-552.29 346.958,-662.92 191.61,-110.63 346.95,6.8 346.95,262.29 0,255.49 -155.34,552.29 -346.95,662.92 -191.622,110.63 -346.958,-6.8 -346.958,-262.29"
         style="fill:#f2846b;fill-opacity:1;fill-rule:nonzero;stroke:none"
         id="path90" />
      <path
         d="m 2665.66,1414.68 c -60.91,31.95 -86.36,94.41 -44.4,158.86 41.97,64.45 118.41,59.95 169.37,31.47 -37.47,62.95 -32.97,121.4 8.99,169.37 41.97,47.96 130.4,50.6 182.85,12.56 -58.45,71.37 -73.44,123.83 -40.46,189.77 32.97,65.95 123.4,80.39 185.85,38.97 78.7,-52.2 91.42,-103.42 61.45,-167.86 -29.98,-64.45 -94.43,-113.91 -166.37,-85.43 31.48,-59.96 19.49,-110.92 -14.99,-151.38 -34.47,-40.47 -105.44,-91.97 -169.89,-51.34 11.99,-46.31 -2.01,-84.81 -31.98,-119.28 -29.98,-34.47 -80.1,-57.35 -140.42,-25.71"
         style="fill:#f9a796;fill-opacity:1;fill-rule:nonzero;stroke:none"
         id="path92" />
      <path
         d="m 3343.7,1967.79 c -48.4,-1.58 -149.84,28.5 -219.67,62.08 0,0 76.26,152.81 89.31,175.74 13.05,22.93 30.6,55.68 66.36,85.24 l 124.23,-71.81 -60.23,-251.25"
         style="fill:#f2846b;fill-opacity:1;fill-rule:nonzero;stroke:none"
         id="path94" />
      <path
         d="m 3452.07,2091.49 c -12.53,-104.08 -60.81,-132.73 -139.94,-121.43 -35.71,5.1 -109.11,56.18 -107.92,146.96 0.87,67.08 71.49,131.88 142.1,122.17 68.02,-9.35 117.67,-48.75 105.76,-147.7"
         style="fill:#f9a796;fill-opacity:1;fill-rule:nonzero;stroke:none"
         id="path96" />
      <path
         d="m 3079.88,1801.87 c -14.4,0 -29.82,3.7 -45.72,12.16 2.78,-1.48 5.54,-2.8 8.28,-3.99 17.22,52.81 71.71,118.88 109.86,135.85 -2.49,2.91 -5.16,5.75 -8.21,8.41 0,0 -0.01,0 0,0 58.67,-51.14 11.15,-152.43 -64.21,-152.43 m -45.73,12.17 c -0.09,0.04 -0.18,0.09 -0.26,0.14 0.08,-0.05 0.17,-0.1 0.26,-0.14 m -0.29,0.15 c -0.07,0.04 -0.16,0.09 -0.24,0.13 0.08,-0.04 0.16,-0.09 0.24,-0.13 m -0.32,0.17 c -0.08,0.05 -0.17,0.09 -0.24,0.14 0.08,-0.05 0.16,-0.09 0.24,-0.14"
         style="fill:#fab6aa;fill-opacity:1;fill-rule:nonzero;stroke:none"
         id="path98" />
      <path
         d="m 3034.16,1814.03 -0.01,0.01 c 0,-0.01 0.01,-0.01 0.01,-0.01 m -0.27,0.15 c -0.01,0 -0.02,0.01 -0.03,0.01 0.02,-0.01 0.02,-0.01 0.03,-0.01 m -0.27,0.14 c -0.02,0.01 -0.05,0.03 -0.08,0.04 0.03,-0.01 0.05,-0.03 0.08,-0.04 m -0.32,0.18 c 13.12,56.95 62.96,121.53 110.79,139.8 v 0 c -47.83,-18.28 -97.67,-82.86 -110.79,-139.8"
         style="fill:#fabfb4;fill-opacity:1;fill-rule:nonzero;stroke:none"
         id="path100" />
      <path
         d="m 3042.44,1810.04 c -2.74,1.19 -5.5,2.51 -8.28,3.99 0,0 -0.01,0 -0.01,0.01 -0.09,0.04 -0.18,0.09 -0.26,0.14 -0.01,0 -0.01,0 -0.03,0.01 -0.08,0.04 -0.16,0.09 -0.24,0.13 -0.03,0.01 -0.05,0.03 -0.08,0.04 -0.08,0.05 -0.16,0.09 -0.24,0.14 v 0 0 c 13.12,56.94 62.96,121.52 110.79,139.8 3.05,-2.66 5.72,-5.5 8.21,-8.41 -38.15,-16.97 -92.64,-83.04 -109.86,-135.85"
         style="fill:#fbcbc1;fill-opacity:1;fill-rule:nonzero;stroke:none"
         id="path102" />
      <path
         d="m 3314.19,2029.97 c -4.77,0 -9.71,0.32 -14.83,0.99 -0.27,1.92 -0.51,3.86 -0.71,5.83 0.2,-1.97 0.44,-3.91 0.71,-5.83 3.46,-0.45 6.84,-0.74 10.14,-0.89 -2.86,55.49 24.3,136.69 53.83,166.22 -3.18,1.72 -6.47,3.32 -10.03,4.67 82.59,-30.94 60.32,-170.99 -39.11,-170.99"
         style="fill:#fab6aa;fill-opacity:1;fill-rule:nonzero;stroke:none"
         id="path104" />
      <path
         d="m 3298.65,2036.79 c -5.89,57.18 17.17,131.33 54,164.41 0.22,-0.08 0.44,-0.16 0.65,-0.24 -0.21,0.08 -0.43,0.16 -0.65,0.24 -36.83,-33.08 -59.89,-107.23 -54,-164.41"
         style="fill:#fabfb4;fill-opacity:1;fill-rule:nonzero;stroke:none"
         id="path106" />
      <path
         d="m 3309.5,2030.07 c -3.3,0.15 -6.68,0.44 -10.14,0.89 -0.27,1.92 -0.51,3.86 -0.71,5.83 -5.89,57.18 17.17,131.33 54,164.41 0.22,-0.08 0.44,-0.16 0.65,-0.24 3.56,-1.35 6.85,-2.95 10.03,-4.67 -29.53,-29.53 -56.69,-110.73 -53.83,-166.22"
         style="fill:#fbcbc1;fill-opacity:1;fill-rule:nonzero;stroke:none"
         id="path108" />
      <path
         d="m 2904.63,1595.9 c -18.54,0 -38.64,6.54 -58.57,22.07 2.75,-2.14 5.5,-4.1 8.25,-5.91 22.35,46.75 81.81,99.12 120.18,108.1 -2.06,3.22 -4.29,6.39 -6.91,9.48 v 0 0 c 46.76,-54.94 1.38,-133.74 -62.95,-133.74"
         style="fill:#fab6aa;fill-opacity:1;fill-rule:nonzero;stroke:none"
         id="path110" />
      <path
         d="m 2846.06,1617.97 c 18.89,51.43 73.74,103.25 121.52,111.67 -47.78,-8.42 -102.63,-60.24 -121.52,-111.67"
         style="fill:#fabfb4;fill-opacity:1;fill-rule:nonzero;stroke:none"
         id="path112" />
      <path
         d="m 2854.31,1612.06 c -2.75,1.81 -5.5,3.77 -8.25,5.91 v 0 0 c 18.89,51.43 73.74,103.25 121.52,111.67 v 0 c 2.62,-3.09 4.85,-6.26 6.91,-9.48 -38.37,-8.98 -97.83,-61.35 -120.18,-108.1"
         style="fill:#fbcbc1;fill-opacity:1;fill-rule:nonzero;stroke:none"
         id="path114" />
      <path
         d="m 2730.48,1431.68 c -14.18,0 -29.63,4.42 -45.44,14.76 2.39,-1.57 4.77,-2.99 7.14,-4.29 15.75,41.12 62.53,89.53 94.42,99.74 -1.96,2.59 -4.07,5.13 -6.5,7.56 -39.89,-10.38 -82.81,-58.01 -95.3,-102.85 v 0 c 12.49,44.84 55.41,92.47 95.3,102.85 44.77,-44.76 8.04,-117.77 -49.62,-117.77 m -45.46,14.77 c -0.07,0.05 -0.15,0.1 -0.22,0.15 0.07,-0.05 0.15,-0.1 0.22,-0.15"
         style="fill:#fab6aa;fill-opacity:1;fill-rule:nonzero;stroke:none"
         id="path116" />
      <path
         d="m 2685.04,1446.44 c -0.01,0 -0.01,0 -0.02,0.01 0.01,-0.01 0.01,-0.01 0.02,-0.01"
         style="fill:#fabfb4;fill-opacity:1;fill-rule:nonzero;stroke:none"
         id="path118" />
      <path
         d="m 2692.18,1442.15 c -2.37,1.3 -4.75,2.72 -7.14,4.29 -0.01,0 -0.01,0 -0.02,0.01 -0.07,0.05 -0.15,0.1 -0.22,0.15 v 0 c 12.49,44.84 55.41,92.47 95.3,102.85 2.43,-2.43 4.54,-4.97 6.5,-7.56 -31.89,-10.21 -78.67,-58.62 -94.42,-99.74"
         style="fill:#fbcbc1;fill-opacity:1;fill-rule:nonzero;stroke:none"
         id="path120" />
      <path
         d="m 3119.19,2020.81 c -61.87,34.76 -145.7,18.88 -177.18,-44.1 -32.98,-65.94 -17.99,-118.4 40.46,-189.77 -52.45,38.04 -140.88,35.4 -182.85,-12.56 -41.96,-47.97 -46.46,-106.42 -8.99,-169.37 -50.96,28.48 -127.4,32.98 -169.37,-31.47 -31.97,-49.11 -24.73,-97.02 7.44,-131.2 -14.76,26.27 -24.72,92.58 30.33,135.98 55.16,43.49 125.33,-7.19 145.88,17.58 20.54,24.77 -22.61,106.72 27.73,161.17 50.34,54.45 131.5,1.03 159.24,19.52 27.73,18.49 -34.93,91.43 -21.58,152.04 13.34,60.53 75.84,107.72 148.89,92.18"
         style="fill:#f2846b;fill-opacity:1;fill-rule:nonzero;stroke:none"
         id="path122" />
      <path
         d="m 2993.9,2436.6 c -11.33,32.45 -54.52,48.41 -152.75,132.71 -95.12,81.65 -170.53,162.53 -269.4,177.15 -46.71,6.9 -172.32,-1.41 -302.85,-11.07 -111.83,-8.27 -249.34,-14.34 -291.92,-23.37 50.88,-133.13 135.48,-264.25 216.5,-388.12 95.09,0 268.12,40.55 358.68,105.9 111.87,-59.9 137.48,-92.7 250.03,-105.94 142.64,-16.78 204.74,75.39 191.71,112.74"
         style="fill:#f9a796;fill-opacity:1;fill-rule:nonzero;stroke:none"
         id="path124" />
      <path
         d="m 2780.22,2513.13 c 0,0 105.29,-66 141.57,-76.53 52.7,-15.3 72.11,0 72.11,0 0,0 3.71,24.08 -70.84,75.25 -74.54,51.17 -87.88,62.63 -87.88,62.63 0,0 -28.18,-5.24 -54.96,-61.35"
         style="fill:#f9a796;fill-opacity:1;fill-rule:nonzero;stroke:none"
         id="path126" />
      <path
         d="m 2963.91,2429.8 c -10.69,0 -24.56,1.7 -42.12,6.8 -33.97,9.86 -128.46,68.36 -140.34,75.76 2.57,-1.6 9,-5.58 17.75,-10.9 40.92,24.54 59.92,40.45 68.38,49.06 12.99,-9.25 30.91,-21.8 55.48,-38.67 67.78,-46.53 70.87,-70.65 70.87,-74.65 0,-0.4 -0.03,-0.6 -0.03,-0.6 0,0 -8.63,-6.8 -29.99,-6.8 m -183.69,83.33 v 0 c 26.78,56.11 54.96,61.35 54.96,61.35 0,0 0.02,-0.02 0.06,-0.06 -0.04,0.04 -0.06,0.06 -0.06,0.06 0,0 -28.18,-5.25 -54.96,-61.35"
         style="fill:#fab6aa;fill-opacity:1;fill-rule:nonzero;stroke:none"
         id="path128" />
      <path
         d="m 2867.58,2550.52 c -24.83,17.69 -31.61,23.29 -32.34,23.9 0.72,-0.6 7.57,-6.25 32.34,-23.9 v 0"
         style="fill:#b8717c;fill-opacity:1;fill-rule:nonzero;stroke:none"
         id="path130" />
      <path
         d="m 2781.45,2512.36 c -0.81,0.5 -1.23,0.77 -1.23,0.77 0,0 0,-0.01 0,0 0.01,-0.01 0.44,-0.28 1.23,-0.77"
         style="fill:#fab6aa;fill-opacity:1;fill-rule:nonzero;stroke:none"
         id="path132" />
      <path
         d="m 2799.2,2501.46 c -8.75,5.32 -15.18,9.3 -17.75,10.9 -0.79,0.49 -1.22,0.76 -1.23,0.77 26.78,56.1 54.96,61.35 54.96,61.35 0,0 0.02,-0.02 0.06,-0.06 0.73,-0.61 7.51,-6.21 32.34,-23.9 -8.46,-8.61 -27.46,-24.52 -68.38,-49.06"
         style="fill:#fbc4b9;fill-opacity:1;fill-rule:nonzero;stroke:none"
         id="path134" />
      <path
         d="m 2809.71,2323.26 c -2.41,0 -4.96,0.3 -7.51,0.6 -112.5,13.22 -138.18,46.11 -250.08,105.89 -90.56,-65.34 -263.59,-105.89 -358.66,-105.89 -3.76,-36.05 -10.37,-77.05 -19.08,-120.61 l -42.3,-64.22 c 23.9,89.21 37.16,178.75 25.74,193.77 -11.41,15.02 -51.17,36.27 -78.51,89.59 28.84,-20.73 54.82,-42.96 87.41,-56.47 2.11,-0.91 4.21,-1.66 6.46,-2.41 26.44,-9.76 73.39,-13.21 113.71,-7.75 135.4,18.35 218.62,73.9 242.96,91.02 -15.42,21.28 -21.82,46.38 -25.27,73.29 31.87,-55.68 64.89,-75.47 94.26,-96.78 74.87,-54.31 172.34,-93.46 210.87,-100.03"
         style="fill:#f2846b;fill-opacity:1;fill-rule:nonzero;stroke:none"
         id="path136" />
      <path
         d="m 3893.75,2794.93 c 0,-131.3 -46.24,-223.5 -120.94,-266.42 l -237.19,-136.98 v 0.1 c 75.09,42.63 121.53,135.02 121.53,266.72 0,262.22 -184.01,581.05 -411.03,712.06 -112.14,64.72 -213.82,71.57 -287.93,30.31 l -0.1,0.1 233.67,134.82 0.39,0.29 0.49,0.3 c 30.99,17.7 66.88,26.88 106.38,26.88 55.24,0 117.61,-17.98 183.61,-56.12 227.02,-131.11 411.12,-449.84 411.12,-712.06"
         style="fill:#f2f2f0;fill-opacity:1;fill-rule:nonzero;stroke:none"
         id="path138" />
      <path
         d="m 3893.75,2794.93 c 0,-131.3 -46.24,-223.5 -120.94,-266.42 l -237.19,-136.98 v 0.1 c 75.09,42.63 121.53,135.02 121.53,266.72 0,41.26 -4.6,83.88 -13.1,127 l 236.5,136.59 c 8.61,-43.12 13.2,-85.75 13.2,-127.01"
         style="fill:#e7e7e5;fill-opacity:1;fill-rule:nonzero;stroke:none"
         id="path140" />
      <path
         d="m 940.664,2025.6 c 227.046,-131.09 411.116,-449.89 411.116,-712.07 0,-262.18 -184.06,-368.452 -411.112,-237.36 -227.051,131.09 -411.109,449.89 -411.109,712.07 -0.004,262.18 184.054,368.45 411.105,237.36"
         style="fill:#d9dad7;fill-opacity:1;fill-rule:nonzero;stroke:none"
         id="path142" />
      <path
         d="m 1588.34,1450.09 c 0,-131.3 -46.24,-223.5 -120.94,-266.42 l -237.19,-136.98 v 0.1 c 75.08,42.63 121.53,135.02 121.53,266.72 0,262.22 -184.01,581.05 -411.029,712.06 -112.145,64.72 -213.824,71.56 -287.938,30.31 l -0.093,0.09 233.668,134.83 0.39,0.29 0.492,0.3 c 30.993,17.69 66.872,26.88 106.372,26.88 55.238,0 117.618,-17.99 183.608,-56.12 227.03,-131.11 411.13,-449.84 411.13,-712.06"
         style="fill:#f2f2f0;fill-opacity:1;fill-rule:nonzero;stroke:none"
         id="path144" />
      <path
         d="m 1588.34,1450.09 c 0,-131.3 -46.24,-223.5 -120.94,-266.42 l -237.19,-136.98 v 0.1 c 75.08,42.63 121.53,135.02 121.53,266.72 0,41.26 -4.6,83.88 -13.11,127 l 236.51,136.58 c 8.61,-43.11 13.2,-85.74 13.2,-127"
         style="fill:#e7e7e5;fill-opacity:1;fill-rule:nonzero;stroke:none"
         id="path146" />
      <path
         d="m 324.441,1612.07 -124.742,217.99 467.989,271.73 0.433,0.25 0.52,0.3 0.011,-0.02 c 78.45,44.87 186.59,38.17 306.016,-30.78 239.602,-138.33 433.842,-474.76 433.842,-751.43 0,-138.62 -48.77,-235.92 -127.57,-281.13 l 0.01,-0.02 L 809.148,765.051 680.992,989 c -183.644,141.59 -328.203,393.7 -356.551,623.07"
         style="fill:#3c515c;fill-opacity:1;fill-rule:nonzero;stroke:none"
         id="path148" />
      <path
         d="M 503.602,1798.05 C 743.203,1659.72 937.438,1323.29 937.438,1046.62 937.438,769.949 743.203,657.801 503.605,796.141 264.004,934.469 69.7695,1270.9 69.7695,1547.57 69.7656,1824.24 264,1936.39 503.602,1798.05"
         style="fill:#1f2a31;fill-opacity:1;fill-rule:nonzero;stroke:none"
         id="path150" />
      <path
         d="m 1008.38,1086.18 c 0,-43 22.64,-64.79 50.57,-48.67 27.93,16.13 50.57,64.06 50.57,107.06 0,43 -22.64,64.79 -50.57,48.66 -27.93,-16.12 -50.57,-64.05 -50.57,-107.05"
         style="fill:#1f2a31;fill-opacity:1;fill-rule:nonzero;stroke:none"
         id="path152" />
      <path
         d="m 1211.64,1189.22 c 0,-43 22.64,-64.79 50.57,-48.66 27.93,16.13 50.57,64.06 50.57,107.06 0,43 -22.64,64.79 -50.57,48.66 -27.93,-16.12 -50.57,-64.06 -50.57,-107.06"
         style="fill:#1f2a31;fill-opacity:1;fill-rule:nonzero;stroke:none"
         id="path154" />
      <path
         d="m 1024.85,1081.67 c 0,-43 22.64,-64.79 50.57,-48.66 27.93,16.13 50.57,64.06 50.57,107.06 0,43 -22.64,64.79 -50.57,48.66 -27.93,-16.12 -50.57,-64.05 -50.57,-107.06"
         style="fill:#9a59b3;fill-opacity:1;fill-rule:nonzero;stroke:none"
         id="path156" />
      <path
         d="m 1228.11,1184.72 c 0,-43 22.64,-64.79 50.57,-48.66 27.93,16.12 50.57,64.05 50.57,107.06 0,43 -22.64,64.78 -50.57,48.66 -27.93,-16.13 -50.57,-64.06 -50.57,-107.06"
         style="fill:#9a59b3;fill-opacity:1;fill-rule:nonzero;stroke:none"
         id="path158" />
    </g>
  </g>
</svg>
