<?xml version="1.0" encoding="UTF-8" standalone="no"?>
<!-- Created with Inkscape (http://www.inkscape.org/) -->

<svg
   version="1.1"
   id="svg2"
   width="931.20001"
   height="635.50665"
   viewBox="0 0 931.20001 635.50665"
   sodipodi:docname="4957024.eps"
   xmlns:inkscape="http://www.inkscape.org/namespaces/inkscape"
   xmlns:sodipodi="http://sodipodi.sourceforge.net/DTD/sodipodi-0.dtd"
   xmlns="http://www.w3.org/2000/svg"
   xmlns:svg="http://www.w3.org/2000/svg">
  <defs
     id="defs6" />
  <sodipodi:namedview
     id="namedview4"
     pagecolor="#ffffff"
     bordercolor="#000000"
     borderopacity="0.25"
     inkscape:showpageshadow="2"
     inkscape:pageopacity="0.0"
     inkscape:pagecheckerboard="0"
     inkscape:deskcolor="#d1d1d1" />
  <g
     id="g8"
     inkscape:groupmode="layer"
     inkscape:label="ink_ext_XXXXXX"
     transform="matrix(1.3333333,0,0,-1.3333333,0,635.50667)">
    <g
       id="g10"
       transform="scale(0.1)">
      <path
         d="m 1065.25,2264.46 c -308.555,0 -563.234,110.19 -764.039,330.59 C 100.402,2815.45 0,3070.13 0,3359.09 c 0,288.97 112.648,551 337.941,786.09 225.297,235.09 484.875,352.63 778.739,352.63 293.86,0 548.54,-117.54 764.04,-352.63 215.5,-235.09 323.25,-506.92 323.25,-815.47 0,-308.56 -112.65,-563.24 -337.94,-764.05 -225.3,-200.8 -492.22,-301.2 -800.78,-301.2"
         style="fill:#fde3e9;fill-opacity:1;fill-rule:nonzero;stroke:none"
         id="path12" />
      <path
         d="m 3445.25,2264.46 c -308.55,0 -563.23,110.19 -764.04,330.59 -200.81,220.4 -301.21,475.08 -301.21,764.04 0,288.97 112.65,551 337.94,786.09 225.3,235.09 484.87,352.63 778.74,352.63 293.86,0 548.54,-117.54 764.04,-352.63 215.5,-235.09 323.25,-506.92 323.25,-815.47 0,-308.56 -112.65,-563.24 -337.94,-764.05 -225.3,-200.8 -492.22,-301.2 -800.78,-301.2"
         style="fill:#fde3e9;fill-opacity:1;fill-rule:nonzero;stroke:none"
         id="path14" />
      <path
         d="m 5845.25,2264.46 c -308.55,0 -563.23,110.19 -764.04,330.59 -200.81,220.4 -301.21,475.08 -301.21,764.04 0,288.97 112.65,551 337.94,786.09 225.3,235.09 484.87,352.63 778.74,352.63 293.86,0 548.54,-117.54 764.04,-352.63 215.5,-235.09 323.25,-506.92 323.25,-815.47 0,-308.56 -112.65,-563.24 -337.94,-764.05 -225.3,-200.8 -492.22,-301.2 -800.78,-301.2"
         style="fill:#fde3e9;fill-opacity:1;fill-rule:nonzero;stroke:none"
         id="path16" />
      <path
         d="m 6074.22,4232.97 c 0,0 -317.19,97.2 -516.71,-46.04 -199.52,-143.25 -76.74,-583.22 -143.24,-787.85 -66.51,-204.64 -66.51,-378.58 240.45,-424.63 306.95,-46.04 347.88,373.47 347.88,373.47 l 71.62,885.05"
         style="fill:#7a3134;fill-opacity:1;fill-rule:nonzero;stroke:none"
         id="path18" />
      <path
         d="m 5398.92,2687.96 c 0,0 56.27,-578.09 133.01,-665.06 76.74,-86.97 209.76,-107.44 209.76,-107.44 l -35.82,823.66 -306.95,-51.16"
         style="fill:#f57880;fill-opacity:1;fill-rule:nonzero;stroke:none"
         id="path20" />
      <path
         d="m 5132.89,2324.73 c 0,0 -86.97,-81.85 20.47,-219.98 107.43,-138.13 526.93,-470.66 659.95,-409.27 133.01,61.39 -56.28,312.07 -56.28,312.07 l -624.14,317.18"
         style="fill:#f78e92;fill-opacity:1;fill-rule:nonzero;stroke:none"
         id="path22" />
      <path
         d="m 5856.89,3060.25 -31.11,41.48 c 0,0 -378.46,46.66 -414.75,-72.58 -36.29,-119.24 -77.77,-451.05 -77.77,-451.05 l 316.25,-72.58 207.38,554.73"
         style="fill:#29202e;fill-opacity:1;fill-rule:nonzero;stroke:none"
         id="path24" />
      <path
         d="m 5558.66,2793.54 c -63.86,33.15 -121.86,71.84 -174.48,118.07 -27.23,-144.05 -50.92,-333.51 -50.92,-333.51 l 316.25,-72.58 79.63,213.01 c -58.02,22.1 -115.18,46.3 -170.48,75.01"
         style="fill:#120f14;fill-opacity:1;fill-rule:nonzero;stroke:none"
         id="path26" />
      <path
         d="m 5716.91,2059.66 c 0,0 -197.01,-352.54 -300.7,-985.04 C 5336.93,590.988 5287.4,0 5287.4,0 h 1544.92 c 0,0 -68.16,1385.69 -472.55,2121.87 l -642.86,-62.21"
         style="fill:#f78f50;fill-opacity:1;fill-rule:nonzero;stroke:none"
         id="path28" />
      <path
         d="M 6162.29,689.93 C 5945.49,523.66 5708.99,388.48 5443.93,315.832 5401.1,304.09 5357.97,294.07 5314.65,285.43 5297.05,115.191 5287.4,0 5287.4,0 h 1544.92 c 0,0 -34.04,691.352 -196.52,1356.83 -102.52,-258.37 -250.59,-495.932 -473.51,-666.9"
         style="fill:#e27e33;fill-opacity:1;fill-rule:nonzero;stroke:none"
         id="path30" />
      <path
         d="m 6305.88,1903.94 c 53.25,-6.48 106.65,-12.24 160.11,-17.65 -32.29,85.93 -67.59,165.26 -106.22,235.58 l -642.86,-62.21 c 0,0 -10.17,-18.25 -27,-53.54 205.73,-29.13 409.63,-77.07 615.97,-102.18"
         style="fill:#e27e33;fill-opacity:1;fill-rule:nonzero;stroke:none"
         id="path32" />
      <path
         d="m 6123.67,3658.28 c 0,0 0,-641.19 40.93,-654.83 40.93,-13.65 -313.77,-13.65 -313.77,-13.65 l -47.75,463.84 320.59,204.64"
         style="fill:#f57880;fill-opacity:1;fill-rule:nonzero;stroke:none"
         id="path34" />
      <path
         d="m 5830.96,3205.42 352.54,72.58 15.56,-145.16 c 0,0 264.4,88.13 331.8,-62.22 67.4,-150.35 -103.69,-1005.77 -103.69,-1005.77 l -756.92,-15.56 c 0,0 -197.01,414.76 -134.8,725.82 62.21,311.07 62.21,311.07 62.21,311.07 l 228.12,15.55 5.18,103.69"
         style="fill:#29202e;fill-opacity:1;fill-rule:nonzero;stroke:none"
         id="path36" />
      <path
         d="m 6160.67,2554.39 c -184.1,-105.01 -377.5,-197.7 -577.27,-271.99 40.6,-135.75 86.85,-233.11 86.85,-233.11 l 756.92,15.56 c 0,0 94.73,473.73 115.43,778.08 -107,-118.75 -249.92,-213.25 -381.93,-288.54"
         style="fill:#120f14;fill-opacity:1;fill-rule:nonzero;stroke:none"
         id="path38" />
      <path
         d="m 6635.26,2826.09 c 0,0 122.79,-954.97 6.82,-995.89 -115.96,-40.93 -791.25,491.12 -791.25,491.12 0,0 -272.85,-68.21 -204.64,13.65 0,0 -61.39,20.46 -13.64,40.92 0,0 -54.57,27.29 -20.47,40.93 34.11,13.64 -552.52,-75.03 218.28,88.68 l 552.52,-245.57 -27.29,334.24 279.67,231.92"
         style="fill:#f78e92;fill-opacity:1;fill-rule:nonzero;stroke:none"
         id="path40" />
      <path
         d="m 6677.17,2412.84 c -16.78,217.83 -41.91,413.25 -41.91,413.25 l -279.67,-231.92 12.85,-157.3 c 97.34,-33.55 204.94,-35.55 308.73,-24.03"
         style="fill:#f57880;fill-opacity:1;fill-rule:nonzero;stroke:none"
         id="path42" />
      <path
         d="m 6294.2,2491.85 c 0,0 241.84,-17.44 407.74,65.52 0,0 -46.66,523.62 -243.66,580.65 -197.01,57.03 -293.68,-230.07 -164.08,-646.17"
         style="fill:#29202e;fill-opacity:1;fill-rule:nonzero;stroke:none"
         id="path44" />
      <path
         d="m 5594.28,2180.61 c 6.3,-12.37 1.39,-27.52 -10.98,-33.82 L 5308.91,2006.9 c -12.37,-6.31 -27.51,-1.39 -33.82,10.98 l -302.62,593.56 c -6.3,12.37 -1.39,27.51 10.98,33.82 l 274.39,139.89 c 12.37,6.31 27.51,1.39 33.82,-10.98 l 302.62,-593.56"
         style="fill:#29202e;fill-opacity:1;fill-rule:nonzero;stroke:none"
         id="path46" />
      <path
         d="m 5102.2,2283.81 c 0,0 337.65,414.39 66.5,20.46 0,0 388.81,342.77 66.51,-30.69 0,0 378.58,214.86 -5.11,-66.51 0,0 419.5,199.52 -5.12,-66.51 l 61.39,-143.24 c 0,0 -235.33,163.71 -184.17,286.49"
         style="fill:#f78e92;fill-opacity:1;fill-rule:nonzero;stroke:none"
         id="path48" />
      <path
         d="m 5599.38,3662.39 -131.4,-10.08"
         style="fill:none;stroke:#5b94c0;stroke-width:20.4636;stroke-linecap:butt;stroke-linejoin:miter;stroke-miterlimit:10;stroke-dasharray:none;stroke-opacity:1"
         id="path50" />
      <path
         d="m 5946.32,4053.91 c 0,0 -414.39,100.78 -414.39,-363.23 0,-464.01 399.04,-655.34 583.22,-162.64 184.17,492.71 -168.83,525.87 -168.83,525.87"
         style="fill:#f78e92;fill-opacity:1;fill-rule:nonzero;stroke:none"
         id="path52" />
      <path
         d="m 5803.08,4130.65 c 0,0 -35.81,-281.38 168.82,-470.66 204.64,-189.29 -71.62,-716.23 194.41,-746.93 266.02,-30.69 92.08,276.26 312.07,219.99 0,0 40.92,214.87 -56.28,266.03 -97.2,51.15 40.93,787.85 -286.49,874.81 -327.42,86.97 -322.3,-76.73 -332.53,-143.24"
         style="fill:#a1444b;fill-opacity:1;fill-rule:nonzero;stroke:none"
         id="path54" />
      <path
         d="m 5930.27,3468.48 c 0,0 -179.29,-47.28 -256.82,-64.05 0,0 125.62,-83.03 256.82,64.05"
         style="fill:#ffffff;fill-opacity:1;fill-rule:nonzero;stroke:none"
         id="path56" />
      <path
         d="m 5665.97,3677.24 c 0,0 0.99,-2.94 2.06,-8.26 1.04,-5.31 2.2,-13.01 2.07,-22.43 -0.08,-9.39 -1.18,-20.65 -5.98,-32.43 -1.26,-2.91 -2.88,-5.82 -4.51,-8.76 -2.14,-2.72 -3.83,-5.83 -6.72,-8.15 -2.71,-2.47 -5.48,-4.93 -8.95,-6.55 -3.23,-2.08 -6.81,-3.15 -10.46,-4.09 l -2.73,-0.67 -0.34,-0.08 -1.12,-0.12 -0.14,-0.01 -0.56,-0.01 -1.13,-0.04 -4.51,-0.14 c -3.07,-0.03 -8.28,0.97 -11.86,2.06 -7.15,2.72 -13.14,7.44 -17.15,12.62 -4.36,5.04 -6.91,10.63 -9.14,15.78 -2.06,5.21 -3.4,10.24 -4.35,14.89 -1.91,9.28 -2.08,17.08 -2.01,22.5 0.13,5.42 0.6,8.49 0.6,8.49 0,0 1.03,-2.89 2.82,-7.94 1.82,-4.98 4.45,-12.03 8.09,-19.99 1.89,-3.95 4.11,-8.04 6.49,-12.21 2.61,-3.98 5.51,-7.99 8.86,-11.25 3.21,-3.6 7.33,-5.36 11.17,-6.98 0.96,-0.37 1.76,-0.25 2.62,-0.5 0.97,-0.09 1.3,-0.66 3.1,-0.39 l 4.51,0.29 1.13,0.07 0.56,0.04 0.14,0.01 h 0.07 c -1.91,-0.19 -0.5,-0.04 -0.91,-0.08 l 0.2,0.07 1.63,0.51 c 2.23,0.5 4.48,0.98 6.36,2.22 2.11,0.78 3.82,2.32 5.58,3.77 1.84,1.31 3.13,3.48 4.87,5.07 1.37,2.03 2.8,4.02 4.02,6.17 2.25,4.44 4.39,8.99 5.94,13.62 1.53,4.62 2.86,9.15 3.95,13.41 2.08,8.54 3.45,15.95 4.35,21.18 0.88,5.29 1.38,8.31 1.38,8.31"
         style="fill:#29202e;fill-opacity:1;fill-rule:nonzero;stroke:none"
         id="path58" />
      <path
         d="m 5927.65,3699.92 c 0,0 1.04,-3.11 2.14,-8.74 1.06,-5.63 2.25,-13.78 2.01,-23.75 -0.19,-9.94 -1.52,-21.87 -6.85,-34.24 -2.93,-6.03 -6.48,-12.51 -12.28,-17.62 -2.88,-2.59 -5.87,-5.07 -9.52,-6.75 -3.41,-2.14 -7.17,-3.23 -10.99,-4.22 l -2.86,-0.7 -0.35,-0.09 -0.18,-0.04 -1.16,-0.12 -0.6,-0.02 -1.19,-0.04 -4.77,-0.17 c -1.32,-0.2 -3.75,0.18 -5.93,0.54 -2.18,0.37 -4.42,0.75 -6.48,1.3 -7.52,2.78 -14.17,7.41 -18.49,12.9 -4.81,5.22 -7.6,11.13 -10.03,16.56 -1.1,2.77 -2.04,5.46 -2.91,8.07 -0.65,2.65 -1.27,5.21 -1.87,7.67 -2.06,9.82 -2.26,18.08 -2.17,23.8 0.14,5.74 0.66,8.98 0.66,8.98 0,0 1.04,-3.12 2.97,-8.39 1.92,-5.26 4.74,-12.7 8.62,-21.07 2.03,-4.15 4.38,-8.47 6.98,-12.78 2.8,-4.14 5.91,-8.34 9.53,-11.62 3.42,-3.78 7.89,-5.31 11.97,-7.06 0.98,-0.16 1.89,-0.21 2.8,-0.42 0.94,-0.17 1.61,-0.61 3.47,-0.34 l 4.76,0.33 1.19,0.09 0.6,0.04 h 0.07 c -1.96,-0.2 -0.51,-0.04 -0.93,-0.08 l 0.11,0.03 0.21,0.07 1.76,0.54 c 2.39,0.54 4.8,1.04 6.82,2.34 2.27,0.83 4.15,2.38 6.02,3.93 2.04,1.3 3.39,3.63 5.27,5.27 1.56,2.02 3,4.21 4.41,6.37 2.44,4.65 4.8,9.39 6.52,14.24 1.67,4.85 3.15,9.6 4.35,14.09 2.31,8.99 3.81,16.81 4.8,22.33 0.97,5.58 1.52,8.77 1.52,8.77"
         style="fill:#29202e;fill-opacity:1;fill-rule:nonzero;stroke:none"
         id="path60" />
      <path
         d="m 5695.64,3659.99 c 3.71,-4.77 6.56,-10.21 9,-15.81 2.22,-5.66 4.26,-11.52 5.4,-17.58 0.6,-3.02 1.32,-6.06 1.62,-9.14 0.24,-3.08 0.76,-6.18 0.73,-9.29 0.04,-3.1 0.21,-6.23 0.13,-9.36 l -0.81,-9.34 c -0.29,-3.12 -1,-6.16 -1.49,-9.26 -0.48,-3.11 -1.11,-6.19 -2.1,-9.16 l -2.69,-9.01 -3.57,-8.66 c -2.12,-5.92 -5.64,-11.1 -8.46,-16.64 -1.5,-2.73 -3.43,-5.16 -5.12,-7.74 l -5.39,-7.54 -2.74,13.59 c 5.33,-3.75 10.79,-7.31 16.02,-11.22 5.21,-3.95 10.56,-7.67 15.65,-11.81 10.32,-8.07 20.38,-16.56 29.87,-25.97 -12.69,4.22 -24.79,9.38 -36.65,14.95 -5.99,2.68 -11.72,5.78 -17.6,8.65 -5.85,2.91 -11.48,6.18 -17.23,9.25 l -8.08,4.32 5.34,9.26 c 1.39,2.42 2.73,4.86 4.21,7.2 1.38,2.39 3.03,4.65 4.21,7.14 2.39,4.95 5.34,9.66 7.31,14.76 2.28,4.98 4.32,10.04 6.01,15.23 0.97,2.56 1.83,5.15 2.51,7.8 0.7,2.63 1.63,5.24 2.16,7.92 1.08,5.36 2.24,10.74 2.95,16.24 0.53,2.74 0.52,5.5 0.8,8.28 0.38,2.79 0.41,5.58 0.53,8.4 0.17,5.62 0.05,11.31 -0.31,17.07 -0.48,5.74 -1.03,11.57 -2.21,17.47"
         style="fill:#c3616a;fill-opacity:1;fill-rule:nonzero;stroke:none"
         id="path62" />
      <path
         d="m 5697.48,3675.36 c 11.72,-88.69 -22.69,-166.39 -76.87,-173.55 -54.18,-7.16 -107.6,58.92 -119.33,147.61 -11.72,88.69 22.69,166.39 76.87,173.55 54.18,7.16 107.6,-58.92 119.33,-147.61 z"
         style="fill:none;stroke:#5b94c0;stroke-width:19.7712;stroke-linecap:butt;stroke-linejoin:miter;stroke-miterlimit:10;stroke-dasharray:none;stroke-opacity:1"
         id="path64" />
      <path
         d="m 5999.8,3697.32 c 12.05,-91.2 -31.54,-172.2 -97.38,-180.9 -65.83,-8.7 -128.98,58.17 -141.04,149.38 -12.06,91.2 31.54,172.19 97.37,180.9 65.84,8.7 128.99,-58.18 141.05,-149.38 z"
         style="fill:none;stroke:#5b94c0;stroke-width:22.102;stroke-linecap:butt;stroke-linejoin:miter;stroke-miterlimit:10;stroke-dasharray:none;stroke-opacity:1"
         id="path66" />
      <path
         d="m 5703.32,3634.41 c 0,0 20.46,63.95 61.39,7.67"
         style="fill:none;stroke:#5b94c0;stroke-width:20.4636;stroke-linecap:butt;stroke-linejoin:miter;stroke-miterlimit:10;stroke-dasharray:none;stroke-opacity:1"
         id="path68" />
      <path
         d="m 6007.71,3683.01 79.3,2.56"
         style="fill:none;stroke:#5b94c0;stroke-width:20.4636;stroke-linecap:butt;stroke-linejoin:miter;stroke-miterlimit:10;stroke-dasharray:none;stroke-opacity:1"
         id="path70" />
      <path
         d="m 3088.58,3883.2 c 0,0 72,-331.82 -58.33,-436.08 -130.32,-104.26 -482.2,26.06 -371.43,-404.01 110.78,-430.08 860.15,-866.67 1023.06,-651.63 162.91,215.04 449.62,990.47 156.39,1029.57 -293.23,39.1 -384.46,-136.84 -364.91,188.97 19.55,325.82 -384.78,273.18 -384.78,273.18"
         style="fill:#a1444b;fill-opacity:1;fill-rule:nonzero;stroke:none"
         id="path72" />
      <path
         d="m 3097.92,3574.94 c 30.98,-39.94 69,-74.42 104.21,-98.06 91.52,-61.48 198.9,-72.78 306.02,-74.87 -29.87,34.77 -41.47,96.63 -34.79,208.01 19.55,325.82 -384.78,273.18 -384.78,273.18 0,0 37.48,-172.86 9.34,-308.26"
         style="fill:#7a3134;fill-opacity:1;fill-rule:nonzero;stroke:none"
         id="path74" />
      <path
         d="m 3640.6,4564.95 c 0,0 -584.09,279.01 -630.85,-131.56 -44.16,-387.72 180.63,-961.96 492.93,-924.37 154.94,18.65 282.25,63.5 244.27,428.78 -35.84,344.73 -27.66,481.94 -106.35,627.15"
         style="fill:#a1444b;fill-opacity:1;fill-rule:nonzero;stroke:none"
         id="path76" />
      <path
         d="m 3281.13,4424.56 c 0,0 16.29,-136.84 -87.97,-169.42 0,0 57.47,-468.8 65.16,-518.05 9.43,-60.39 91.42,-105.33 91.42,86.89 0,153.14 133.39,95.57 195.3,102.08 61.9,6.52 136.84,35.84 146.61,-87.97 9.78,-123.81 71.68,-52.13 55.39,104.27 0,0 110.78,-361.66 -52.13,-430.08 -162.9,-68.42 -515.39,-195.87 -557.74,279.82 -42.36,475.69 -113.43,378.33 -142.76,322.94 -29.32,-55.39 -19.55,-237.85 91.23,-244.36 0,0 -322.56,280.2 -237.84,511.52 84.71,231.33 221.55,162.91 221.55,162.91 0,0 29.32,156.39 156.39,192.23 127.07,35.84 162.91,-140.1 335.59,-6.52 172.68,133.59 289.97,-162.9 374.68,-22.8 0,0 26.07,-140.1 -123.8,-114.04 0,0 68.42,-68.42 127.06,22.81 0,0 -22.8,-247.62 -270.42,-205.26 -247.62,42.35 -175.94,-127.07 -387.72,13.03"
         style="fill:#29202e;fill-opacity:1;fill-rule:nonzero;stroke:none"
         id="path78" />
      <path
         d="m 3118.22,4004.26 c 0,0 -6.74,196.12 -97.96,153.76 -91.23,-42.35 -51.91,-329.7 101.22,-293.86 l -3.26,140.1"
         style="fill:#a1444b;fill-opacity:1;fill-rule:nonzero;stroke:none"
         id="path80" />
      <path
         d="m 3386.18,3857.39 c 0,0 191.31,-12.15 273.3,-13.67 0,0 -110.84,-109.32 -273.3,13.67"
         style="fill:#ffffff;fill-opacity:1;fill-rule:nonzero;stroke:none"
         id="path82" />
      <path
         d="m 3091.62,3895.35 c -8.35,3.69 -16.38,8.26 -23.76,14.03 -3.71,2.87 -7.16,6.16 -10.28,9.98 -3.05,3.82 -5.87,8.36 -6.9,14.02 -0.49,2.79 -0.52,5.86 0.23,8.76 0.63,2.93 1.96,5.65 3.54,8.01 3.22,4.72 7.38,8.11 11.58,10.98 8.57,5.44 17.63,8.71 26.64,11.6 l -5.8,-7.91 c -2.49,24.99 -6.14,50.27 -11.16,74.74 -2.57,12.24 -5.83,24.24 -9.68,35.73 -3.96,11.24 -9.36,22.51 -16.37,28.87 -3.51,3.13 -6.85,4.54 -10.85,4.28 l -0.37,0.02 h -0.09 -0.05 c 0.25,0.06 -0.63,-0.1 0.55,0.12 l -0.29,-0.06 -1.18,-0.23 -2.36,-0.46 c -1.49,-0.33 -1.89,-0.72 -2.95,-0.96 -2.05,-0.89 -4.09,-2.13 -5.99,-3.64 -7.75,-6.22 -12.56,-17.69 -15.7,-29.3 -3.22,-11.79 -4.67,-24.36 -5.74,-36.97 -0.87,-12.65 -1.32,-25.46 -1.09,-38.36 -3.21,12.51 -5.37,25.34 -6.4,38.33 -1.08,13 -1.13,26.18 0.82,39.55 0.94,6.69 2.61,13.38 5.2,20.01 2.63,6.59 6.33,13.23 12.03,18.81 2.85,2.81 6.22,5.08 9.97,6.95 1.96,0.81 4.47,1.85 6.09,2.27 l 2.34,0.59 1.16,0.29 0.29,0.08 0.81,0.13 0.21,0.02 0.82,0.07 c 8.85,1.39 18.42,-2.21 24.56,-7.43 6.4,-5.15 10.56,-11.41 14.14,-17.55 3.46,-6.2 6.14,-12.52 8.57,-18.86 4.71,-12.69 7.85,-25.59 10.31,-38.49 2.5,-12.89 4.46,-25.81 5.62,-38.78 1.18,-12.99 2.29,-25.83 2.36,-39.02 l 0.03,-6.62 -5.84,-1.3 c -8.43,-1.87 -16.77,-4.26 -23.93,-7.87 -3.53,-1.81 -6.74,-3.95 -8.99,-6.48 -1.1,-1.26 -2,-2.59 -2.51,-4.04 -0.61,-1.43 -0.8,-3 -0.73,-4.68 0.12,-6.96 5.49,-14.67 11.21,-21.11 5.9,-6.56 12.7,-12.59 19.93,-18.12"
         style="fill:#7a3134;fill-opacity:1;fill-rule:nonzero;stroke:none"
         id="path84" />
      <path
         d="m 3539.53,3927.23 c 17.25,3.97 34.58,6.98 51.93,9.83 17.34,2.86 34.73,5.2 52.12,7.54 l -7.04,-11.15 c -8.15,20.19 -15.72,40.42 -22.53,61 -6.99,20.5 -13.04,41.33 -18.65,62.27 -2.78,10.47 -5.2,21.08 -7.52,31.68 -2.34,10.59 -4.67,21.19 -6.09,32.03 -1.51,10.79 -3.65,21.4 -4.28,32.34 -0.78,10.89 -1.25,21.78 -1.5,32.59 3.14,-10.49 6.04,-20.89 8.64,-31.29 1.15,-5.21 2.97,-10.32 4.53,-15.47 l 4.62,-15.42 4.47,-15.43 4.95,-15.32 c 3.41,-10.18 6.06,-20.53 9.55,-30.69 3.48,-10.15 6.52,-20.42 9.73,-30.65 3.29,-10.2 6.81,-20.34 9.88,-30.62 l 19.72,-61.23 3.46,-10.73 -10.5,-0.42 c -17.54,-0.7 -35.07,-1.39 -52.65,-1.57 -17.57,-0.19 -35.16,-0.21 -52.84,0.71"
         style="fill:#7a3134;fill-opacity:1;fill-rule:nonzero;stroke:none"
         id="path86" />
      <path
         d="m 3612.58,4121.95 c 0,0 1.11,-2.97 3.06,-8.15 1.96,-5.13 4.83,-12.37 8.65,-20.62 1.95,-4.11 4.2,-8.43 6.67,-12.82 2.5,-4.38 5.59,-8.57 8.75,-12.63 1.67,-1.93 3.52,-3.67 5.31,-5.45 2.08,-1.26 3.82,-3.21 5.96,-4.17 2.07,-1.12 4.11,-2.35 6.41,-2.72 2.15,-0.88 4.53,-0.91 6.89,-0.97 l 1.76,-0.19 0.22,-0.03 c -0.43,-0.04 1.03,0.09 -0.94,-0.1 l 0.07,0.01 0.14,0.02 0.58,0.07 1.16,0.15 4.63,0.6 c 1.88,0.09 2.11,0.74 3.07,1.03 0.82,0.42 1.66,0.46 2.56,1.02 3.57,2.42 7.4,5.02 9.93,9.32 2.75,3.97 4.89,8.62 6.75,13.18 1.58,4.7 3.01,9.3 4.13,13.68 2.11,8.8 3.37,16.48 4.22,21.9 0.81,5.48 1.27,8.61 1.27,8.61 0,0 1.1,-3.02 2.31,-8.5 1.15,-5.47 2.54,-13.42 2.46,-23.22 -0.04,-4.9 -0.39,-10.27 -1.44,-15.97 -1.23,-5.67 -2.7,-11.85 -6.12,-17.83 l -2.63,-4.52 c -1.03,-1.46 -2.29,-2.85 -3.47,-4.27 -2.16,-3.05 -5.62,-5.15 -8.78,-7.44 -3.41,-1.82 -8.5,-3.87 -11.61,-4.46 l -4.6,-0.76 -1.16,-0.19 -0.57,-0.09 -0.15,-0.03 -1.16,-0.1 -0.36,0.01 -2.9,0.14 c -3.89,0.22 -7.74,0.6 -11.43,2.06 -3.85,0.95 -7.14,2.89 -10.39,4.86 -3.39,1.78 -5.73,4.59 -8.44,6.92 -2.24,2.66 -4.47,5.29 -6.33,7.99 -7.22,10.98 -10.58,22.19 -12.54,31.7 -2.01,9.53 -2.37,17.57 -2.38,23.17 0.03,5.61 0.44,8.79 0.44,8.79"
         style="fill:#29202e;fill-opacity:1;fill-rule:nonzero;stroke:none"
         id="path88" />
      <path
         d="m 3342.61,4092.68 c 0,0 1.16,-3.19 3.29,-8.59 2.11,-5.4 5.19,-13.04 9.33,-21.7 2.12,-4.3 4.56,-8.83 7.23,-13.42 2.71,-4.58 6.05,-8.91 9.46,-13.13 1.86,-1.92 3.76,-3.85 5.74,-5.59 2.23,-1.29 4.07,-3.39 6.42,-4.26 2.22,-1.19 4.45,-2.3 6.89,-2.74 2.3,-0.94 4.84,-0.99 7.37,-1.08 l 1.89,-0.19 0.23,-0.02 0.12,-0.01 c -0.44,-0.05 1.07,0.08 -0.97,-0.1 l 0.07,0.01 0.62,0.08 1.22,0.17 4.89,0.65 c 1.95,0.11 2.52,0.7 3.44,1.03 0.88,0.39 1.79,0.6 2.76,0.95 3.83,2.52 8.03,5.01 10.75,9.51 3.02,4.05 5.33,8.93 7.35,13.7 1.77,4.89 3.3,9.74 4.53,14.35 2.26,9.27 3.63,17.38 4.53,23.1 0.91,5.73 1.34,9.1 1.34,9.1 0,0 1.17,-3.18 2.46,-8.97 1.23,-5.79 2.68,-14.21 2.56,-24.58 -0.12,-2.61 -0.24,-5.34 -0.37,-8.15 -0.36,-2.83 -0.78,-5.75 -1.34,-8.77 -1.38,-5.99 -3.03,-12.55 -6.86,-18.81 -3.28,-6.44 -9.13,-12.41 -16.17,-16.81 -1.98,-0.98 -4.16,-1.83 -6.3,-2.66 -2.14,-0.82 -4.55,-1.69 -5.93,-1.73 l -4.87,-0.74 -1.22,-0.19 -0.61,-0.09 -1.2,-0.11 -0.19,0.01 -0.38,0.02 -3.05,0.16 c -4.07,0.21 -8.11,0.54 -12.01,2.01 -4.06,0.93 -7.57,2.93 -10.99,4.98 -6.87,4.09 -11.79,9.91 -15.97,15.46 -3.96,5.7 -6.81,11.61 -9,17.24 -2.25,5.62 -3.68,11.09 -4.79,16.12 -2.23,10.06 -2.65,18.58 -2.69,24.5 -0.01,5.93 0.42,9.29 0.42,9.29"
         style="fill:#29202e;fill-opacity:1;fill-rule:nonzero;stroke:none"
         id="path90" />
      <path
         d="m 3501.31,4198.48 c 0,0 -3.59,2.75 -9.87,7.57 -6.27,4.61 -14.98,11.1 -25.66,17.51 -10.54,6.53 -22.99,13.01 -36.22,17.34 -6.6,2.29 -13.48,3.56 -20.34,4.63 -6.9,0.86 -13.89,0.92 -20.91,0.42 -7.02,-0.72 -14.08,-1.86 -21.07,-3.92 -3.5,-0.91 -6.98,-2 -10.42,-3.31 -3.49,-1.09 -6.85,-2.57 -10.22,-4.02 -3.43,-1.29 -6.68,-2.89 -9.93,-4.52 -3.24,-1.59 -6.51,-3 -9.55,-4.8 -6.21,-3.29 -12.18,-6.54 -17.6,-9.88 -5.59,-3.08 -10.6,-6.27 -15.19,-9 -4.61,-2.8 -8.63,-5.25 -11.94,-7.27 -6.69,-4.1 -10.93,-6.22 -10.93,-6.22 0,0 1.63,4.32 5.21,11.5 1.78,3.6 3.94,8.03 7.09,12.58 3.01,4.7 6.32,10.15 10.8,15.43 2.18,2.7 4.47,5.49 6.95,8.33 2.67,2.69 5.43,5.46 8.26,8.32 2.77,2.96 6.19,5.4 9.47,8.19 3.23,2.85 6.9,5.32 10.75,7.78 3.73,2.61 7.74,4.95 12.06,7.03 l 6.43,3.26 6.9,2.63 c 9.19,3.71 19.41,5.64 29.68,6.84 10.38,0.57 20.92,0.21 30.91,-2.11 9.94,-2.28 19.42,-5.68 27.65,-10.31 16.65,-9.03 28.97,-21.11 37.49,-32.38 8.58,-11.32 13.61,-21.89 16.53,-29.42 2.92,-7.57 3.67,-12.2 3.67,-12.2"
         style="fill:#29202e;fill-opacity:1;fill-rule:nonzero;stroke:none"
         id="path92" />
      <path
         d="m 3587.04,4189.36 c 0,0 -0.73,13.2 5.68,30.64 3.2,8.69 8.09,18.46 15.44,28.01 3.78,4.72 7.94,9.51 13.19,13.78 5.07,4.39 11.04,8.31 17.93,11.44 6.81,3.02 14.71,5.22 22.86,5.31 8.11,0.48 16.27,-1.56 23.04,-4.55 3.33,-1.66 6.63,-3.18 9.23,-5.36 2.81,-1.99 5.29,-4.02 7.32,-6.3 4.45,-4.29 7.36,-8.97 9.87,-13.21 4.77,-8.66 6.76,-16.35 7.64,-21.86 0.92,-5.48 0.96,-8.72 0.96,-8.72 0,0 -3.01,1.55 -7.44,4.43 -4.49,2.81 -10.74,6.77 -17.59,10.55 -1.66,1.07 -3.5,1.77 -5.29,2.64 -1.76,0.95 -3.53,1.74 -5.39,2.3 -1.8,0.76 -3.54,1.39 -5.33,1.71 -1.76,0.55 -3.42,0.74 -5.06,0.96 -3.29,0.3 -6.19,0.23 -9.23,-0.42 -2.99,-0.61 -6.23,-1.45 -9.71,-3.2 -7.02,-2.89 -14.85,-8.33 -22.42,-13.81 -7.55,-5.66 -14.95,-11.57 -21.61,-16.74 -6.63,-5.19 -12.57,-9.64 -16.97,-12.72 -4.33,-3.12 -7.12,-4.88 -7.12,-4.88"
         style="fill:#29202e;fill-opacity:1;fill-rule:nonzero;stroke:none"
         id="path94" />
      <path
         d="M 4144.54,1655.14 4398.67,0 h -449.62 l -390.98,1381.46 586.47,273.68"
         style="fill:#487897;fill-opacity:1;fill-rule:nonzero;stroke:none"
         id="path96" />
      <path
         d="M 3128,1531.33 3046.59,0 h 470 L 3642.78,716.801 4261.59,889.449 4138.02,1707.27 3128,1531.33"
         style="fill:#5b94c0;fill-opacity:1;fill-rule:nonzero;stroke:none"
         id="path98" />
      <path
         d="m 3620.83,1266.44 c 186.74,12.85 407.86,34.66 566.5,147.43 l -49.31,293.4 L 3128,1531.33 3120.91,1297.6 c 163.91,-30.84 330.81,-42.79 499.92,-31.16"
         style="fill:#487897;fill-opacity:1;fill-rule:nonzero;stroke:none"
         id="path100" />
      <path
         d="m 2991.15,3427.57 c 0,0 136.85,-149.88 345.37,-156.39 208.52,-6.52 234.58,136.84 234.58,136.84 0,0 338.85,143.36 430.08,-65.16 91.23,-208.52 208.52,-1798.5 208.52,-1798.5 0,0 -273.69,-345.36 -1133.83,-84.71 0,0 -560.4,1791.98 -423.56,1863.66 136.84,71.68 338.84,104.26 338.84,104.26"
         style="fill:#f78f50;fill-opacity:1;fill-rule:nonzero;stroke:none"
         id="path102" />
      <path
         d="m 3433.03,2481.78 c -228.89,140.5 -436.11,303.32 -622.41,496.83 -59.07,61.37 -116.86,124.11 -174.97,186.51 48.32,-452.32 440.22,-1705.47 440.22,-1705.47 860.14,-260.65 1133.83,84.71 1133.83,84.71 0,0 -20.91,283.37 -51.93,626.54 -253.18,67.85 -496.59,170.84 -724.74,310.88"
         style="fill:#e27e33;fill-opacity:1;fill-rule:nonzero;stroke:none"
         id="path104" />
      <path
         d="m 2665.34,3179.95 c 0,0 0,-1049.12 52.13,-1238.09 52.13,-188.98 338.85,-736.34 338.85,-736.34 l 45.61,-195.49 114.66,-0.58 41.73,391.55 -78.19,26.07 -149.88,645.11 -32.58,1055.64 -332.33,52.13"
         style="fill:#a1444b;fill-opacity:1;fill-rule:nonzero;stroke:none"
         id="path106" />
      <path
         d="m 2898.64,2400.44 c 40.93,-6.22 81.49,-8.87 121.74,-8.56 l -22.71,735.94 -332.33,52.13 c 0,0 0,-374.36 11.12,-716.11 72.13,-28.48 146.06,-51.84 222.18,-63.4"
         style="fill:#7a3134;fill-opacity:1;fill-rule:nonzero;stroke:none"
         id="path108" />
      <path
         d="m 3104.05,1010.03 112.54,-0.58 41.73,391.55 -6.31,2.11 c -32.59,-136.21 -92.37,-264.24 -147.96,-393.08"
         style="fill:#7a3134;fill-opacity:1;fill-rule:nonzero;stroke:none"
         id="path110" />
      <path
         d="m 2991.15,3427.57 c 0,0 -358.39,-39.1 -384.46,-162.91 -26.06,-123.81 -6.51,-729.82 -6.51,-729.82 0,0 221.55,-117.3 475.69,-78.2 l -84.72,970.93"
         style="fill:#f78f50;fill-opacity:1;fill-rule:nonzero;stroke:none"
         id="path112" />
      <path
         d="m 3688.4,3434.08 c 0,0 260.65,136.85 384.46,-110.77 123.81,-247.62 136.84,-619.05 136.84,-619.05 l -273.69,-65.16 -247.61,794.98"
         style="fill:#f78f50;fill-opacity:1;fill-rule:nonzero;stroke:none"
         id="path114" />
      <path
         d="m 3847.41,2923.56 88.6,-284.46 273.69,65.16 c 0,0 -8.88,251.18 -80.87,478.14 -92.9,-87.24 -187.11,-173.09 -281.42,-258.84"
         style="fill:#e27e33;fill-opacity:1;fill-rule:nonzero;stroke:none"
         id="path116" />
      <path
         d="m 3983.5,2483.2 c -2.96,-13.25 -16.1,-21.58 -29.34,-18.62 l -293.76,65.66 c -13.25,2.96 -21.58,16.09 -18.62,29.34 l 142.04,635.48 c 2.96,13.24 16.1,21.58 29.34,18.62 l 293.76,-65.66 c 13.25,-2.96 21.58,-16.1 18.62,-29.34 L 3983.5,2483.2"
         style="fill:#120f14;fill-opacity:1;fill-rule:nonzero;stroke:none"
         id="path118" />
      <path
         d="m 4092.41,2867.17 c 0,0 -729.83,123.81 -195.49,-26.07 0,0 -547.37,91.23 -19.55,-58.64 0,0 -488.72,65.16 0,-71.68 0,0 -397.5,19.55 58.64,-71.68 0,0 -6.51,-781.96 273.69,-827.57 280.2,-45.61 91.23,697.24 -117.29,1055.64"
         style="fill:#a1444b;fill-opacity:1;fill-rule:nonzero;stroke:none"
         id="path120" />
      <path
         d="m 759.531,2241.13 c 0,0 -343.941,-711.57 -324.39,-1125.62 C 454.688,701.461 753.016,0 753.016,0 H 1130.97 L 1178.02,905.199 1235.23,0 h 397.51 c 0,0 236.02,918.352 209.95,1246.96 -26.06,328.61 -301.18,981.02 -301.18,981.02 l -781.979,13.15"
         style="fill:#29202e;fill-opacity:1;fill-rule:nonzero;stroke:none"
         id="path122" />
      <path
         d="m 1830.03,1341.07 c -48.83,-86.8 -126.25,-160.83 -203.26,-217.22 -133.44,-97.68 -292,-169.35 -448.17,-228.37 L 1235.23,0 h 397.51 c 0,0 236.02,918.352 209.95,1246.96 -2.34,29.5 -6.7,61.09 -12.66,94.11"
         style="fill:#120f14;fill-opacity:1;fill-rule:nonzero;stroke:none"
         id="path124" />
      <path
         d="m 1614.12,2108.95 c -41.86,73.23 -72.61,119.03 -72.61,119.03 l -781.979,13.15 c 0,0 -46.023,-62.21 -103.504,-161.29 451.933,-155.64 798.403,-45.57 958.093,29.11"
         style="fill:#120f14;fill-opacity:1;fill-rule:nonzero;stroke:none"
         id="path126" />
      <path
         d="m 741.613,3337.52 c 0,0 417.867,63.54 698.887,-17.1 0,0 100.19,422.75 -146.62,535.16 -246.81,112.41 -486.286,-51.32 -486.286,-51.32 l -65.981,-466.74"
         style="fill:#e3bc8d;fill-opacity:1;fill-rule:nonzero;stroke:none"
         id="path128" />
      <path
         d="m 978.648,3457.26 c 0,0 48.872,-361.66 -48.875,-381.21 -97.746,-19.55 -268.8,78.2 -366.546,-87.97 -97.75,-166.17 312.789,-288.36 581.593,-263.92 272.96,24.81 605.54,70.15 518.06,293.24 -97.75,249.26 -442.8,-122.29 -425.2,229.71 9.77,195.49 14.66,317.67 14.66,317.67 L 978.648,3457.26"
         style="fill:#f6826f;fill-opacity:1;fill-rule:nonzero;stroke:none"
         id="path130" />
      <path
         d="m 984.652,3174.82 c 47.658,-2.58 95.608,1.81 141.108,13.95 45.99,12.27 78.9,30.02 112.17,63.3 9.6,192.57 14.41,312.71 14.41,312.71 L 978.648,3457.26 c 0,0 22.852,-169.24 6.004,-282.44"
         style="fill:#f46f59;fill-opacity:1;fill-rule:nonzero;stroke:none"
         id="path132" />
      <path
         d="m 1061.73,4048.63 c 0,0 -328.781,-27.59 -268.8,-410.54 63.535,-405.65 456.47,-513.84 581.59,-112.41 117.3,376.33 -127.07,537.61 -312.79,522.95"
         style="fill:#f6826f;fill-opacity:1;fill-rule:nonzero;stroke:none"
         id="path134" />
      <path
         d="m 788.043,4151.27 c 0,0 276.137,124.62 305.457,-112.41 23.34,-188.64 -144.176,-195.5 -237.035,-261.48 -92.86,-65.98 21.992,-219.93 21.992,-219.93 0,0 -70.863,12.22 -85.527,80.64 0,0 -48.875,-246.81 168.613,-347 0,0 -92.859,-19.55 -163.727,68.42 0,0 39.098,-78.19 146.622,-85.52 0,0 -102.633,-56.21 -197.938,36.65 l 41.543,-58.65 c 0,0 -144.176,7.33 -185.719,161.29 0,0 2.442,-68.43 -61.094,-83.09 0,0 41.543,58.65 -4.886,97.75 -46.43,39.1 -124.625,197.93 19.551,298.13 144.175,100.19 51.316,315.23 232.148,425.2"
         style="fill:#fcd0b0;fill-opacity:1;fill-rule:nonzero;stroke:none"
         id="path136" />
      <path
         d="m 1384.21,4150.89 c 0,0 -280.22,115.15 -301.45,-122.75 -16.9,-189.32 150.75,-190.47 245.8,-253.25 95.05,-62.78 -14.49,-220.55 -14.49,-220.55 0,0 70.41,14.63 82.73,83.51 0,0 57.25,-245 -156.7,-352.54 0,0 93.48,-16.38 161.3,73.96 0,0 -36.41,-79.49 -143.62,-90.48 0,0 104.49,-52.67 196.58,43.38 l -39.52,-60.03 c 0,0 143.84,12.24 180.11,167.51 0,0 -0.11,-68.46 63.89,-80.95 0,0 -43.52,57.2 1.56,97.85 45.07,40.66 117.81,202.07 -29.7,297.29 -147.5,95.22 -62.02,313.3 -246.49,417.05"
         style="fill:#fcd0b0;fill-opacity:1;fill-rule:nonzero;stroke:none"
         id="path138" />
      <path
         d="m 731.84,4104.84 c 0,0 45.656,55.27 146.805,89.85 44.921,15.36 110.535,0.02 178.205,0.56 41.15,0.33 76.11,15.74 126.98,14.21 66.07,-1.99 117.96,-27.27 185.81,-53.31 l -261.48,-144.17 -376.32,92.86"
         style="fill:#fcd0b0;fill-opacity:1;fill-rule:nonzero;stroke:none"
         id="path140" />
      <path
         d="m 1059.29,3718.73 c 0,0 -14.76,7.8 -36.91,19.49 -21.85,10.89 -50.661,25.49 -79.798,31.39 -7.246,1.77 -14.461,2.22 -21.516,2.74 -6.98,-0.11 -13.925,-0.1 -20.394,-1.57 -6.578,-1.08 -12.723,-3.19 -18.582,-5.51 -5.746,-2.54 -11.238,-5.31 -16.102,-8.48 -2.586,-1.38 -4.633,-3.29 -6.867,-4.83 -2.168,-1.61 -4.469,-2.95 -6.226,-4.64 -3.563,-3.33 -7.297,-5.87 -9.809,-8.47 -5.231,-5.04 -8.613,-7.9 -8.613,-7.9 0,0 1.136,4.1 3.816,11.22 1.27,3.61 3.488,7.63 6.016,12.37 2.699,4.59 6.004,9.82 10.511,14.84 4.368,5.19 9.793,10.38 16.325,15.07 6.632,4.48 14.23,8.76 22.765,11.44 8.442,3.09 17.668,4.35 26.953,4.91 9.243,0.16 18.664,-0.51 27.61,-2.47 9.008,-1.85 17.644,-4.61 25.777,-7.98 8.141,-3.33 15.766,-7.27 22.805,-11.5 14.129,-8.4 25.869,-18.04 35.119,-27.02 9.36,-8.84 16.13,-17.21 20.59,-23.24 4.46,-6.04 6.53,-9.86 6.53,-9.86"
         style="fill:#29202e;fill-opacity:1;fill-rule:nonzero;stroke:none"
         id="path142" />
      <path
         d="m 1125.27,3713.85 c 0,0 4.26,17.31 18.28,39.74 6.89,11.28 16.21,23.78 28.41,35.52 12.09,11.78 27.23,22.85 45,30.03 8.9,3.42 18.32,6.17 27.98,6.95 9.58,1.29 19.25,0.24 28.22,-1.35 8.93,-2.11 17.17,-5.19 24.3,-9.1 3.45,-2.14 7,-3.86 9.95,-6.19 2.92,-2.31 5.74,-4.54 8.45,-6.68 4.93,-4.75 9.51,-8.91 12.71,-13.36 3.4,-4.24 6.29,-7.91 8.21,-11.31 4.03,-6.6 5.98,-10.49 5.98,-10.49 0,0 -3.91,2.24 -10.12,6.38 -2.98,2.21 -7.14,4.19 -11.37,6.91 -4.21,2.8 -9.57,4.88 -14.73,7.85 -5.56,2.31 -11.43,4.77 -17.71,6.57 -6.24,1.91 -12.86,2.98 -19.58,3.71 -6.79,0.18 -13.67,0.22 -20.62,-1.14 -6.94,-1.1 -13.94,-3.2 -20.79,-5.97 -6.94,-2.57 -13.59,-6.3 -20.21,-9.97 -6.46,-4.02 -12.89,-8.07 -18.87,-12.59 -6.05,-4.38 -11.76,-8.99 -17.17,-13.45 -5.33,-4.55 -10.54,-8.82 -15.15,-13.04 -9.25,-8.38 -17.03,-15.64 -22.49,-20.82 -5.52,-5.22 -8.68,-8.2 -8.68,-8.2"
         style="fill:#29202e;fill-opacity:1;fill-rule:nonzero;stroke:none"
         id="path144" />
      <path
         d="m 902.895,3638.09 c 0,0 2.148,-2.1 5.906,-5.77 3.738,-3.61 9.043,-8.71 15.515,-14.33 3.282,-2.77 6.883,-5.62 10.645,-8.54 3.82,-2.86 8.023,-5.46 12.254,-8.04 2.129,-1.28 4.418,-2.19 6.625,-3.34 2.262,-0.85 4.551,-1.71 6.859,-2.57 4.649,-1.16 9.278,-2.12 13.883,-1.87 l 3.441,0.22 c 0.325,0 1.704,0.12 1.168,0.01 l 2.149,0.48 c 2.609,0.73 6.265,1.04 8.019,1.92 4.079,1.37 8.844,3 12.771,5.56 2.06,1.17 3.93,2.52 5.74,3.95 1.92,1.29 3.58,2.84 5.18,4.41 3.22,3.12 5.99,6.51 8.47,9.8 4.78,6.71 8.05,13.2 10.18,17.87 2.15,4.68 3.15,7.57 3.15,7.57 0,0 0.66,-2.99 0.66,-8.38 -0.04,-2.69 -0.18,-5.98 -0.79,-9.73 -0.61,-3.74 -1.54,-7.99 -3.23,-12.47 -1.69,-4.46 -3.84,-9.34 -7.17,-13.93 -3.16,-4.67 -7.17,-9.41 -12.29,-13.17 -4.98,-3.92 -10.59,-7.29 -17.428,-9.7 -3.559,-1.51 -5.825,-1.73 -8.844,-2.57 l -2.137,-0.52 c -1.969,-0.41 -2.074,-0.26 -3.203,-0.42 l -5.355,-0.43 c -3.579,-0.34 -7.086,0.51 -10.606,0.79 -3.457,0.56 -6.695,1.81 -9.98,2.73 -6.266,2.5 -11.832,5.87 -16.735,9.47 -9.738,7.34 -16.746,15.87 -21.836,23.55 -10.242,15.4 -13.011,27.45 -13.011,27.45"
         style="fill:#29202e;fill-opacity:1;fill-rule:nonzero;stroke:none"
         id="path146" />
      <path
         d="m 1288.99,3638.09 c 0,0 -2.76,-12.05 -13.01,-27.45 -5.09,-7.68 -12.09,-16.21 -21.83,-23.55 -4.91,-3.6 -10.47,-6.97 -16.74,-9.47 -3.28,-0.92 -6.52,-2.17 -9.98,-2.73 -3.52,-0.28 -7.02,-1.13 -10.6,-0.79 l -5.36,0.43 c -1.13,0.16 -1.23,0.01 -3.2,0.42 l -2.14,0.52 c -3.02,0.84 -5.28,1.06 -8.84,2.57 -6.84,2.41 -12.45,5.78 -17.43,9.7 -5.12,3.76 -9.13,8.5 -12.3,13.17 -3.32,4.59 -5.47,9.47 -7.16,13.93 -1.69,4.48 -2.62,8.73 -3.23,12.47 -0.61,3.75 -0.75,7.04 -0.79,9.73 0,5.39 0.66,8.38 0.66,8.38 0,0 1,-2.89 3.15,-7.57 2.13,-4.67 5.4,-11.16 10.18,-17.87 2.48,-3.29 5.25,-6.68 8.47,-9.8 1.6,-1.57 3.26,-3.12 5.18,-4.41 1.81,-1.43 3.68,-2.78 5.74,-3.95 3.92,-2.56 8.69,-4.19 12.77,-5.56 1.75,-0.88 5.41,-1.19 8.02,-1.92 l 2.15,-0.48 c -0.54,0.11 0.84,-0.01 1.17,-0.01 l 3.44,-0.22 c 4.6,-0.25 9.23,0.71 13.88,1.87 2.31,0.86 4.6,1.72 6.86,2.57 2.21,1.15 4.5,2.06 6.62,3.34 4.24,2.58 8.44,5.18 12.26,8.04 3.76,2.92 7.36,5.77 10.64,8.54 6.48,5.62 11.78,10.72 15.52,14.33 3.76,3.67 5.9,5.77 5.9,5.77"
         style="fill:#29202e;fill-opacity:1;fill-rule:nonzero;stroke:none"
         id="path148" />
      <path
         d="m 1120.38,3669.86 7.88,-34.64 c 1.49,-5.65 2.67,-11.29 4.23,-16.81 0.67,-2.8 1.67,-5.48 2.35,-8.24 0.72,-2.75 1.49,-5.47 2.45,-8.11 1.7,-5.39 3.76,-10.51 5.72,-15.65 l 3.39,-7.38 c 1.02,-2.55 2.5,-4.7 3.78,-6.99 1.26,-2.32 2.58,-4.59 4.23,-6.47 1.6,-1.91 2.8,-4.39 4.71,-5.85 1.84,-1.56 3.33,-3.66 5.26,-5.08 l 5.93,-4.07 14.71,-10.1 -14.93,-5.56 c -4.96,-1.85 -10.07,-3.35 -15.13,-4.97 -5.04,-1.67 -10.18,-3.12 -15.33,-4.52 -10.28,-2.85 -20.7,-5.38 -31.47,-7.07 8.78,6.46 17.92,12.08 27.18,17.37 4.62,2.67 9.27,5.29 14,7.7 4.71,2.46 9.38,5.02 14.19,7.25 l -0.22,-15.66 -9.32,4.91 c -2.98,1.82 -5.48,4.18 -8.14,6.42 -2.82,2.15 -4.53,5 -6.81,7.52 -2.25,2.57 -3.96,5.36 -5.6,8.19 -1.69,2.8 -3.42,5.62 -4.58,8.58 -1.25,2.94 -2.71,5.82 -3.75,8.81 -2.03,5.96 -3.9,11.96 -5.02,18.04 -1.37,6.04 -2.33,12.09 -2.87,18.19 -0.54,6.08 -0.99,12.13 -0.88,18.2 0,12.1 1.16,24.2 4.04,35.99"
         style="fill:#da6445;fill-opacity:1;fill-rule:nonzero;stroke:none"
         id="path150" />
      <path
         d="m 995.754,3484.14 c 0,0 2.094,-2.11 5.906,-5.43 3.78,-3.33 9.17,-7.95 15.87,-12.86 3.26,-2.57 7.12,-4.87 10.91,-7.56 3.98,-2.43 8.2,-4.91 12.59,-7.27 4.44,-2.34 9.08,-4.51 13.95,-6.34 4.72,-2.2 9.82,-3.52 14.82,-5.13 4.99,-1.68 10.27,-2.24 15.29,-3.62 5.2,-0.7 10.32,-1.39 15.27,-2.05 5.03,0 9.94,-0.31 14.65,-0.58 4.69,-0.12 9.16,0.37 13.36,0.34 4.18,0.15 8.12,0.04 11.52,0.55 3.43,0.41 6.49,0.57 9.03,0.75 5.08,0.31 8.12,0.33 8.12,0.33 0,0 -2.47,-1.57 -6.99,-4.05 -2.28,-1.21 -5.04,-2.74 -8.32,-4.28 -3.21,-1.77 -7.05,-3.08 -11.34,-4.34 -4.28,-1.25 -8.89,-3.06 -14,-3.83 -5.1,-0.75 -10.55,-1.64 -16.24,-2.11 -5.69,0.16 -11.67,-0.04 -17.69,0.49 -5.95,1.07 -12.13,1.78 -18.03,3.61 -5.87,1.97 -11.83,3.68 -17.18,6.63 -5.6,2.41 -10.51,5.86 -15.28,9.04 -4.78,3.16 -8.84,7.02 -12.65,10.53 -3.69,3.69 -7.02,7.29 -9.67,10.97 -5.6,7.06 -9.02,13.79 -11.134,18.53 -2.102,4.77 -2.762,7.68 -2.762,7.68"
         style="fill:#da6445;fill-opacity:1;fill-rule:nonzero;stroke:none"
         id="path152" />
      <path
         d="m 870.313,3081.75 c 0,0 13.031,-162.91 241.107,-162.91 228.08,0 202.01,175.94 202.01,175.94 0,0 286.73,136.85 377.96,-58.64 91.23,-195.5 -84.72,-853.66 -84.72,-853.66 0,0 -469.18,-156.39 -918.818,13.03 0,0 -221.559,645.13 -162.911,768.94 58.649,123.82 117.297,175.95 345.372,117.3"
         style="fill:#5b94c0;fill-opacity:1;fill-rule:nonzero;stroke:none"
         id="path154" />
      <path
         d="m 1024.97,2595.52 c -193.536,32.41 -352.583,131.16 -505.669,242.13 26.469,-228.39 168.551,-642.14 168.551,-642.14 449.638,-169.42 918.818,-13.03 918.818,-13.03 0,0 64.97,243.05 95.48,477.63 -220.63,-66.92 -450.56,-102.54 -677.18,-64.59"
         style="fill:#4a7c9c;fill-opacity:1;fill-rule:nonzero;stroke:none"
         id="path156" />
      <path
         d="m 394.609,2536 c 0,0 -171.054,-674.45 0,-801.53 171.059,-127.07 263.918,718.44 263.918,718.44 L 394.609,2536"
         style="fill:#f46f59;fill-opacity:1;fill-rule:nonzero;stroke:none"
         id="path158" />
      <path
         d="m 1848.14,2570.21 c 0,0 171.06,-674.45 0,-801.52 -171.06,-127.08 -263.92,718.43 -263.92,718.43 l 263.92,83.09"
         style="fill:#f46f59;fill-opacity:1;fill-rule:nonzero;stroke:none"
         id="path160" />
      <path
         d="m 707.402,2443.14 c 0,0 -205.269,29.32 -386.101,117.29 0,0 195.496,488.74 259.027,522.95 63.539,34.21 289.985,-1.63 289.985,-1.63 L 707.402,2443.14"
         style="fill:#5b94c0;fill-opacity:1;fill-rule:nonzero;stroke:none"
         id="path162" />
      <path
         d="m 1535.35,2477.35 c 0,0 205.27,29.32 386.1,117.3 0,0 -195.49,488.73 -259.03,522.94 -63.53,34.21 -289.98,-1.63 -289.98,-1.63 l 162.91,-638.61"
         style="fill:#5b94c0;fill-opacity:1;fill-rule:nonzero;stroke:none"
         id="path164" />
      <path
         d="m 1289.44,2188.89 c -0.79,-13.55 -12.41,-23.89 -25.96,-23.1 l -300.5,17.56 c -13.546,0.79 -23.886,12.42 -23.097,25.97 l 37.996,650.05 c 0.789,13.55 12.414,23.89 25.961,23.1 l 300.5,-17.56 c 13.55,-0.8 23.89,-12.42 23.1,-25.97 l -38,-650.05"
         style="fill:#120f14;fill-opacity:1;fill-rule:nonzero;stroke:none"
         id="path166" />
      <path
         d="m 316.414,1949.52 c 0,0 474.07,586.48 532.719,625.58 58.648,39.1 650.017,0 244.367,-24.44 0,0 430.09,-39.1 4.89,-43.99 0,0 390.99,-53.76 -48.87,-43.98 0,0 322.56,-63.54 -73.317,-34.21 0,0 -308.07,-721.01 -459.406,-728.22 -205.27,-9.77 -200.383,249.26 -200.383,249.26"
         style="fill:#f6826f;fill-opacity:1;fill-rule:nonzero;stroke:none"
         id="path168" />
      <path
         d="m 1926.34,1983.73 c 0,0 -474.07,586.48 -532.72,625.58 -58.65,39.1 -650.018,0 -244.37,-24.44 0,0 -430.086,-39.1 -4.89,-43.98 0,0 -390.981,-53.77 48.88,-43.99 0,0 -322.568,-63.54 73.31,-34.21 0,0 308.07,-721.01 459.41,-728.22 205.27,-9.77 200.38,249.26 200.38,249.26"
         style="fill:#f6826f;fill-opacity:1;fill-rule:nonzero;stroke:none"
         id="path170" />
    </g>
  </g>
</svg>
